<?xml version="1.0" encoding="utf-8"?>
<!-- Generator: Adobe Illustrator 26.0.3, SVG Export Plug-In . SVG Version: 6.00 Build 0)  -->
<svg version="1.1" id="Layer_1" xmlns="http://www.w3.org/2000/svg" xmlns:xlink="http://www.w3.org/1999/xlink" x="0px" y="0px"
	 viewBox="0 0 141.65 35.22" style="enable-background:new 0 0 141.65 35.22;" xml:space="preserve">
<style type="text/css">
	.st0{fill:#FFFFFF;}
	.st1{fill:#3E3A39;}
	.st2{fill:#FABE00;}
	.st3{fill:#EFEFEF;}
	.st4{fill:#DCDDDD;}
	.st5{fill:#C9CACA;}
	.st6{fill:#B5B5B6;}
	.st7{fill:#9FA0A0;}
	.st8{fill:#898989;}
	.st9{fill:#727171;}
	.st10{fill:#595757;}
	.st11{fill:#F39800;}
	.st12{fill:#FFE100;}
</style>
<rect x="-628.13" y="-935.22" class="st0" width="595.28" height="841.89"/>
<g>
	<g>
		<path class="st1" d="M-388.49-888.15c-5.6-3.55-12.84-3.17-18.03,0.96c-5.2,4.12-7.21,11.08-5.03,17.34
			c2.18,6.26,8.09,10.46,14.72,10.46c5.04,0,9.92-2.32,13.18-6.12c-2.61-0.95-5.23-1.9-7.84-2.85c-1.63,1.32-3.24,1.89-5.34,1.89
			c-3.08,0-5.42-2.29-6.44-4.96c7.21,0,14.42,0,21.62,0C-380.14-877.9-382.89-884.6-388.49-888.15z M-403.27-878.52
			c2.53-6.61,10.36-6.61,12.88,0C-394.68-878.52-398.98-878.52-403.27-878.52z"/>
		<path class="st1" d="M-454.94-890.57v-8.5h-8.5v31.18l8.5,8.5h7.09c8.61,0,15.59-6.98,15.59-15.59c0-8.61-6.98-15.59-15.59-15.59
			H-454.94z M-447.85-882.07c3.91,0,7.09,3.17,7.09,7.09c0,3.91-3.17,7.09-7.09,7.09h-7.09v-14.17H-447.85z"/>
		<rect x="-426.6" y="-899.08" class="st1" width="8.5" height="39.69"/>
		<g>
			<polygon class="st1" points="-481.87,-899.08 -490.37,-890.57 -490.37,-859.39 -481.87,-859.39 -481.87,-890.57 -467.7,-890.57 
				-467.7,-899.08 			"/>
			<polygon class="st1" points="-504.55,-899.08 -504.55,-890.57 -494.38,-890.57 -485.88,-899.08 			"/>
		</g>
	</g>
	<g>
		<path class="st2" d="M-536.17-866.7c-9.33,0-16.9-7.57-16.9-16.9c0-7.54,4.95-13.93,11.77-16.1c-5.58-1.74-12.05-0.7-16.93,4.19
			c-10.64,10.64-3.1,28.83,11.94,28.83c0,3.92-1.03,7-3.38,10.13c5.57-1.8,10.58-5.46,14.22-10.16
			C-535.69-866.71-535.93-866.7-536.17-866.7z"/>
		<path class="st2" d="M-544.71-895.51c-10.64,10.64-3.1,28.83,11.94,28.83c0,3.92-1.03,7-3.38,10.13
			c11.28-3.64,20.26-14.92,20.26-27.02C-515.89-898.62-534.07-906.15-544.71-895.51z"/>
	</g>
</g>
<rect x="-330.49" y="-935.22" class="st1" width="297.64" height="311.81"/>
<rect x="-32.85" y="-935.22" class="st3" width="297.64" height="84.19"/>
<rect x="-32.85" y="-851.03" class="st4" width="297.64" height="84.19"/>
<rect x="-32.85" y="-766.84" class="st5" width="297.64" height="84.19"/>
<rect x="-32.85" y="-682.65" class="st6" width="297.64" height="84.19"/>
<rect x="-32.85" y="-598.46" class="st7" width="297.64" height="84.19"/>
<rect x="-32.85" y="-514.27" class="st8" width="297.64" height="84.19"/>
<rect x="-32.85" y="-430.08" class="st9" width="297.64" height="84.19"/>
<rect x="-32.85" y="-345.89" class="st10" width="297.64" height="84.19"/>
<rect x="-32.85" y="-261.71" class="st1" width="297.64" height="84.19"/>
<rect x="-32.85" y="-177.52" width="297.64" height="84.19"/>
<g>
	<g>
		<path class="st0" d="M-90.85-888.15c-5.6-3.55-12.84-3.17-18.03,0.96c-5.2,4.12-7.21,11.08-5.03,17.34
			c2.18,6.26,8.09,10.46,14.72,10.46c5.04,0,9.92-2.32,13.18-6.12c-2.61-0.95-5.23-1.9-7.84-2.85c-1.63,1.32-3.24,1.89-5.34,1.89
			c-3.08,0-5.42-2.29-6.44-4.96c7.21,0,14.42,0,21.62,0C-82.5-877.9-85.25-884.6-90.85-888.15z M-105.64-878.52
			c2.53-6.61,10.36-6.61,12.88,0C-97.05-878.52-101.34-878.52-105.64-878.52z"/>
		<path class="st0" d="M-157.3-890.57v-8.5h-8.5v31.18l8.5,8.5h7.09c8.61,0,15.59-6.98,15.59-15.59c0-8.61-6.98-15.59-15.59-15.59
			H-157.3z M-150.22-882.07c3.91,0,7.09,3.17,7.09,7.09c0,3.91-3.17,7.09-7.09,7.09h-7.09v-14.17H-150.22z"/>
		<rect x="-128.96" y="-899.08" class="st0" width="8.5" height="39.69"/>
		<g>
			<polygon class="st0" points="-184.23,-899.08 -192.74,-890.57 -192.74,-859.39 -184.23,-859.39 -184.23,-890.57 -170.06,-890.57 
				-170.06,-899.08 			"/>
			<polygon class="st0" points="-206.91,-899.08 -206.91,-890.57 -196.75,-890.57 -188.24,-899.08 			"/>
		</g>
	</g>
	<g>
		<path class="st2" d="M-238.54-866.7c-9.33,0-16.9-7.57-16.9-16.9c0-7.54,4.95-13.93,11.77-16.1c-5.58-1.74-12.05-0.7-16.93,4.19
			c-10.64,10.64-3.1,28.83,11.94,28.83c0,3.92-1.03,7-3.38,10.13c5.57-1.8,10.58-5.46,14.22-10.16
			C-238.05-866.71-238.29-866.7-238.54-866.7z"/>
		<path class="st2" d="M-247.07-895.51c-10.64,10.64-3.1,28.83,11.94,28.83c0,3.92-1.03,7-3.38,10.13
			c11.28-3.64,20.26-14.92,20.26-27.02C-218.25-898.62-236.44-906.15-247.07-895.51z"/>
	</g>
</g>
<g>
	<g>
		<path d="M180.79-900.58c-4.34-2.75-9.94-2.45-13.96,0.74c-4.02,3.19-5.58,8.58-3.9,13.43c1.69,4.85,6.26,8.1,11.4,8.1
			c3.9,0,7.68-1.79,10.21-4.74c-2.02-0.74-4.05-1.47-6.07-2.21c-1.26,1.02-2.51,1.46-4.14,1.46c-2.39,0-4.2-1.77-4.99-3.84
			c5.58,0,11.16,0,16.74,0C187.25-892.64,185.13-897.83,180.79-900.58z M169.35-893.12c1.96-5.12,8.02-5.12,9.97,0
			C176-893.12,172.67-893.12,169.35-893.12z"/>
		<path d="M129.34-902.45v-6.58h-6.58v24.14l6.58,6.58h5.49c6.67,0,12.07-5.4,12.07-12.07s-5.4-12.07-12.07-12.07H129.34z
			 M134.83-895.87c3.03,0,5.49,2.46,5.49,5.49c0,3.03-2.46,5.49-5.49,5.49h-5.49v-10.97H134.83z"/>
		<rect x="151.29" y="-909.03" width="6.58" height="30.72"/>
		<g>
			<polygon points="108.5,-909.03 101.91,-902.45 101.91,-878.31 108.5,-878.31 108.5,-902.45 119.47,-902.45 119.47,-909.03 			"/>
			<polygon points="90.94,-909.03 90.94,-902.45 98.81,-902.45 105.39,-909.03 			"/>
		</g>
	</g>
	<g>
		<path d="M66.46-883.97c-7.22,0-13.08-5.86-13.08-13.08c0-5.84,3.83-10.79,9.11-12.47c-4.32-1.35-9.33-0.54-13.11,3.24
			c-8.24,8.24-2.4,22.32,9.24,22.32c0,3.03-0.8,5.42-2.61,7.84c4.31-1.39,8.19-4.23,11.01-7.87
			C66.83-883.97,66.64-883.97,66.46-883.97z"/>
		<path d="M59.84-906.28c-8.24,8.24-2.4,22.32,9.24,22.32c0,3.03-0.8,5.42-2.61,7.84c8.74-2.82,15.69-11.55,15.69-20.92
			C82.16-908.68,68.08-914.51,59.84-906.28z"/>
	</g>
</g>
<g>
	<g>
		<path d="M180.79-816.39c-4.34-2.75-9.94-2.45-13.96,0.74c-4.02,3.19-5.58,8.58-3.9,13.43c1.69,4.85,6.26,8.1,11.4,8.1
			c3.9,0,7.68-1.79,10.21-4.74c-2.02-0.74-4.05-1.47-6.07-2.21c-1.26,1.02-2.51,1.46-4.14,1.46c-2.39,0-4.2-1.77-4.99-3.84
			c5.58,0,11.16,0,16.74,0C187.25-808.45,185.13-813.64,180.79-816.39z M169.35-808.93c1.96-5.12,8.02-5.12,9.97,0
			C176-808.93,172.67-808.93,169.35-808.93z"/>
		<path d="M129.34-818.26v-6.58h-6.58v24.14l6.58,6.58h5.49c6.67,0,12.07-5.4,12.07-12.07c0-6.67-5.4-12.07-12.07-12.07H129.34z
			 M134.83-811.68c3.03,0,5.49,2.46,5.49,5.49c0,3.03-2.46,5.49-5.49,5.49h-5.49v-10.97H134.83z"/>
		<rect x="151.29" y="-824.84" width="6.58" height="30.72"/>
		<g>
			<polygon points="108.5,-824.84 101.91,-818.26 101.91,-794.12 108.5,-794.12 108.5,-818.26 119.47,-818.26 119.47,-824.84 			"/>
			<polygon points="90.94,-824.84 90.94,-818.26 98.81,-818.26 105.39,-824.84 			"/>
		</g>
	</g>
	<g>
		<path d="M66.46-799.78c-7.22,0-13.08-5.86-13.08-13.08c0-5.84,3.83-10.79,9.11-12.47c-4.32-1.35-9.33-0.54-13.11,3.24
			c-8.24,8.24-2.4,22.32,9.24,22.32c0,3.03-0.8,5.42-2.61,7.84c4.31-1.39,8.19-4.23,11.01-7.87
			C66.83-799.78,66.64-799.78,66.46-799.78z"/>
		<path d="M59.84-822.09c-8.24,8.24-2.4,22.32,9.24,22.32c0,3.03-0.8,5.42-2.61,7.84c8.74-2.82,15.69-11.55,15.69-20.92
			C82.16-824.49,68.08-830.32,59.84-822.09z"/>
	</g>
</g>
<g>
	<g>
		<path d="M180.79-732.2c-4.34-2.75-9.94-2.45-13.96,0.74s-5.58,8.58-3.9,13.43c1.69,4.85,6.26,8.1,11.4,8.1
			c3.9,0,7.68-1.79,10.21-4.74c-2.02-0.74-4.05-1.47-6.07-2.21c-1.26,1.02-2.51,1.46-4.14,1.46c-2.39,0-4.2-1.77-4.99-3.84
			c5.58,0,11.16,0,16.74,0C187.25-724.26,185.13-729.45,180.79-732.2z M169.35-724.74c1.96-5.12,8.02-5.12,9.97,0
			C176-724.74,172.67-724.74,169.35-724.74z"/>
		<path d="M129.34-734.07v-6.58h-6.58v24.14l6.58,6.58h5.49c6.67,0,12.07-5.4,12.07-12.07c0-6.67-5.4-12.07-12.07-12.07H129.34z
			 M134.83-727.49c3.03,0,5.49,2.46,5.49,5.49s-2.46,5.49-5.49,5.49h-5.49v-10.97H134.83z"/>
		<rect x="151.29" y="-740.66" width="6.58" height="30.72"/>
		<g>
			<polygon points="108.5,-740.66 101.91,-734.07 101.91,-709.93 108.5,-709.93 108.5,-734.07 119.47,-734.07 119.47,-740.66 			"/>
			<polygon points="90.94,-740.66 90.94,-734.07 98.81,-734.07 105.39,-740.66 			"/>
		</g>
	</g>
	<g>
		<path d="M66.46-715.59c-7.22,0-13.08-5.86-13.08-13.08c0-5.84,3.83-10.79,9.11-12.47c-4.32-1.35-9.33-0.54-13.11,3.24
			c-8.24,8.24-2.4,22.32,9.24,22.32c0,3.03-0.8,5.42-2.61,7.84c4.31-1.39,8.19-4.23,11.01-7.87
			C66.83-715.6,66.64-715.59,66.46-715.59z"/>
		<path d="M59.84-737.9c-8.24,8.24-2.4,22.32,9.24,22.32c0,3.03-0.8,5.42-2.61,7.84c8.74-2.82,15.69-11.55,15.69-20.92
			C82.16-740.3,68.08-746.13,59.84-737.9z"/>
	</g>
</g>
<g>
	<g>
		<path d="M180.79-648.01c-4.34-2.75-9.94-2.45-13.96,0.74s-5.58,8.58-3.9,13.43c1.69,4.85,6.26,8.1,11.4,8.1
			c3.9,0,7.68-1.79,10.21-4.74c-2.02-0.74-4.05-1.47-6.07-2.21c-1.26,1.02-2.51,1.46-4.14,1.46c-2.39,0-4.2-1.77-4.99-3.84
			c5.58,0,11.16,0,16.74,0C187.25-640.07,185.13-645.26,180.79-648.01z M169.35-640.56c1.96-5.12,8.02-5.12,9.97,0
			C176-640.56,172.67-640.56,169.35-640.56z"/>
		<path d="M129.34-649.88v-6.58h-6.58v24.14l6.58,6.58h5.49c6.67,0,12.07-5.4,12.07-12.07c0-6.67-5.4-12.07-12.07-12.07H129.34z
			 M134.83-643.3c3.03,0,5.49,2.46,5.49,5.49c0,3.03-2.46,5.49-5.49,5.49h-5.49v-10.97H134.83z"/>
		<rect x="151.29" y="-656.47" width="6.58" height="30.72"/>
		<g>
			<polygon points="108.5,-656.47 101.91,-649.88 101.91,-625.74 108.5,-625.74 108.5,-649.88 119.47,-649.88 119.47,-656.47 			"/>
			<polygon points="90.94,-656.47 90.94,-649.88 98.81,-649.88 105.39,-656.47 			"/>
		</g>
	</g>
	<g>
		<path d="M66.46-631.4c-7.22,0-13.08-5.86-13.08-13.08c0-5.84,3.83-10.79,9.11-12.47c-4.32-1.35-9.33-0.54-13.11,3.24
			c-8.24,8.24-2.4,22.32,9.24,22.32c0,3.03-0.8,5.42-2.61,7.84c4.31-1.39,8.19-4.23,11.01-7.87
			C66.83-631.41,66.64-631.4,66.46-631.4z"/>
		<path d="M59.84-653.71c-8.24,8.24-2.4,22.32,9.24,22.32c0,3.03-0.8,5.42-2.61,7.84c8.74-2.82,15.69-11.55,15.69-20.92
			C82.16-656.11,68.08-661.94,59.84-653.71z"/>
	</g>
</g>
<g>
	<g>
		<path class="st0" d="M180.79-563.82c-4.34-2.75-9.94-2.45-13.96,0.74s-5.58,8.58-3.9,13.43c1.69,4.85,6.26,8.1,11.4,8.1
			c3.9,0,7.68-1.79,10.21-4.74c-2.02-0.74-4.05-1.47-6.07-2.21c-1.26,1.02-2.51,1.46-4.14,1.46c-2.39,0-4.2-1.77-4.99-3.84
			c5.58,0,11.16,0,16.74,0C187.25-555.88,185.13-561.07,180.79-563.82z M169.35-556.37c1.96-5.12,8.02-5.12,9.97,0
			C176-556.37,172.67-556.37,169.35-556.37z"/>
		<path class="st0" d="M129.34-565.69v-6.58h-6.58v24.14l6.58,6.58h5.49c6.67,0,12.07-5.4,12.07-12.07c0-6.67-5.4-12.07-12.07-12.07
			H129.34z M134.83-559.11c3.03,0,5.49,2.46,5.49,5.49c0,3.03-2.46,5.49-5.49,5.49h-5.49v-10.97H134.83z"/>
		<rect x="151.29" y="-572.28" class="st0" width="6.58" height="30.72"/>
		<g>
			<polygon class="st0" points="108.5,-572.28 101.91,-565.69 101.91,-541.55 108.5,-541.55 108.5,-565.69 119.47,-565.69 
				119.47,-572.28 			"/>
			<polygon class="st0" points="90.94,-572.28 90.94,-565.69 98.81,-565.69 105.39,-572.28 			"/>
		</g>
	</g>
	<g>
		<path class="st0" d="M66.46-547.21c-7.22,0-13.08-5.86-13.08-13.08c0-5.84,3.83-10.79,9.11-12.47c-4.32-1.35-9.33-0.54-13.11,3.24
			c-8.24,8.24-2.4,22.32,9.24,22.32c0,3.03-0.8,5.42-2.61,7.84c4.31-1.39,8.19-4.23,11.01-7.87
			C66.83-547.22,66.64-547.21,66.46-547.21z"/>
		<path class="st0" d="M59.84-569.52c-8.24,8.24-2.4,22.32,9.24,22.32c0,3.03-0.8,5.42-2.61,7.84c8.74-2.82,15.69-11.55,15.69-20.92
			C82.16-571.92,68.08-577.76,59.84-569.52z"/>
	</g>
</g>
<g>
	<g>
		<path class="st0" d="M180.79-479.63c-4.34-2.75-9.94-2.45-13.96,0.74c-4.02,3.19-5.58,8.58-3.9,13.43c1.69,4.85,6.26,8.1,11.4,8.1
			c3.9,0,7.68-1.79,10.21-4.74c-2.02-0.74-4.05-1.47-6.07-2.21c-1.26,1.02-2.51,1.46-4.14,1.46c-2.39,0-4.2-1.77-4.99-3.84
			c5.58,0,11.16,0,16.74,0C187.25-471.69,185.13-476.88,180.79-479.63z M169.35-472.18c1.96-5.12,8.02-5.12,9.97,0
			C176-472.18,172.67-472.18,169.35-472.18z"/>
		<path class="st0" d="M129.34-481.5v-6.58h-6.58v24.14l6.58,6.58h5.49c6.67,0,12.07-5.4,12.07-12.07c0-6.67-5.4-12.07-12.07-12.07
			H129.34z M134.83-474.92c3.03,0,5.49,2.46,5.49,5.49c0,3.03-2.46,5.49-5.49,5.49h-5.49v-10.97H134.83z"/>
		<rect x="151.29" y="-488.09" class="st0" width="6.58" height="30.72"/>
		<g>
			<polygon class="st0" points="108.5,-488.09 101.91,-481.5 101.91,-457.36 108.5,-457.36 108.5,-481.5 119.47,-481.5 
				119.47,-488.09 			"/>
			<polygon class="st0" points="90.94,-488.09 90.94,-481.5 98.81,-481.5 105.39,-488.09 			"/>
		</g>
	</g>
	<g>
		<path class="st0" d="M66.46-463.02c-7.22,0-13.08-5.86-13.08-13.08c0-5.84,3.83-10.79,9.11-12.47c-4.32-1.35-9.33-0.54-13.11,3.24
			c-8.24,8.24-2.4,22.32,9.24,22.32c0,3.03-0.8,5.42-2.61,7.84c4.31-1.39,8.19-4.23,11.01-7.87
			C66.83-463.03,66.64-463.02,66.46-463.02z"/>
		<path class="st0" d="M59.84-485.33c-8.24,8.24-2.4,22.32,9.24,22.32c0,3.03-0.8,5.42-2.61,7.84c8.74-2.82,15.69-11.55,15.69-20.92
			C82.16-487.73,68.08-493.57,59.84-485.33z"/>
	</g>
</g>
<g>
	<g>
		<path class="st0" d="M180.79-395.44c-4.34-2.75-9.94-2.45-13.96,0.74c-4.02,3.19-5.58,8.58-3.9,13.43c1.69,4.85,6.26,8.1,11.4,8.1
			c3.9,0,7.68-1.79,10.21-4.74c-2.02-0.74-4.05-1.47-6.07-2.21c-1.26,1.02-2.51,1.46-4.14,1.46c-2.39,0-4.2-1.77-4.99-3.84
			c5.58,0,11.16,0,16.74,0C187.25-387.5,185.13-392.69,180.79-395.44z M169.35-387.99c1.96-5.12,8.02-5.12,9.97,0
			C176-387.99,172.67-387.99,169.35-387.99z"/>
		<path class="st0" d="M129.34-397.32v-6.58h-6.58v24.14l6.58,6.58h5.49c6.67,0,12.07-5.4,12.07-12.07s-5.4-12.07-12.07-12.07
			H129.34z M134.83-390.73c3.03,0,5.49,2.46,5.49,5.49c0,3.03-2.46,5.49-5.49,5.49h-5.49v-10.97H134.83z"/>
		<rect x="151.29" y="-403.9" class="st0" width="6.58" height="30.72"/>
		<g>
			<polygon class="st0" points="108.5,-403.9 101.91,-397.32 101.91,-373.18 108.5,-373.18 108.5,-397.32 119.47,-397.32 
				119.47,-403.9 			"/>
			<polygon class="st0" points="90.94,-403.9 90.94,-397.32 98.81,-397.32 105.39,-403.9 			"/>
		</g>
	</g>
	<g>
		<path class="st0" d="M66.46-378.83c-7.22,0-13.08-5.86-13.08-13.08c0-5.84,3.83-10.79,9.11-12.47c-4.32-1.35-9.33-0.54-13.11,3.24
			c-8.24,8.24-2.4,22.32,9.24,22.32c0,3.03-0.8,5.42-2.61,7.84c4.31-1.39,8.19-4.23,11.01-7.87
			C66.83-378.84,66.64-378.83,66.46-378.83z"/>
		<path class="st0" d="M59.84-401.14c-8.24,8.24-2.4,22.32,9.24,22.32c0,3.03-0.8,5.42-2.61,7.84c8.74-2.82,15.69-11.55,15.69-20.92
			C82.16-403.54,68.08-409.38,59.84-401.14z"/>
	</g>
</g>
<g>
	<g>
		<path class="st0" d="M180.79-311.25c-4.34-2.75-9.94-2.45-13.96,0.74c-4.02,3.19-5.58,8.58-3.9,13.43c1.69,4.85,6.26,8.1,11.4,8.1
			c3.9,0,7.68-1.79,10.21-4.74c-2.02-0.74-4.05-1.47-6.07-2.21c-1.26,1.02-2.51,1.46-4.14,1.46c-2.39,0-4.2-1.77-4.99-3.84
			c5.58,0,11.16,0,16.74,0C187.25-303.31,185.13-308.51,180.79-311.25z M169.35-303.8c1.96-5.12,8.02-5.12,9.97,0
			C176-303.8,172.67-303.8,169.35-303.8z"/>
		<path class="st0" d="M129.34-313.13v-6.58h-6.58v24.14l6.58,6.58h5.49c6.67,0,12.07-5.4,12.07-12.07c0-6.67-5.4-12.07-12.07-12.07
			H129.34z M134.83-306.54c3.03,0,5.49,2.46,5.49,5.49c0,3.03-2.46,5.49-5.49,5.49h-5.49v-10.97H134.83z"/>
		<rect x="151.29" y="-319.71" class="st0" width="6.58" height="30.72"/>
		<g>
			<polygon class="st0" points="108.5,-319.71 101.91,-313.13 101.91,-288.99 108.5,-288.99 108.5,-313.13 119.47,-313.13 
				119.47,-319.71 			"/>
			<polygon class="st0" points="90.94,-319.71 90.94,-313.13 98.81,-313.13 105.39,-319.71 			"/>
		</g>
	</g>
	<g>
		<path class="st0" d="M66.46-294.64c-7.22,0-13.08-5.86-13.08-13.08c0-5.84,3.83-10.79,9.11-12.47c-4.32-1.35-9.33-0.54-13.11,3.24
			c-8.24,8.24-2.4,22.32,9.24,22.32c0,3.03-0.8,5.42-2.61,7.84c4.31-1.39,8.19-4.23,11.01-7.87
			C66.83-294.65,66.64-294.64,66.46-294.64z"/>
		<path class="st0" d="M59.84-316.95c-8.24,8.24-2.4,22.32,9.24,22.32c0,3.03-0.8,5.42-2.61,7.84c8.74-2.82,15.69-11.55,15.69-20.92
			C82.16-319.36,68.08-325.19,59.84-316.95z"/>
	</g>
</g>
<g>
	<g>
		<path class="st0" d="M180.79-227.06c-4.34-2.75-9.94-2.45-13.96,0.74s-5.58,8.58-3.9,13.43c1.69,4.85,6.26,8.1,11.4,8.1
			c3.9,0,7.68-1.79,10.21-4.74c-2.02-0.74-4.05-1.47-6.07-2.21c-1.26,1.02-2.51,1.46-4.14,1.46c-2.39,0-4.2-1.77-4.99-3.84
			c5.58,0,11.16,0,16.74,0C187.25-219.12,185.13-224.32,180.79-227.06z M169.35-219.61c1.96-5.12,8.02-5.12,9.97,0
			C176-219.61,172.67-219.61,169.35-219.61z"/>
		<path class="st0" d="M129.34-228.94v-6.58h-6.58v24.14l6.58,6.58h5.49c6.67,0,12.07-5.4,12.07-12.07c0-6.67-5.4-12.07-12.07-12.07
			H129.34z M134.83-222.35c3.03,0,5.49,2.46,5.49,5.49c0,3.03-2.46,5.49-5.49,5.49h-5.49v-10.97H134.83z"/>
		<rect x="151.29" y="-235.52" class="st0" width="6.58" height="30.72"/>
		<g>
			<polygon class="st0" points="108.5,-235.52 101.91,-228.94 101.91,-204.8 108.5,-204.8 108.5,-228.94 119.47,-228.94 
				119.47,-235.52 			"/>
			<polygon class="st0" points="90.94,-235.52 90.94,-228.94 98.81,-228.94 105.39,-235.52 			"/>
		</g>
	</g>
	<g>
		<path class="st0" d="M66.46-210.46c-7.22,0-13.08-5.86-13.08-13.08c0-5.84,3.83-10.79,9.11-12.47c-4.32-1.35-9.33-0.54-13.11,3.24
			c-8.24,8.24-2.4,22.32,9.24,22.32c0,3.03-0.8,5.42-2.61,7.84c4.31-1.39,8.19-4.23,11.01-7.87
			C66.83-210.46,66.64-210.46,66.46-210.46z"/>
		<path class="st0" d="M59.84-232.76c-8.24,8.24-2.4,22.32,9.24,22.32c0,3.03-0.8,5.42-2.61,7.84c8.74-2.82,15.69-11.55,15.69-20.92
			C82.16-235.17,68.08-241,59.84-232.76z"/>
	</g>
</g>
<g>
	<g>
		<path class="st0" d="M180.79-142.87c-4.34-2.75-9.94-2.45-13.96,0.74s-5.58,8.58-3.9,13.43c1.69,4.85,6.26,8.1,11.4,8.1
			c3.9,0,7.68-1.79,10.21-4.74c-2.02-0.74-4.05-1.47-6.07-2.21c-1.26,1.02-2.51,1.46-4.14,1.46c-2.39,0-4.2-1.77-4.99-3.84
			c5.58,0,11.16,0,16.74,0C187.25-134.94,185.13-140.13,180.79-142.87z M169.35-135.42c1.96-5.12,8.02-5.12,9.97,0
			C176-135.42,172.67-135.42,169.35-135.42z"/>
		<path class="st0" d="M129.34-144.75v-6.58h-6.58v24.14l6.58,6.58h5.49c6.67,0,12.07-5.4,12.07-12.07c0-6.67-5.4-12.07-12.07-12.07
			H129.34z M134.83-138.16c3.03,0,5.49,2.46,5.49,5.49c0,3.03-2.46,5.49-5.49,5.49h-5.49v-10.97H134.83z"/>
		<rect x="151.29" y="-151.33" class="st0" width="6.58" height="30.72"/>
		<g>
			<polygon class="st0" points="108.5,-151.33 101.91,-144.75 101.91,-120.61 108.5,-120.61 108.5,-144.75 119.47,-144.75 
				119.47,-151.33 			"/>
			<polygon class="st0" points="90.94,-151.33 90.94,-144.75 98.81,-144.75 105.39,-151.33 			"/>
		</g>
	</g>
	<g>
		<path class="st0" d="M66.46-126.27c-7.22,0-13.08-5.86-13.08-13.08c0-5.84,3.83-10.79,9.11-12.47c-4.32-1.35-9.33-0.54-13.11,3.24
			c-8.24,8.24-2.4,22.32,9.24,22.32c0,3.03-0.8,5.42-2.61,7.84c4.31-1.39,8.19-4.23,11.01-7.87
			C66.83-126.27,66.64-126.27,66.46-126.27z"/>
		<path class="st0" d="M59.84-148.57c-8.24,8.24-2.4,22.32,9.24,22.32c0,3.03-0.8,5.42-2.61,7.84c8.74-2.82,15.69-11.55,15.69-20.92
			C82.16-150.98,68.08-156.81,59.84-148.57z"/>
	</g>
</g>
<g>
	<g>
		<path class="st0" d="M135.84,10.34c-4.34-2.75-9.94-2.45-13.96,0.74c-4.02,3.19-5.59,8.58-3.9,13.43s6.26,8.1,11.4,8.1
			c3.9,0,7.68-1.79,10.21-4.74c-2.02-0.74-4.05-1.47-6.07-2.21c-1.26,1.02-2.51,1.46-4.14,1.46c-2.39,0-4.2-1.77-4.99-3.84
			c5.58,0,11.16,0,16.74,0C142.3,18.28,140.18,13.08,135.84,10.34z M124.39,17.79c1.96-5.12,8.02-5.12,9.97,0
			C131.04,17.79,127.72,17.79,124.39,17.79z"/>
		<path class="st0" d="M84.39,8.46V1.88h-6.58v24.14l6.58,6.58h5.49c6.67,0,12.07-5.4,12.07-12.07S96.54,8.46,89.88,8.46H84.39z
			 M89.88,15.05c3.03,0,5.49,2.46,5.49,5.49c0,3.03-2.46,5.49-5.49,5.49h-5.49V15.05H89.88z"/>
		<rect x="106.34" y="1.88" class="st0" width="6.58" height="30.72"/>
		<g>
			<polygon class="st0" points="63.54,1.88 56.96,8.46 56.96,32.6 63.54,32.6 63.54,8.46 74.52,8.46 74.52,1.88 			"/>
			<polygon class="st0" points="45.99,1.88 45.99,8.46 53.86,8.46 60.44,1.88 			"/>
		</g>
	</g>
	<g>
		<path class="st0" d="M21.5,26.94c-7.22,0-13.08-5.86-13.08-13.08c0-5.84,3.83-10.79,9.11-12.47C13.22,0.05,8.21,0.86,4.43,4.64
			c-8.24,8.24-2.4,22.32,9.24,22.32c0,3.03-0.8,5.42-2.61,7.84c4.31-1.39,8.19-4.23,11.01-7.87C21.88,26.94,21.69,26.94,21.5,26.94z
			"/>
		<path class="st0" d="M14.89,4.64c-8.24,8.24-2.4,22.32,9.24,22.32c0,3.03-0.8,5.42-2.61,7.84c8.74-2.82,15.69-11.55,15.69-20.92
			C37.21,2.23,23.13-3.6,14.89,4.64z"/>
	</g>
</g>
<g>
	<g>
		<path class="st2" d="M-458.06-582.3c-30.08,0-74.73,9.26-94.48,32.82c-13.36,15.94-8.9,33.08,12.56,44.18
			c16.4,8.48,37.12,10.87,53.6,10.87c30.08,0,74.73-9.26,94.48-32.82c13.36-15.94,8.9-33.08-12.56-44.18
			C-420.87-579.92-441.58-582.3-458.06-582.3z"/>
	</g>
	<g>
		<path class="st1" d="M-415.6-547.28c-5.6-3.55-12.84-3.16-18.03,0.96c-5.2,4.12-7.21,11.08-5.03,17.34s8.09,10.46,14.72,10.46
			c5.04,0,9.92-2.32,13.18-6.12c-2.61-0.95-5.23-1.9-7.84-2.85c-1.63,1.32-3.24,1.89-5.34,1.89c-3.08,0-5.42-2.29-6.44-4.96
			c7.21,0,14.42,0,21.62,0C-407.25-537.03-409.99-543.74-415.6-547.28z M-430.38-537.66c2.53-6.61,10.36-6.61,12.88,0
			C-421.79-537.66-426.09-537.66-430.38-537.66z"/>
		<path class="st1" d="M-482.05-549.71v-8.5h-8.5v31.18l8.5,8.5h7.09c8.61,0,15.59-6.98,15.59-15.59s-6.98-15.59-15.59-15.59
			H-482.05z M-474.96-541.2c3.91,0,7.09,3.17,7.09,7.09c0,3.91-3.17,7.09-7.09,7.09h-7.09v-14.17H-474.96z"/>
		<rect x="-453.7" y="-558.21" class="st1" width="8.5" height="39.69"/>
		<g>
			<polygon class="st1" points="-508.98,-558.21 -517.48,-549.71 -517.48,-518.52 -508.98,-518.52 -508.98,-549.71 -494.8,-549.71 
				-494.8,-558.21 			"/>
			<polygon class="st1" points="-531.66,-558.21 -531.66,-549.71 -521.49,-549.71 -512.99,-558.21 			"/>
		</g>
	</g>
</g>
<g>
	<path class="st1" d="M-188.76-589.39c-20.47,0-39.65,2.64-59.02,10.01c-11.49,4.37-21.62,9.53-30.37,18.88
		c-5.58,5.97-9.82,13.39-9.82,22.13c0,8.75,4.24,16.18,9.83,22.14c8.76,9.35,18.9,14.51,30.4,18.88c19.36,7.36,38.53,10,58.98,10
		c20.47,0,39.65-2.64,59.02-10.01c11.49-4.37,21.62-9.53,30.37-18.88c5.58-5.97,9.82-13.39,9.82-22.13c0-8.75-4.24-16.18-9.83-22.14
		c-8.76-9.35-18.9-14.51-30.4-18.88C-149.14-586.76-168.31-589.39-188.76-589.39z"/>
	<g>
		<path class="st2" d="M-174.6-582.3c-30.08,0-74.73,9.26-94.48,32.82c-13.36,15.94-8.9,33.08,12.56,44.18
			c16.4,8.48,37.12,10.87,53.6,10.87c30.08,0,74.73-9.26,94.48-32.82c13.36-15.94,8.9-33.08-12.56-44.18
			C-137.4-579.92-158.12-582.3-174.6-582.3z"/>
	</g>
	<g>
		<path class="st1" d="M-132.13-547.28c-5.6-3.55-12.84-3.16-18.03,0.96c-5.2,4.12-7.21,11.08-5.03,17.34
			c2.18,6.26,8.09,10.46,14.72,10.46c5.04,0,9.92-2.32,13.18-6.12c-2.61-0.95-5.23-1.9-7.84-2.85c-1.63,1.32-3.24,1.89-5.34,1.89
			c-3.08,0-5.42-2.29-6.44-4.96c7.21,0,14.42,0,21.62,0C-123.79-537.03-126.53-543.74-132.13-547.28z M-146.92-537.66
			c2.53-6.61,10.36-6.61,12.88,0C-138.33-537.66-142.62-537.66-146.92-537.66z"/>
		<path class="st1" d="M-198.58-549.71v-8.5h-8.5v31.18l8.5,8.5h7.09c8.61,0,15.59-6.98,15.59-15.59s-6.98-15.59-15.59-15.59
			H-198.58z M-191.5-541.2c3.91,0,7.09,3.17,7.09,7.09c0,3.91-3.17,7.09-7.09,7.09h-7.09v-14.17H-191.5z"/>
		<rect x="-170.24" y="-558.21" class="st1" width="8.5" height="39.69"/>
		<g>
			<polygon class="st1" points="-225.51,-558.21 -234.02,-549.71 -234.02,-518.52 -225.51,-518.52 -225.51,-549.71 -211.34,-549.71 
				-211.34,-558.21 			"/>
			<polygon class="st1" points="-248.19,-558.21 -248.19,-549.71 -238.03,-549.71 -229.52,-558.21 			"/>
		</g>
	</g>
</g>
<g>
	<g>
		<path class="st1" d="M-458.06-454.74c-30.08,0-74.73,9.26-94.48,32.82c-13.36,15.94-8.9,33.08,12.56,44.18
			c16.4,8.48,37.12,10.87,53.6,10.87c30.08,0,74.73-9.26,94.48-32.82c13.36-15.94,8.9-33.08-12.56-44.18
			C-420.87-452.36-441.58-454.74-458.06-454.74z"/>
	</g>
	<g>
		<path class="st2" d="M-415.6-419.73c-5.6-3.55-12.84-3.17-18.03,0.96c-5.2,4.12-7.21,11.08-5.03,17.34
			c2.18,6.26,8.09,10.46,14.72,10.46c5.04,0,9.92-2.32,13.18-6.12c-2.61-0.95-5.23-1.9-7.84-2.85c-1.63,1.32-3.24,1.89-5.34,1.89
			c-3.08,0-5.42-2.29-6.44-4.96c7.21,0,14.42,0,21.62,0C-407.25-409.47-409.99-416.18-415.6-419.73z M-430.38-410.1
			c2.53-6.61,10.36-6.61,12.88,0C-421.79-410.1-426.09-410.1-430.38-410.1z"/>
		<path class="st2" d="M-482.05-422.15v-8.5h-8.5v31.18l8.5,8.5h7.09c8.61,0,15.59-6.98,15.59-15.59c0-8.61-6.98-15.59-15.59-15.59
			H-482.05z M-474.96-413.64c3.91,0,7.09,3.17,7.09,7.09c0,3.91-3.17,7.09-7.09,7.09h-7.09v-14.17H-474.96z"/>
		<rect x="-453.7" y="-430.65" class="st2" width="8.5" height="39.69"/>
		<g>
			<polygon class="st2" points="-508.98,-430.65 -517.48,-422.15 -517.48,-390.97 -508.98,-390.97 -508.98,-422.15 -494.8,-422.15 
				-494.8,-430.65 			"/>
			<polygon class="st2" points="-531.66,-430.65 -531.66,-422.15 -521.49,-422.15 -512.99,-430.65 			"/>
		</g>
	</g>
</g>
<circle class="st2" cx="-534.59" cy="-269.08" r="42.52"/>
<circle class="st11" cx="-126.4" cy="-269.08" r="42.52"/>
<circle class="st12" cx="-262.46" cy="-269.08" r="42.52"/>
<text transform="matrix(1 0 0 1 -555.4041 -193.2267)"><tspan x="0" y="0" style="font-family:'MyriadPro-Bold'; font-size:18px;">Main</tspan><tspan x="-26.04" y="24" style="font-family:'MyriadPro-Regular'; font-size:14px;">C0 M30 Y100 K0</tspan><tspan x="-19.37" y="48" style="font-family:'MyriadPro-Regular'; font-size:14px;">R251 G186 B0</tspan><tspan x="-5.12" y="72" style="font-family:'MyriadPro-Regular'; font-size:14px;">#FBBA00</tspan></text>
<circle class="st1" cx="-398.52" cy="-269.08" r="42.52"/>
<text transform="matrix(1 0 0 1 -418.2791 -193.2267)"><tspan x="0" y="0" style="font-family:'MyriadPro-Bold'; font-size:18px;">Sub1</tspan><tspan x="-19.92" y="24" style="font-family:'MyriadPro-Regular'; font-size:14px;">C0 M0 Y0 K90</tspan><tspan x="-16.84" y="48" style="font-family:'MyriadPro-Regular'; font-size:14px;">R60 G60 B60</tspan><tspan x="-6.68" y="72" style="font-family:'MyriadPro-Regular'; font-size:14px;">#3C3C3C</tspan></text>
<text transform="matrix(1 0 0 1 -146.1531 -193.2267)"><tspan x="0" y="0" style="font-family:'MyriadPro-Bold'; font-size:18px;">Sub3</tspan><tspan x="-27.1" y="24" style="font-family:'MyriadPro-Regular'; font-size:14px;">C0 M50 Y100 K0</tspan><tspan x="-20.43" y="48" style="font-family:'MyriadPro-Regular'; font-size:14px;">R243 G146 B0</tspan><tspan x="-5.09" y="72" style="font-family:'MyriadPro-Regular'; font-size:14px;">#F39200</tspan></text>
<text transform="matrix(1 0 0 1 -282.2161 -193.2267)"><tspan x="0" y="0" style="font-family:'MyriadPro-Bold'; font-size:18px;">Sub2</tspan><tspan x="-27.1" y="24" style="font-family:'MyriadPro-Regular'; font-size:14px;">C0 M10 Y100 K0</tspan><tspan x="-20.43" y="48" style="font-family:'MyriadPro-Regular'; font-size:14px;">R255 G221 B0</tspan><tspan x="-7.05" y="72" style="font-family:'MyriadPro-Regular'; font-size:14px;">#FFDD00</tspan></text>
<g>
	<g>
		
			<ellipse transform="matrix(0.8417 -0.54 0.54 0.8417 191.9498 -166.9772)" class="st1" cx="-188.76" cy="-410.81" rx="36.85" ry="36.85"/>
		
			<ellipse transform="matrix(0.7485 -0.6632 0.6632 0.7485 224.9534 -228.5045)" class="st2" cx="-188.76" cy="-410.81" rx="34.39" ry="27"/>
	</g>
	<g>
		<polygon class="st1" points="-207.19,-417.89 -207.19,-426.4 -170.34,-426.4 -170.34,-417.89 -184.51,-417.89 -184.51,-386.71 
			-193.01,-386.71 -193.01,-417.89 		"/>
	</g>
</g>
<text transform="matrix(1 0 0 1 -18.1375 -574.3385)" class="st0" style="font-family:'MyriadPro-Bold'; font-size:14px;">50%</text>
<text transform="matrix(1 0 0 1 -18.1375 -658.5275)" style="font-family:'MyriadPro-Bold'; font-size:14px;">40%</text>
<text transform="matrix(1 0 0 1 -18.1375 -742.7164)" style="font-family:'MyriadPro-Bold'; font-size:14px;">30%</text>
<text transform="matrix(1 0 0 1 -18.1375 -826.9054)" style="font-family:'MyriadPro-Bold'; font-size:14px;">20%</text>
<text transform="matrix(1 0 0 1 -18.1375 -911.0944)" style="font-family:'MyriadPro-Bold'; font-size:14px;">10%</text>
<text transform="matrix(1 0 0 1 -18.1375 -490.1495)" class="st0" style="font-family:'MyriadPro-Bold'; font-size:14px;">60%</text>
<text transform="matrix(1 0 0 1 -18.1375 -405.9605)" class="st0" style="font-family:'MyriadPro-Bold'; font-size:14px;">70%</text>
<text transform="matrix(1 0 0 1 -18.1375 -321.7715)" class="st0" style="font-family:'MyriadPro-Bold'; font-size:14px;">80%</text>
<text transform="matrix(1 0 0 1 -18.1375 -237.5826)" class="st0" style="font-family:'MyriadPro-Bold'; font-size:14px;">90%</text>
<text transform="matrix(1 0 0 1 -18.1375 -153.3936)" class="st0" style="font-family:'MyriadPro-Bold'; font-size:14px;">100%</text>
<g>
	<g>
		<path class="st2" d="M-466.57-725.71c-15.66,0-28.35-12.69-28.35-28.35c0-12.66,8.3-23.37,19.75-27.01
			c-9.35-2.92-20.21-1.17-28.4,7.02c-17.85,17.85-5.21,48.36,20.03,48.36c0,6.57-1.72,11.74-5.67,17
			c9.35-3.02,17.75-9.16,23.86-17.05C-465.75-725.73-466.15-725.71-466.57-725.71z"/>
		<path class="st2" d="M-480.89-774.05c-17.85,17.85-5.21,48.36,20.03,48.36c0,6.57-1.72,11.74-5.67,17
			c18.93-6.11,33.99-25.03,33.99-45.32C-432.53-779.26-463.04-791.9-480.89-774.05z"/>
	</g>
	<g>
		<path class="st1" d="M-417.82-683.6c-5.6-3.55-12.84-3.17-18.03,0.96c-5.2,4.12-7.21,11.08-5.03,17.34
			c2.18,6.26,8.09,10.46,14.72,10.46c5.04,0,9.92-2.32,13.18-6.12c-2.61-0.95-5.23-1.9-7.84-2.85c-1.63,1.32-3.24,1.89-5.34,1.89
			c-3.08,0-5.42-2.29-6.44-4.96c7.21,0,14.42,0,21.62,0C-409.47-673.34-412.22-680.05-417.82-683.6z M-432.6-673.97
			c2.53-6.61,10.36-6.61,12.88,0C-424.02-673.97-428.31-673.97-432.6-673.97z"/>
		<path class="st1" d="M-484.27-686.02v-8.5h-8.5v31.18l8.5,8.5h7.09c8.61,0,15.59-6.98,15.59-15.59c0-8.61-6.98-15.59-15.59-15.59
			H-484.27z M-477.19-677.52c3.91,0,7.09,3.17,7.09,7.09c0,3.91-3.17,7.09-7.09,7.09h-7.09v-14.17H-477.19z"/>
		<rect x="-455.93" y="-694.52" class="st1" width="8.5" height="39.69"/>
		<g>
			<polygon class="st1" points="-511.2,-694.52 -519.71,-686.02 -519.71,-654.84 -511.2,-654.84 -511.2,-686.02 -497.03,-686.02 
				-497.03,-694.52 			"/>
			<polygon class="st1" points="-533.88,-694.52 -533.88,-686.02 -523.71,-686.02 -515.21,-694.52 			"/>
		</g>
	</g>
</g>
<g>
	<g>
		<path class="st2" d="M-168.93-725.71c-15.66,0-28.35-12.69-28.35-28.35c0-12.66,8.3-23.37,19.75-27.01
			c-9.35-2.92-20.21-1.17-28.4,7.02c-17.85,17.85-5.21,48.36,20.03,48.36c0,6.57-1.72,11.74-5.67,17
			c9.35-3.02,17.75-9.16,23.86-17.05C-168.11-725.73-168.52-725.71-168.93-725.71z"/>
		<path class="st2" d="M-183.25-774.05c-17.85,17.85-5.21,48.36,20.03,48.36c0,6.57-1.72,11.74-5.67,17
			c18.93-6.11,33.99-25.03,33.99-45.32C-134.89-779.26-165.41-791.9-183.25-774.05z"/>
	</g>
	<g>
		<path class="st0" d="M-120.18-683.6c-5.6-3.55-12.84-3.17-18.03,0.96c-5.2,4.12-7.21,11.08-5.03,17.34
			c2.18,6.26,8.09,10.46,14.72,10.46c5.04,0,9.92-2.32,13.18-6.12c-2.61-0.95-5.23-1.9-7.84-2.85c-1.63,1.32-3.24,1.89-5.34,1.89
			c-3.08,0-5.42-2.29-6.44-4.96c7.21,0,14.42,0,21.62,0C-111.84-673.34-114.58-680.05-120.18-683.6z M-134.97-673.97
			c2.53-6.61,10.36-6.61,12.88,0C-126.38-673.97-130.67-673.97-134.97-673.97z"/>
		<path class="st0" d="M-186.63-686.02v-8.5h-8.5v31.18l8.5,8.5h7.09c8.61,0,15.59-6.98,15.59-15.59c0-8.61-6.98-15.59-15.59-15.59
			H-186.63z M-179.55-677.52c3.91,0,7.09,3.17,7.09,7.09c0,3.91-3.17,7.09-7.09,7.09h-7.09v-14.17H-179.55z"/>
		<rect x="-158.29" y="-694.52" class="st0" width="8.5" height="39.69"/>
		<g>
			<polygon class="st0" points="-213.56,-694.52 -222.07,-686.02 -222.07,-654.84 -213.56,-654.84 -213.56,-686.02 -199.39,-686.02 
				-199.39,-694.52 			"/>
			<polygon class="st0" points="-236.24,-694.52 -236.24,-686.02 -226.07,-686.02 -217.57,-694.52 			"/>
		</g>
	</g>
</g>
</svg>
