<?xml version="1.0" encoding="utf-8"?>
<!-- Generator: Adobe Illustrator 26.0.3, SVG Export Plug-In . SVG Version: 6.00 Build 0)  -->
<svg version="1.1" id="Layer_1" xmlns="http://www.w3.org/2000/svg" xmlns:xlink="http://www.w3.org/1999/xlink" x="0px" y="0px"
	 viewBox="0 0 126.78 25.83" style="enable-background:new 0 0 126.78 25.83;" xml:space="preserve">
<style type="text/css">
	.st0{fill:#FFFFFF;}
	.st1{fill:#3E3A39;}
	.st2{fill:#FABE00;}
	.st3{fill:#EFEFEF;}
	.st4{fill:#DCDDDD;}
	.st5{fill:#C9CACA;}
	.st6{fill:#B5B5B6;}
	.st7{fill:#9FA0A0;}
	.st8{fill:#898989;}
	.st9{fill:#727171;}
	.st10{fill:#595757;}
	.st11{fill:#F39800;}
	.st12{fill:#FFE100;}
	.st13{font-family:'NEXONFootballGothicB';}
	.st14{font-size:25px;}
</style>
<rect x="151.74" y="-12.26" class="st0" width="595.28" height="841.89"/>
<g>
	<g>
		<path class="st1" d="M109.64,89.98c-5.6-3.55-12.84-3.17-18.03,0.96c-5.2,4.12-7.21,11.08-5.03,17.34
			c2.18,6.26,8.09,10.46,14.72,10.46c5.04,0,9.92-2.32,13.18-6.12c-2.61-0.95-5.23-1.9-7.84-2.85c-1.63,1.32-3.24,1.89-5.34,1.89
			c-3.08,0-5.42-2.29-6.44-4.96c7.21,0,14.42,0,21.62,0C117.99,100.23,115.24,93.53,109.64,89.98z M94.86,99.61
			c2.53-6.61,10.36-6.61,12.88,0C103.45,99.61,99.15,99.61,94.86,99.61z"/>
		<path class="st1" d="M43.19,87.56v-8.5h-8.5v31.18l8.5,8.5h7.09c8.61,0,15.59-6.98,15.59-15.59c0-8.61-6.98-15.59-15.59-15.59
			H43.19z M50.28,96.06c3.91,0,7.09,3.17,7.09,7.09c0,3.91-3.17,7.09-7.09,7.09h-7.09V96.06H50.28z"/>
		<rect x="71.54" y="79.05" class="st1" width="8.5" height="39.69"/>
		<g>
			<polygon class="st1" points="16.26,79.06 7.76,87.56 7.76,118.74 16.26,118.74 16.26,87.56 30.43,87.56 30.43,79.05 			"/>
			<polygon class="st1" points="-6.42,79.06 -6.42,87.56 3.75,87.56 12.25,79.06 			"/>
		</g>
	</g>
	<g>
		<path class="st2" d="M-38.04,111.43c-9.33,0-16.9-7.57-16.9-16.9c0-7.54,4.95-13.93,11.77-16.1c-5.58-1.74-12.05-0.7-16.93,4.19
			c-10.64,10.64-3.1,28.83,11.94,28.83c0,3.92-1.03,7-3.38,10.13c5.57-1.8,10.58-5.46,14.22-10.16
			C-37.56,111.42-37.8,111.43-38.04,111.43z"/>
		<path class="st2" d="M-46.58,82.62c-10.64,10.64-3.1,28.83,11.94,28.83c0,3.92-1.03,7-3.38,10.13
			c11.28-3.64,20.26-14.92,20.26-27.02C-17.76,79.51-35.94,71.98-46.58,82.62z"/>
	</g>
</g>
<rect x="449.38" y="-12.26" class="st1" width="297.64" height="311.81"/>
<rect x="747.01" y="-12.26" class="st3" width="297.64" height="84.19"/>
<rect x="747.01" y="71.93" class="st4" width="297.64" height="84.19"/>
<rect x="747.01" y="156.12" class="st5" width="297.64" height="84.19"/>
<rect x="747.01" y="240.31" class="st6" width="297.64" height="84.19"/>
<rect x="747.01" y="324.5" class="st7" width="297.64" height="84.19"/>
<rect x="747.01" y="408.68" class="st8" width="297.64" height="84.19"/>
<rect x="747.01" y="492.87" class="st9" width="297.64" height="84.19"/>
<rect x="747.01" y="577.06" class="st10" width="297.64" height="84.19"/>
<rect x="747.01" y="661.25" class="st1" width="297.64" height="84.19"/>
<rect x="747.01" y="745.44" width="297.64" height="84.19"/>
<g>
	<g>
		<path class="st0" d="M689.02,34.81c-5.6-3.55-12.84-3.16-18.03,0.96c-5.2,4.12-7.21,11.08-5.03,17.34
			c2.18,6.26,8.09,10.46,14.72,10.46c5.04,0,9.92-2.32,13.18-6.12c-2.61-0.95-5.23-1.9-7.84-2.85c-1.63,1.32-3.24,1.89-5.34,1.89
			c-3.08,0-5.42-2.29-6.44-4.96c7.21,0,14.42,0,21.62,0C697.37,45.06,694.62,38.35,689.02,34.81z M674.23,44.43
			c2.53-6.61,10.36-6.61,12.88,0C682.82,44.43,678.53,44.43,674.23,44.43z"/>
		<path class="st0" d="M622.57,32.39v-8.5h-8.5v31.18l8.5,8.5h7.09c8.61,0,15.59-6.98,15.59-15.59c0-8.61-6.98-15.59-15.59-15.59
			H622.57z M629.65,40.89c3.91,0,7.09,3.17,7.09,7.09c0,3.91-3.17,7.09-7.09,7.09h-7.09V40.89H629.65z"/>
		<rect x="650.91" y="23.88" class="st0" width="8.5" height="39.69"/>
		<g>
			<polygon class="st0" points="595.64,23.88 587.13,32.39 587.13,63.57 595.64,63.57 595.64,32.39 609.81,32.39 609.81,23.88 			
				"/>
			<polygon class="st0" points="572.96,23.88 572.96,32.39 583.12,32.39 591.63,23.88 			"/>
		</g>
	</g>
	<g>
		<path class="st2" d="M541.33,56.26c-9.33,0-16.9-7.57-16.9-16.9c0-7.54,4.95-13.93,11.77-16.1c-5.58-1.74-12.05-0.7-16.93,4.19
			c-10.64,10.64-3.1,28.83,11.94,28.83c0,3.92-1.03,7-3.38,10.13c5.57-1.8,10.58-5.46,14.22-10.16
			C541.82,56.25,541.58,56.26,541.33,56.26z"/>
		<path class="st2" d="M532.8,27.44c-10.64,10.64-3.1,28.83,11.94,28.83c0,3.92-1.03,7-3.38,10.13
			c11.28-3.64,20.26-14.92,20.26-27.02C561.62,24.34,543.43,16.81,532.8,27.44z"/>
	</g>
</g>
<g>
	<g>
		<path d="M960.66,22.38c-4.34-2.75-9.94-2.45-13.96,0.74s-5.59,8.58-3.9,13.43c1.69,4.85,6.26,8.1,11.4,8.1
			c3.9,0,7.68-1.79,10.21-4.74c-2.02-0.74-4.05-1.47-6.07-2.21c-1.26,1.02-2.51,1.46-4.14,1.46c-2.39,0-4.2-1.77-4.99-3.84
			c5.58,0,11.16,0,16.74,0C967.12,30.32,965,25.13,960.66,22.38z M949.22,29.83c1.96-5.12,8.02-5.12,9.97,0
			C955.86,29.83,952.54,29.83,949.22,29.83z"/>
		<path d="M909.21,20.51v-6.58h-6.58v24.14l6.58,6.58h5.49c6.67,0,12.07-5.4,12.07-12.07s-5.4-12.07-12.07-12.07H909.21z
			 M914.7,27.09c3.03,0,5.49,2.46,5.49,5.49c0,3.03-2.46,5.49-5.49,5.49h-5.49V27.09H914.7z"/>
		<rect x="931.16" y="13.92" width="6.58" height="30.72"/>
		<g>
			<polygon points="888.37,13.92 881.78,20.51 881.78,44.65 888.37,44.65 888.37,20.51 899.34,20.51 899.34,13.92 			"/>
			<polygon points="870.81,13.92 870.81,20.51 878.68,20.51 885.26,13.92 			"/>
		</g>
	</g>
	<g>
		<path d="M846.32,38.99c-7.22,0-13.08-5.86-13.08-13.08c0-5.84,3.83-10.79,9.11-12.47c-4.32-1.35-9.33-0.54-13.11,3.24
			c-8.24,8.24-2.4,22.32,9.24,22.32c0,3.03-0.8,5.42-2.61,7.84c4.31-1.39,8.19-4.23,11.01-7.87
			C846.7,38.98,846.51,38.99,846.32,38.99z"/>
		<path d="M839.71,16.68c-8.24,8.24-2.4,22.32,9.24,22.32c0,3.03-0.8,5.42-2.61,7.84c8.74-2.82,15.69-11.55,15.69-20.92
			C862.03,14.28,847.95,8.45,839.71,16.68z"/>
	</g>
</g>
<g>
	<g>
		<path d="M960.66,106.57c-4.34-2.75-9.94-2.45-13.96,0.74c-4.02,3.19-5.59,8.58-3.9,13.43s6.26,8.1,11.4,8.1
			c3.9,0,7.68-1.79,10.21-4.74c-2.02-0.74-4.05-1.47-6.07-2.21c-1.26,1.02-2.51,1.46-4.14,1.46c-2.39,0-4.2-1.77-4.99-3.84
			c5.58,0,11.16,0,16.74,0C967.12,114.51,965,109.32,960.66,106.57z M949.22,114.02c1.96-5.12,8.02-5.12,9.97,0
			C955.86,114.02,952.54,114.02,949.22,114.02z"/>
		<path d="M909.21,104.7v-6.58h-6.58v24.14l6.58,6.58h5.49c6.67,0,12.07-5.4,12.07-12.07s-5.4-12.07-12.07-12.07H909.21z
			 M914.7,111.28c3.03,0,5.49,2.46,5.49,5.49c0,3.03-2.46,5.49-5.49,5.49h-5.49v-10.97H914.7z"/>
		<rect x="931.16" y="98.11" width="6.58" height="30.72"/>
		<g>
			<polygon points="888.37,98.11 881.78,104.7 881.78,128.84 888.37,128.84 888.37,104.7 899.34,104.7 899.34,98.11 			"/>
			<polygon points="870.81,98.11 870.81,104.7 878.68,104.7 885.26,98.11 			"/>
		</g>
	</g>
	<g>
		<path d="M846.32,123.18c-7.22,0-13.08-5.86-13.08-13.08c0-5.84,3.83-10.79,9.11-12.47c-4.32-1.35-9.33-0.54-13.11,3.24
			c-8.24,8.24-2.4,22.32,9.24,22.32c0,3.03-0.8,5.42-2.61,7.84c4.31-1.39,8.19-4.23,11.01-7.87
			C846.7,123.17,846.51,123.18,846.32,123.18z"/>
		<path d="M839.71,100.87c-8.24,8.24-2.4,22.32,9.24,22.32c0,3.03-0.8,5.42-2.61,7.84c8.74-2.82,15.69-11.55,15.69-20.92
			C862.03,98.47,847.95,92.63,839.71,100.87z"/>
	</g>
</g>
<g>
	<g>
		<path d="M960.66,190.76c-4.34-2.75-9.94-2.45-13.96,0.74s-5.59,8.58-3.9,13.43c1.69,4.85,6.26,8.1,11.4,8.1
			c3.9,0,7.68-1.79,10.21-4.74c-2.02-0.74-4.05-1.47-6.07-2.21c-1.26,1.02-2.51,1.46-4.14,1.46c-2.39,0-4.2-1.77-4.99-3.84
			c5.58,0,11.16,0,16.74,0C967.12,198.7,965,193.51,960.66,190.76z M949.22,198.21c1.96-5.12,8.02-5.12,9.97,0
			C955.86,198.21,952.54,198.21,949.22,198.21z"/>
		<path d="M909.21,188.89v-6.58h-6.58v24.14l6.58,6.58h5.49c6.67,0,12.07-5.4,12.07-12.07c0-6.67-5.4-12.07-12.07-12.07H909.21z
			 M914.7,195.47c3.03,0,5.49,2.46,5.49,5.49c0,3.03-2.46,5.49-5.49,5.49h-5.49v-10.97H914.7z"/>
		<rect x="931.16" y="182.3" width="6.58" height="30.72"/>
		<g>
			<polygon points="888.37,182.3 881.78,188.89 881.78,213.03 888.37,213.03 888.37,188.89 899.34,188.89 899.34,182.3 			"/>
			<polygon points="870.81,182.3 870.81,188.89 878.68,188.89 885.26,182.3 			"/>
		</g>
	</g>
	<g>
		<path d="M846.32,207.37c-7.22,0-13.08-5.86-13.08-13.08c0-5.84,3.83-10.79,9.11-12.47c-4.32-1.35-9.33-0.54-13.11,3.24
			c-8.24,8.24-2.4,22.32,9.24,22.32c0,3.03-0.8,5.42-2.61,7.84c4.31-1.39,8.19-4.23,11.01-7.87
			C846.7,207.36,846.51,207.37,846.32,207.37z"/>
		<path d="M839.71,185.06c-8.24,8.24-2.4,22.32,9.24,22.32c0,3.03-0.8,5.42-2.61,7.84c8.74-2.82,15.69-11.55,15.69-20.92
			C862.03,182.66,847.95,176.82,839.71,185.06z"/>
	</g>
</g>
<g>
	<g>
		<path d="M960.66,274.95c-4.34-2.75-9.94-2.45-13.96,0.74c-4.02,3.19-5.59,8.58-3.9,13.43c1.69,4.85,6.26,8.1,11.4,8.1
			c3.9,0,7.68-1.79,10.21-4.74c-2.02-0.74-4.05-1.47-6.07-2.21c-1.26,1.02-2.51,1.46-4.14,1.46c-2.39,0-4.2-1.77-4.99-3.84
			c5.58,0,11.16,0,16.74,0C967.12,282.89,965,277.7,960.66,274.95z M949.22,282.4c1.96-5.12,8.02-5.12,9.97,0
			C955.86,282.4,952.54,282.4,949.22,282.4z"/>
		<path d="M909.21,273.07v-6.58h-6.58v24.14l6.58,6.58h5.49c6.67,0,12.07-5.4,12.07-12.07c0-6.67-5.4-12.07-12.07-12.07H909.21z
			 M914.7,279.66c3.03,0,5.49,2.46,5.49,5.49c0,3.03-2.46,5.49-5.49,5.49h-5.49v-10.97H914.7z"/>
		<rect x="931.16" y="266.49" width="6.58" height="30.72"/>
		<g>
			<polygon points="888.37,266.49 881.78,273.07 881.78,297.21 888.37,297.21 888.37,273.07 899.34,273.07 899.34,266.49 			"/>
			<polygon points="870.81,266.49 870.81,273.07 878.68,273.07 885.26,266.49 			"/>
		</g>
	</g>
	<g>
		<path d="M846.32,291.56c-7.22,0-13.08-5.86-13.08-13.08c0-5.84,3.83-10.79,9.11-12.47c-4.32-1.35-9.33-0.54-13.11,3.24
			c-8.24,8.24-2.4,22.32,9.24,22.32c0,3.03-0.8,5.42-2.61,7.84c4.31-1.39,8.19-4.23,11.01-7.87
			C846.7,291.55,846.51,291.56,846.32,291.56z"/>
		<path d="M839.71,269.25c-8.24,8.24-2.4,22.32,9.24,22.32c0,3.03-0.8,5.42-2.61,7.84c8.74-2.82,15.69-11.55,15.69-20.92
			C862.03,266.85,847.95,261.01,839.71,269.25z"/>
	</g>
</g>
<g>
	<g>
		<path class="st0" d="M960.66,359.14c-4.34-2.75-9.94-2.45-13.96,0.74c-4.02,3.19-5.59,8.58-3.9,13.43c1.69,4.85,6.26,8.1,11.4,8.1
			c3.9,0,7.68-1.79,10.21-4.74c-2.02-0.74-4.05-1.47-6.07-2.21c-1.26,1.02-2.51,1.46-4.14,1.46c-2.39,0-4.2-1.77-4.99-3.84
			c5.58,0,11.16,0,16.74,0C967.12,367.08,965,361.88,960.66,359.14z M949.22,366.59c1.96-5.12,8.02-5.12,9.97,0
			C955.86,366.59,952.54,366.59,949.22,366.59z"/>
		<path class="st0" d="M909.21,357.26v-6.58h-6.58v24.14l6.58,6.58h5.49c6.67,0,12.07-5.4,12.07-12.07s-5.4-12.07-12.07-12.07
			H909.21z M914.7,363.85c3.03,0,5.49,2.46,5.49,5.49c0,3.03-2.46,5.49-5.49,5.49h-5.49v-10.97H914.7z"/>
		<rect x="931.16" y="350.68" class="st0" width="6.58" height="30.72"/>
		<g>
			<polygon class="st0" points="888.37,350.68 881.78,357.26 881.78,381.4 888.37,381.4 888.37,357.26 899.34,357.26 899.34,350.68 
							"/>
			<polygon class="st0" points="870.81,350.68 870.81,357.26 878.68,357.26 885.26,350.68 			"/>
		</g>
	</g>
	<g>
		<path class="st0" d="M846.32,375.74c-7.22,0-13.08-5.86-13.08-13.08c0-5.84,3.83-10.79,9.11-12.47
			c-4.32-1.35-9.33-0.54-13.11,3.24c-8.24,8.24-2.4,22.32,9.24,22.32c0,3.03-0.8,5.42-2.61,7.84c4.31-1.39,8.19-4.23,11.01-7.87
			C846.7,375.74,846.51,375.74,846.32,375.74z"/>
		<path class="st0" d="M839.71,353.44c-8.24,8.24-2.4,22.32,9.24,22.32c0,3.03-0.8,5.42-2.61,7.84
			c8.74-2.82,15.69-11.55,15.69-20.92C862.03,351.03,847.95,345.2,839.71,353.44z"/>
	</g>
</g>
<g>
	<g>
		<path class="st0" d="M960.66,443.33c-4.34-2.75-9.94-2.45-13.96,0.74s-5.59,8.58-3.9,13.43c1.69,4.85,6.26,8.1,11.4,8.1
			c3.9,0,7.68-1.79,10.21-4.74c-2.02-0.74-4.05-1.47-6.07-2.21c-1.26,1.02-2.51,1.46-4.14,1.46c-2.39,0-4.2-1.77-4.99-3.84
			c5.58,0,11.16,0,16.74,0C967.12,451.26,965,446.07,960.66,443.33z M949.22,450.78c1.96-5.12,8.02-5.12,9.97,0
			C955.86,450.78,952.54,450.78,949.22,450.78z"/>
		<path class="st0" d="M909.21,441.45v-6.58h-6.58v24.14l6.58,6.58h5.49c6.67,0,12.07-5.4,12.07-12.07s-5.4-12.07-12.07-12.07
			H909.21z M914.7,448.04c3.03,0,5.49,2.46,5.49,5.49c0,3.03-2.46,5.49-5.49,5.49h-5.49v-10.97H914.7z"/>
		<rect x="931.16" y="434.87" class="st0" width="6.58" height="30.72"/>
		<g>
			<polygon class="st0" points="888.37,434.87 881.78,441.45 881.78,465.59 888.37,465.59 888.37,441.45 899.34,441.45 
				899.34,434.87 			"/>
			<polygon class="st0" points="870.81,434.87 870.81,441.45 878.68,441.45 885.26,434.87 			"/>
		</g>
	</g>
	<g>
		<path class="st0" d="M846.32,459.93c-7.22,0-13.08-5.86-13.08-13.08c0-5.84,3.83-10.79,9.11-12.47
			c-4.32-1.35-9.33-0.54-13.11,3.24c-8.24,8.24-2.4,22.32,9.24,22.32c0,3.03-0.8,5.42-2.61,7.84c4.31-1.39,8.19-4.23,11.01-7.87
			C846.7,459.93,846.51,459.93,846.32,459.93z"/>
		<path class="st0" d="M839.71,437.63c-8.24,8.24-2.4,22.32,9.24,22.32c0,3.03-0.8,5.42-2.61,7.84
			c8.74-2.82,15.69-11.55,15.69-20.92C862.03,435.22,847.95,429.39,839.71,437.63z"/>
	</g>
</g>
<g>
	<g>
		<path class="st0" d="M960.66,527.51c-4.34-2.75-9.94-2.45-13.96,0.74c-4.02,3.19-5.59,8.58-3.9,13.43s6.26,8.1,11.4,8.1
			c3.9,0,7.68-1.79,10.21-4.74c-2.02-0.74-4.05-1.47-6.07-2.21c-1.26,1.02-2.51,1.46-4.14,1.46c-2.39,0-4.2-1.77-4.99-3.84
			c5.58,0,11.16,0,16.74,0C967.12,535.45,965,530.26,960.66,527.51z M949.22,534.97c1.96-5.12,8.02-5.12,9.97,0
			C955.86,534.97,952.54,534.97,949.22,534.97z"/>
		<path class="st0" d="M909.21,525.64v-6.58h-6.58v24.14l6.58,6.58h5.49c6.67,0,12.07-5.4,12.07-12.07c0-6.67-5.4-12.07-12.07-12.07
			H909.21z M914.7,532.22c3.03,0,5.49,2.46,5.49,5.49c0,3.03-2.46,5.49-5.49,5.49h-5.49v-10.97H914.7z"/>
		<rect x="931.16" y="519.06" class="st0" width="6.58" height="30.72"/>
		<g>
			<polygon class="st0" points="888.37,519.06 881.78,525.64 881.78,549.78 888.37,549.78 888.37,525.64 899.34,525.64 
				899.34,519.06 			"/>
			<polygon class="st0" points="870.81,519.06 870.81,525.64 878.68,525.64 885.26,519.06 			"/>
		</g>
	</g>
	<g>
		<path class="st0" d="M846.32,544.12c-7.22,0-13.08-5.86-13.08-13.08c0-5.84,3.83-10.79,9.11-12.47
			c-4.32-1.35-9.33-0.54-13.11,3.24c-8.24,8.24-2.4,22.32,9.24,22.32c0,3.03-0.8,5.42-2.61,7.84c4.31-1.39,8.19-4.23,11.01-7.87
			C846.7,544.12,846.51,544.12,846.32,544.12z"/>
		<path class="st0" d="M839.71,521.81c-8.24,8.24-2.4,22.32,9.24,22.32c0,3.03-0.8,5.42-2.61,7.84
			c8.74-2.82,15.69-11.55,15.69-20.92C862.03,519.41,847.95,513.58,839.71,521.81z"/>
	</g>
</g>
<g>
	<g>
		<path class="st0" d="M960.66,611.7c-4.34-2.75-9.94-2.45-13.96,0.74s-5.59,8.58-3.9,13.43s6.26,8.1,11.4,8.1
			c3.9,0,7.68-1.79,10.21-4.74c-2.02-0.74-4.05-1.47-6.07-2.21c-1.26,1.02-2.51,1.46-4.14,1.46c-2.39,0-4.2-1.77-4.99-3.84
			c5.58,0,11.16,0,16.74,0C967.12,619.64,965,614.45,960.66,611.7z M949.22,619.16c1.96-5.12,8.02-5.12,9.97,0
			C955.86,619.16,952.54,619.16,949.22,619.16z"/>
		<path class="st0" d="M909.21,609.83v-6.58h-6.58v24.14l6.58,6.58h5.49c6.67,0,12.07-5.4,12.07-12.07c0-6.67-5.4-12.07-12.07-12.07
			H909.21z M914.7,616.41c3.03,0,5.49,2.46,5.49,5.49c0,3.03-2.46,5.49-5.49,5.49h-5.49v-10.97H914.7z"/>
		<rect x="931.16" y="603.25" class="st0" width="6.58" height="30.72"/>
		<g>
			<polygon class="st0" points="888.37,603.25 881.78,609.83 881.78,633.97 888.37,633.97 888.37,609.83 899.34,609.83 
				899.34,603.25 			"/>
			<polygon class="st0" points="870.81,603.25 870.81,609.83 878.68,609.83 885.26,603.25 			"/>
		</g>
	</g>
	<g>
		<path class="st0" d="M846.32,628.31c-7.22,0-13.08-5.86-13.08-13.08c0-5.84,3.83-10.79,9.11-12.47
			c-4.32-1.35-9.33-0.54-13.11,3.24c-8.24,8.24-2.4,22.32,9.24,22.32c0,3.03-0.8,5.42-2.61,7.84c4.31-1.39,8.19-4.23,11.01-7.87
			C846.7,628.31,846.51,628.31,846.32,628.31z"/>
		<path class="st0" d="M839.71,606c-8.24,8.24-2.4,22.32,9.24,22.32c0,3.03-0.8,5.42-2.61,7.84c8.74-2.82,15.69-11.55,15.69-20.92
			C862.03,603.6,847.95,597.77,839.71,606z"/>
	</g>
</g>
<g>
	<g>
		<path class="st0" d="M960.66,695.89c-4.34-2.75-9.94-2.45-13.96,0.74c-4.02,3.19-5.59,8.58-3.9,13.43c1.69,4.85,6.26,8.1,11.4,8.1
			c3.9,0,7.68-1.79,10.21-4.74c-2.02-0.74-4.05-1.47-6.07-2.21c-1.26,1.02-2.51,1.46-4.14,1.46c-2.39,0-4.2-1.77-4.99-3.84
			c5.58,0,11.16,0,16.74,0C967.12,703.83,965,698.64,960.66,695.89z M949.22,703.35c1.96-5.12,8.02-5.12,9.97,0
			C955.86,703.35,952.54,703.35,949.22,703.35z"/>
		<path class="st0" d="M909.21,694.02v-6.58h-6.58v24.14l6.58,6.58h5.49c6.67,0,12.07-5.4,12.07-12.07s-5.4-12.07-12.07-12.07
			H909.21z M914.7,700.6c3.03,0,5.49,2.46,5.49,5.49c0,3.03-2.46,5.49-5.49,5.49h-5.49V700.6H914.7z"/>
		<rect x="931.16" y="687.43" class="st0" width="6.58" height="30.72"/>
		<g>
			<polygon class="st0" points="888.37,687.44 881.78,694.02 881.78,718.16 888.37,718.16 888.37,694.02 899.34,694.02 
				899.34,687.43 			"/>
			<polygon class="st0" points="870.81,687.44 870.81,694.02 878.68,694.02 885.26,687.44 			"/>
		</g>
	</g>
	<g>
		<path class="st0" d="M846.32,712.5c-7.22,0-13.08-5.86-13.08-13.08c0-5.84,3.83-10.79,9.11-12.47c-4.32-1.35-9.33-0.54-13.11,3.24
			c-8.24,8.24-2.4,22.32,9.24,22.32c0,3.03-0.8,5.42-2.61,7.84c4.31-1.39,8.19-4.23,11.01-7.87
			C846.7,712.49,846.51,712.5,846.32,712.5z"/>
		<path class="st0" d="M839.71,690.19c-8.24,8.24-2.4,22.32,9.24,22.32c0,3.03-0.8,5.42-2.61,7.84
			c8.74-2.82,15.69-11.55,15.69-20.92C862.03,687.79,847.95,681.96,839.71,690.19z"/>
	</g>
</g>
<g>
	<g>
		<path class="st0" d="M960.66,780.08c-4.34-2.75-9.94-2.45-13.96,0.74s-5.59,8.58-3.9,13.43s6.26,8.1,11.4,8.1
			c3.9,0,7.68-1.79,10.21-4.74c-2.02-0.74-4.05-1.47-6.07-2.21c-1.26,1.02-2.51,1.46-4.14,1.46c-2.39,0-4.2-1.77-4.99-3.84
			c5.58,0,11.16,0,16.74,0C967.12,788.02,965,782.83,960.66,780.08z M949.22,787.53c1.96-5.12,8.02-5.12,9.97,0
			C955.86,787.53,952.54,787.53,949.22,787.53z"/>
		<path class="st0" d="M909.21,778.21v-6.58h-6.58v24.14l6.58,6.58h5.49c6.67,0,12.07-5.4,12.07-12.07c0-6.67-5.4-12.07-12.07-12.07
			H909.21z M914.7,784.79c3.03,0,5.49,2.46,5.49,5.49c0,3.03-2.46,5.49-5.49,5.49h-5.49v-10.97H914.7z"/>
		<rect x="931.16" y="771.62" class="st0" width="6.58" height="30.72"/>
		<g>
			<polygon class="st0" points="888.37,771.62 881.78,778.21 881.78,802.35 888.37,802.35 888.37,778.21 899.34,778.21 
				899.34,771.62 			"/>
			<polygon class="st0" points="870.81,771.62 870.81,778.21 878.68,778.21 885.26,771.62 			"/>
		</g>
	</g>
	<g>
		<path class="st0" d="M846.32,796.69c-7.22,0-13.08-5.86-13.08-13.08c0-5.84,3.83-10.79,9.11-12.47
			c-4.32-1.35-9.33-0.54-13.11,3.24c-8.24,8.24-2.4,22.32,9.24,22.32c0,3.03-0.8,5.42-2.61,7.84c4.31-1.39,8.19-4.23,11.01-7.87
			C846.7,796.68,846.51,796.69,846.32,796.69z"/>
		<path class="st0" d="M839.71,774.38c-8.24,8.24-2.4,22.32,9.24,22.32c0,3.03-0.8,5.42-2.61,7.84
			c8.74-2.82,15.69-11.55,15.69-20.92C862.03,771.98,847.95,766.15,839.71,774.38z"/>
	</g>
</g>
<g>
	<g>
		<path class="st2" d="M321.81,340.65c-30.08,0-74.73,9.26-94.48,32.82c-13.36,15.94-8.9,33.08,12.56,44.18
			c16.4,8.48,37.12,10.87,53.6,10.87c30.08,0,74.73-9.26,94.48-32.82c13.36-15.94,8.9-33.08-12.56-44.18
			C359,343.04,338.29,340.65,321.81,340.65z"/>
	</g>
	<g>
		<path class="st1" d="M364.27,375.67c-5.6-3.55-12.84-3.17-18.03,0.96c-5.2,4.12-7.21,11.08-5.03,17.34
			c2.18,6.26,8.09,10.46,14.72,10.46c5.04,0,9.92-2.32,13.18-6.12c-2.61-0.95-5.23-1.9-7.84-2.85c-1.63,1.32-3.24,1.89-5.34,1.89
			c-3.08,0-5.42-2.29-6.44-4.96c7.21,0,14.42,0,21.62,0C372.62,385.93,369.88,379.22,364.27,375.67z M349.49,385.3
			c2.53-6.61,10.36-6.61,12.88,0C358.08,385.3,353.78,385.3,349.49,385.3z"/>
		<path class="st1" d="M297.82,373.25v-8.5h-8.5v31.18l8.5,8.5h7.09c8.61,0,15.59-6.98,15.59-15.59c0-8.61-6.98-15.59-15.59-15.59
			H297.82z M304.91,381.76c3.91,0,7.09,3.17,7.09,7.09c0,3.91-3.17,7.09-7.09,7.09h-7.09v-14.17H304.91z"/>
		<rect x="326.17" y="364.75" class="st1" width="8.5" height="39.69"/>
		<g>
			<polygon class="st1" points="270.89,364.75 262.39,373.25 262.39,404.43 270.89,404.43 270.89,373.25 285.06,373.25 
				285.06,364.75 			"/>
			<polygon class="st1" points="248.21,364.75 248.21,373.25 258.38,373.25 266.88,364.75 			"/>
		</g>
	</g>
</g>
<g>
	<path class="st1" d="M591.11,333.57c-20.47,0-39.65,2.64-59.02,10.01c-11.49,4.37-21.62,9.53-30.37,18.88
		c-5.58,5.97-9.82,13.39-9.82,22.13c0,8.75,4.24,16.18,9.83,22.14c8.76,9.35,18.9,14.51,30.4,18.88c19.36,7.36,38.53,10,58.98,10
		c20.47,0,39.65-2.64,59.02-10.01c11.49-4.37,21.62-9.53,30.37-18.88c5.59-5.97,9.82-13.39,9.82-22.13c0-8.75-4.24-16.18-9.83-22.14
		c-8.76-9.35-18.9-14.51-30.4-18.88C630.73,336.2,611.56,333.57,591.11,333.57z"/>
	<g>
		<path class="st2" d="M605.27,340.65c-30.08,0-74.73,9.26-94.48,32.82c-13.36,15.94-8.9,33.08,12.56,44.18
			c16.4,8.48,37.12,10.87,53.6,10.87c30.08,0,74.73-9.26,94.48-32.82c13.36-15.94,8.9-33.08-12.56-44.18
			C642.47,343.04,621.75,340.65,605.27,340.65z"/>
	</g>
	<g>
		<path class="st1" d="M647.74,375.67c-5.6-3.55-12.84-3.17-18.03,0.96c-5.2,4.12-7.21,11.08-5.03,17.34
			c2.18,6.26,8.09,10.46,14.72,10.46c5.04,0,9.92-2.32,13.18-6.12c-2.61-0.95-5.23-1.9-7.84-2.85c-1.63,1.32-3.24,1.89-5.34,1.89
			c-3.08,0-5.42-2.29-6.44-4.96c7.21,0,14.42,0,21.62,0C656.08,385.93,653.34,379.22,647.74,375.67z M632.95,385.3
			c2.53-6.61,10.36-6.61,12.88,0C641.54,385.3,637.25,385.3,632.95,385.3z"/>
		<path class="st1" d="M581.29,373.25v-8.5h-8.5v31.18l8.5,8.5h7.09c8.61,0,15.59-6.98,15.59-15.59c0-8.61-6.98-15.59-15.59-15.59
			H581.29z M588.37,381.76c3.91,0,7.09,3.17,7.09,7.09c0,3.91-3.17,7.09-7.09,7.09h-7.09v-14.17H588.37z"/>
		<rect x="609.63" y="364.75" class="st1" width="8.5" height="39.69"/>
		<g>
			<polygon class="st1" points="554.36,364.75 545.85,373.25 545.85,404.43 554.36,404.43 554.36,373.25 568.53,373.25 
				568.53,364.75 			"/>
			<polygon class="st1" points="531.68,364.75 531.68,373.25 541.84,373.25 550.35,364.75 			"/>
		</g>
	</g>
</g>
<g>
	<g>
		<path class="st1" d="M321.81,468.21c-30.08,0-74.73,9.26-94.48,32.82c-13.36,15.94-8.9,33.08,12.56,44.18
			c16.4,8.48,37.12,10.87,53.6,10.87c30.08,0,74.73-9.26,94.48-32.82c13.36-15.94,8.9-33.08-12.56-44.18
			C359,470.6,338.29,468.21,321.81,468.21z"/>
	</g>
	<g>
		<path class="st2" d="M364.27,503.23c-5.6-3.55-12.84-3.16-18.03,0.96c-5.2,4.12-7.21,11.08-5.03,17.34
			c2.18,6.26,8.09,10.46,14.72,10.46c5.04,0,9.92-2.32,13.18-6.12c-2.61-0.95-5.23-1.9-7.84-2.85c-1.63,1.32-3.24,1.89-5.34,1.89
			c-3.08,0-5.42-2.29-6.44-4.96c7.21,0,14.42,0,21.62,0C372.62,513.49,369.88,506.78,364.27,503.23z M349.49,512.86
			c2.53-6.61,10.36-6.61,12.88,0C358.08,512.86,353.78,512.86,349.49,512.86z"/>
		<path class="st2" d="M297.82,500.81v-8.5h-8.5v31.18l8.5,8.5h7.09c8.61,0,15.59-6.98,15.59-15.59c0-8.61-6.98-15.59-15.59-15.59
			H297.82z M304.91,509.31c3.91,0,7.09,3.17,7.09,7.09c0,3.91-3.17,7.09-7.09,7.09h-7.09v-14.17H304.91z"/>
		<rect x="326.17" y="492.31" class="st2" width="8.5" height="39.69"/>
		<g>
			<polygon class="st2" points="270.89,492.31 262.39,500.81 262.39,531.99 270.89,531.99 270.89,500.81 285.06,500.81 
				285.06,492.31 			"/>
			<polygon class="st2" points="248.21,492.31 248.21,500.81 258.38,500.81 266.88,492.31 			"/>
		</g>
	</g>
</g>
<circle class="st2" cx="245.28" cy="653.88" r="42.52"/>
<circle class="st11" cx="653.47" cy="653.88" r="42.52"/>
<circle class="st12" cx="517.41" cy="653.88" r="42.52"/>
<text transform="matrix(1 0 0 1 224.4655 729.7299)"><tspan x="0" y="0" style="font-family:'MyriadPro-Bold'; font-size:18px;">Main</tspan><tspan x="-26.04" y="24" style="font-family:'MyriadPro-Regular'; font-size:14px;">C0 M30 Y100 K0</tspan><tspan x="-19.37" y="48" style="font-family:'MyriadPro-Regular'; font-size:14px;">R251 G186 B0</tspan><tspan x="-5.12" y="72" style="font-family:'MyriadPro-Regular'; font-size:14px;">#FBBA00</tspan></text>
<circle class="st1" cx="381.35" cy="653.88" r="42.52"/>
<text transform="matrix(1 0 0 1 361.5905 729.7299)"><tspan x="0" y="0" style="font-family:'MyriadPro-Bold'; font-size:18px;">Sub1</tspan><tspan x="-19.92" y="24" style="font-family:'MyriadPro-Regular'; font-size:14px;">C0 M0 Y0 K90</tspan><tspan x="-16.84" y="48" style="font-family:'MyriadPro-Regular'; font-size:14px;">R60 G60 B60</tspan><tspan x="-6.68" y="72" style="font-family:'MyriadPro-Regular'; font-size:14px;">#3C3C3C</tspan></text>
<text transform="matrix(1 0 0 1 633.7164 729.7299)"><tspan x="0" y="0" style="font-family:'MyriadPro-Bold'; font-size:18px;">Sub3</tspan><tspan x="-27.1" y="24" style="font-family:'MyriadPro-Regular'; font-size:14px;">C0 M50 Y100 K0</tspan><tspan x="-20.43" y="48" style="font-family:'MyriadPro-Regular'; font-size:14px;">R243 G146 B0</tspan><tspan x="-5.09" y="72" style="font-family:'MyriadPro-Regular'; font-size:14px;">#F39200</tspan></text>
<text transform="matrix(1 0 0 1 497.6535 729.7299)"><tspan x="0" y="0" style="font-family:'MyriadPro-Bold'; font-size:18px;">Sub2</tspan><tspan x="-27.1" y="24" style="font-family:'MyriadPro-Regular'; font-size:14px;">C0 M10 Y100 K0</tspan><tspan x="-20.43" y="48" style="font-family:'MyriadPro-Regular'; font-size:14px;">R255 G221 B0</tspan><tspan x="-7.05" y="72" style="font-family:'MyriadPro-Regular'; font-size:14px;">#FFDD00</tspan></text>
<g>
	<g>
		
			<ellipse transform="matrix(0.8417 -0.54 0.54 0.8417 -182.9673 400.2927)" class="st1" cx="591.11" cy="512.15" rx="36.85" ry="36.85"/>
		
			<ellipse transform="matrix(0.7485 -0.6632 0.6632 0.7485 -190.9593 520.8145)" class="st2" cx="591.11" cy="512.15" rx="34.39" ry="27"/>
	</g>
	<g>
		<polygon class="st1" points="572.68,505.06 572.68,496.56 609.53,496.56 609.53,505.06 595.36,505.06 595.36,536.24 
			586.86,536.24 586.86,505.06 		"/>
	</g>
</g>
<text transform="matrix(1 0 0 1 761.7321 348.618)" class="st0" style="font-family:'MyriadPro-Bold'; font-size:14px;">50%</text>
<text transform="matrix(1 0 0 1 761.7321 264.429)" style="font-family:'MyriadPro-Bold'; font-size:14px;">40%</text>
<text transform="matrix(1 0 0 1 761.7321 180.2401)" style="font-family:'MyriadPro-Bold'; font-size:14px;">30%</text>
<text transform="matrix(1 0 0 1 761.7321 96.0511)" style="font-family:'MyriadPro-Bold'; font-size:14px;">20%</text>
<text transform="matrix(1 0 0 1 761.7321 11.8621)" style="font-family:'MyriadPro-Bold'; font-size:14px;">10%</text>
<text transform="matrix(1 0 0 1 761.7321 432.807)" class="st0" style="font-family:'MyriadPro-Bold'; font-size:14px;">60%</text>
<text transform="matrix(1 0 0 1 761.7321 516.996)" class="st0" style="font-family:'MyriadPro-Bold'; font-size:14px;">70%</text>
<text transform="matrix(1 0 0 1 761.7321 601.185)" class="st0" style="font-family:'MyriadPro-Bold'; font-size:14px;">80%</text>
<text transform="matrix(1 0 0 1 761.7321 685.374)" class="st0" style="font-family:'MyriadPro-Bold'; font-size:14px;">90%</text>
<text transform="matrix(1 0 0 1 761.7321 769.5629)" class="st0" style="font-family:'MyriadPro-Bold'; font-size:14px;">100%</text>
<g>
	<g>
		<path class="st2" d="M313.3,197.24c-15.66,0-28.35-12.69-28.35-28.35c0-12.66,8.3-23.37,19.75-27.01
			c-9.35-2.92-20.21-1.17-28.4,7.02c-17.85,17.85-5.21,48.36,20.03,48.36c0,6.57-1.72,11.74-5.67,17
			c9.35-3.02,17.75-9.16,23.86-17.05C314.12,197.23,313.72,197.24,313.3,197.24z"/>
		<path class="st2" d="M298.98,148.91c-17.85,17.85-5.21,48.36,20.03,48.36c0,6.57-1.72,11.74-5.67,17
			c18.93-6.11,33.99-25.03,33.99-45.32C347.34,143.7,316.83,131.06,298.98,148.91z"/>
	</g>
	<g>
		<path class="st1" d="M362.05,239.36c-5.6-3.55-12.84-3.16-18.03,0.96c-5.2,4.12-7.21,11.08-5.03,17.34
			c2.18,6.26,8.09,10.46,14.72,10.46c5.04,0,9.92-2.32,13.18-6.12c-2.61-0.95-5.23-1.9-7.84-2.85c-1.63,1.32-3.24,1.89-5.34,1.89
			c-3.08,0-5.42-2.29-6.44-4.96c7.21,0,14.42,0,21.62,0C370.4,249.61,367.65,242.91,362.05,239.36z M347.26,248.98
			c2.53-6.61,10.36-6.61,12.88,0C355.85,248.98,351.56,248.98,347.26,248.98z"/>
		<path class="st1" d="M295.6,236.94v-8.5h-8.5v31.18l8.5,8.5h7.09c8.61,0,15.59-6.98,15.59-15.59c0-8.61-6.98-15.59-15.59-15.59
			H295.6z M302.68,245.44c3.91,0,7.09,3.17,7.09,7.09c0,3.91-3.17,7.09-7.09,7.09h-7.09v-14.17H302.68z"/>
		<rect x="323.94" y="228.43" class="st1" width="8.5" height="39.69"/>
		<g>
			<polygon class="st1" points="268.67,228.43 260.16,236.94 260.16,268.12 268.67,268.12 268.67,236.94 282.84,236.94 
				282.84,228.43 			"/>
			<polygon class="st1" points="245.99,228.43 245.99,236.94 256.16,236.94 264.66,228.43 			"/>
		</g>
	</g>
</g>
<g>
	<g>
		<path class="st2" d="M610.94,197.24c-15.66,0-28.35-12.69-28.35-28.35c0-12.66,8.3-23.37,19.75-27.01
			c-9.35-2.92-20.21-1.17-28.4,7.02c-17.85,17.85-5.21,48.36,20.03,48.36c0,6.57-1.72,11.74-5.67,17
			c9.35-3.02,17.75-9.16,23.86-17.05C611.76,197.23,611.35,197.24,610.94,197.24z"/>
		<path class="st2" d="M596.62,148.91c-17.85,17.85-5.21,48.36,20.03,48.36c0,6.57-1.72,11.74-5.67,17
			c18.93-6.11,33.99-25.03,33.99-45.32C644.98,143.7,614.46,131.06,596.62,148.91z"/>
	</g>
	<g>
		<path class="st0" d="M659.69,239.36c-5.6-3.55-12.84-3.16-18.03,0.96c-5.2,4.12-7.21,11.08-5.03,17.34
			c2.18,6.26,8.09,10.46,14.72,10.46c5.04,0,9.92-2.32,13.18-6.12c-2.61-0.95-5.23-1.9-7.84-2.85c-1.63,1.32-3.24,1.89-5.34,1.89
			c-3.08,0-5.42-2.29-6.44-4.96c7.21,0,14.42,0,21.62,0C668.03,249.61,665.29,242.91,659.69,239.36z M644.9,248.98
			c2.53-6.61,10.36-6.61,12.88,0C653.49,248.98,649.2,248.98,644.9,248.98z"/>
		<path class="st0" d="M593.24,236.94v-8.5h-8.5v31.18l8.5,8.5h7.09c8.61,0,15.59-6.98,15.59-15.59c0-8.61-6.98-15.59-15.59-15.59
			H593.24z M600.32,245.44c3.91,0,7.09,3.17,7.09,7.09c0,3.91-3.17,7.09-7.09,7.09h-7.09v-14.17H600.32z"/>
		<rect x="621.58" y="228.43" class="st0" width="8.5" height="39.69"/>
		<g>
			<polygon class="st0" points="566.31,228.43 557.8,236.94 557.8,268.12 566.31,268.12 566.31,236.94 580.48,236.94 580.48,228.43 
							"/>
			<polygon class="st0" points="543.63,228.43 543.63,236.94 553.79,236.94 562.3,228.43 			"/>
		</g>
	</g>
</g>
<rect x="-21.52" y="215.61" style="fill:none;" width="10.17" height="5.48"/>
<rect x="-26.22" y="207.39" style="fill:none;" width="8.22" height="1.96"/>
<text transform="matrix(1 0 0 1 161.6087 15.6521)" class="st13 st14" style="fill:#373838;">광고신청하기</text>
<text transform="matrix(1 0 0 1 161.6087 56.7391)" class="st2 st13 st14">광고신청하기</text>
<text transform="matrix(1 0 0 1 0.3913 21.5217)" class="st2 st13 st14">광고신청하기</text>
</svg>
