<?xml version="1.0" encoding="utf-8"?>
<!-- Generator: Adobe Illustrator 26.0.3, SVG Export Plug-In . SVG Version: 6.00 Build 0)  -->
<svg version="1.1" id="Layer_2" xmlns="http://www.w3.org/2000/svg" xmlns:xlink="http://www.w3.org/1999/xlink" x="0px" y="0px"
	 viewBox="0 0 79.38 141.73" style="enable-background:new 0 0 79.38 141.73;" xml:space="preserve">
<style type="text/css">
	.st0{fill:#E34174;}
	.st1{fill:#9197A7;}
	.st2{fill:#BEA99D;}
	.st3{fill:#F4A3BB;}
	.st4{fill:#6DA5E8;}
	.st5{fill:#79A4D8;}
	.st6{fill:#FFFFFF;}
	.st7{fill:none;}
	.st8{fill:#002267;}
	.st9{fill:none;stroke:#002267;stroke-miterlimit:10;}
</style>
<polygon class="st0" points="616.02,-390.58 599.07,-407.53 616.02,-424.48 616.02,-432.11 591.44,-407.53 616.02,-382.94 "/>
<rect x="606.93" y="-410.79" class="st0" width="6.66" height="6.52"/>
<rect x="615.88" y="-410.79" class="st0" width="6.66" height="6.52"/>
<rect x="624.83" y="-410.79" class="st0" width="6.66" height="6.52"/>
<polygon class="st1" points="720.6,-382.94 745.18,-407.53 720.6,-432.11 720.6,-424.48 737.55,-407.53 720.6,-390.58 "/>
<rect x="723.02" y="-410.79" class="st1" width="6.66" height="6.52"/>
<rect x="714.07" y="-410.79" class="st1" width="6.67" height="6.52"/>
<rect x="705.12" y="-410.79" class="st1" width="6.66" height="6.52"/>
<polygon class="st2" points="863.39,-402.98 838.81,-427.56 814.23,-402.98 821.86,-402.98 838.81,-419.93 855.76,-402.98 "/>
<rect x="835.55" y="-412.06" class="st2" width="6.53" height="6.66"/>
<rect x="835.55" y="-403.11" class="st2" width="6.53" height="6.66"/>
<rect x="835.55" y="-394.16" class="st2" width="6.53" height="6.66"/>
<polygon class="st3" points="969.42,-412.08 952.47,-395.13 935.52,-412.08 927.89,-412.08 952.47,-387.5 977.05,-412.08 "/>
<rect x="949.21" y="-409.66" class="st3" width="6.53" height="6.66"/>
<rect x="949.21" y="-418.61" class="st3" width="6.53" height="6.67"/>
<rect x="949.21" y="-427.56" class="st3" width="6.53" height="6.66"/>
<polygon class="st4" points="623.45,-281.88 599.48,-281.88 599.48,-305.85 594.08,-311.25 594.08,-276.48 628.85,-276.48 "/>
<rect x="604.06" y="-293.06" transform="matrix(0.7071 -0.7071 0.7071 0.7071 382.8259 344.6172)" class="st4" width="6.66" height="6.52"/>
<rect x="610.39" y="-299.39" transform="matrix(0.7071 -0.7071 0.7071 0.7071 389.1492 347.2368)" class="st4" width="6.67" height="6.52"/>
<rect x="616.72" y="-305.72" transform="matrix(0.7072 -0.707 0.707 0.7072 395.3469 349.8137)" class="st4" width="6.66" height="6.52"/>
<polygon class="st3" points="707.77,-276.48 742.53,-276.48 742.53,-311.25 737.14,-305.85 737.14,-281.88 713.16,-281.88 "/>
<rect x="725.96" y="-293.13" transform="matrix(0.707 -0.7073 0.7073 0.707 418.6535 430.8235)" class="st3" width="6.52" height="6.67"/>
<rect x="719.63" y="-299.46" transform="matrix(0.7072 -0.707 0.707 0.7072 420.9776 424.367)" class="st3" width="6.52" height="6.66"/>
<rect x="713.3" y="-305.79" transform="matrix(0.7068 -0.7074 0.7074 0.7068 424.0345 418.2161)" class="st3" width="6.52" height="6.67"/>
<polygon class="st0" points="940.49,-305.85 964.46,-305.85 964.46,-281.88 969.86,-276.48 969.86,-311.25 935.09,-311.25 "/>
<rect x="953.21" y="-301.2" transform="matrix(0.7071 -0.7071 0.7071 0.7071 490.8466 589.1196)" class="st0" width="6.66" height="6.52"/>
<rect x="946.88" y="-294.87" transform="matrix(0.7071 -0.7071 0.7071 0.7071 484.5168 586.4975)" class="st0" width="6.67" height="6.52"/>
<rect x="940.55" y="-288.54" transform="matrix(0.7073 -0.7069 0.7069 0.7073 477.9016 583.7222)" class="st0" width="6.66" height="6.52"/>
<polygon class="st1" points="856.2,-311.25 821.43,-311.25 821.43,-276.48 826.82,-281.88 826.82,-305.86 850.8,-305.85 "/>
<rect x="831.48" y="-301.27" transform="matrix(0.707 -0.7072 0.7072 0.707 455.2471 503.0276)" class="st1" width="6.52" height="6.66"/>
<rect x="837.81" y="-294.94" transform="matrix(0.7073 -0.707 0.707 0.7073 452.3705 509.2346)" class="st1" width="6.52" height="6.66"/>
<rect x="844.14" y="-288.61" transform="matrix(0.7068 -0.7074 0.7074 0.7068 450.2505 515.8115)" class="st1" width="6.52" height="6.67"/>
<path class="st0" d="M635.18-183.97c2.09,2.1,2.09,5.49,0,7.59c-2.1,2.09-5.49,2.09-7.59,0l-26.73-26.73c-2.1-2.1-2.1-5.49,0-7.59
	c2.09-2.09,5.49-2.1,7.59,0L635.18-183.97z"/>
<path class="st0" d="M635.18-176.44c2.09-2.1,2.09-5.49,0-7.59c-2.1-2.09-5.49-2.09-7.59,0l-26.73,26.73c-2.1,2.1-2.1,5.49,0,7.59
	c2.09,2.09,5.49,2.1,7.59,0L635.18-176.44z"/>
<path class="st0" d="M608.71-184.03c2.1,2.1,2.1,5.49,0,7.59c-2.1,2.1-5.49,2.1-7.59,0l-13.37-13.37c-2.1-2.1-2.09-5.49,0-7.59
	c2.09-2.1,5.49-2.1,7.59,0L608.71-184.03z"/>
<path class="st0" d="M608.71-176.38c2.1-2.09,2.1-5.49,0-7.59c-2.1-2.09-5.49-2.09-7.59,0l-13.37,13.37c-2.1,2.1-2.09,5.49,0,7.59
	c2.09,2.1,5.49,2.1,7.59,0L608.71-176.38z"/>
<path class="st5" d="M701.43-183.97c-2.1,2.1-2.1,5.49,0,7.59c2.1,2.09,5.49,2.09,7.59,0l26.73-26.73c2.1-2.1,2.1-5.49,0-7.59
	c-2.09-2.09-5.49-2.1-7.59,0L701.43-183.97z"/>
<path class="st5" d="M701.43-176.44c-2.1-2.1-2.1-5.49,0-7.59c2.1-2.09,5.49-2.09,7.59,0l26.73,26.73c2.1,2.1,2.1,5.49,0,7.59
	c-2.09,2.09-5.49,2.1-7.59,0L701.43-176.44z"/>
<path class="st5" d="M727.91-184.03c-2.09,2.1-2.09,5.49,0,7.59c2.09,2.1,5.49,2.1,7.59,0l13.37-13.37c2.1-2.1,2.09-5.49,0-7.59
	c-2.1-2.1-5.49-2.1-7.59,0L727.91-184.03z"/>
<path class="st5" d="M727.91-176.38c-2.09-2.09-2.09-5.49,0-7.59c2.09-2.09,5.49-2.09,7.59,0l13.37,13.37c2.1,2.1,2.09,5.49,0,7.59
	c-2.1,2.1-5.49,2.1-7.59,0L727.91-176.38z"/>
<path class="st2" d="M835.05-203.92c2.09-2.1,5.49-2.1,7.59,0c2.1,2.1,2.1,5.49,0,7.59L815.9-169.6c-2.1,2.1-5.49,2.1-7.59,0
	c-2.09-2.1-2.1-5.49,0-7.59L835.05-203.92z"/>
<path class="st2" d="M842.58-203.92c-2.09-2.1-5.49-2.1-7.59,0c-2.1,2.1-2.1,5.49,0,7.59l26.73,26.73c2.1,2.1,5.49,2.1,7.59,0
	c2.1-2.1,2.1-5.49,0-7.59L842.58-203.92z"/>
<path class="st2" d="M834.99-177.44c2.1-2.1,5.49-2.1,7.59,0c2.1,2.1,2.1,5.49,0,7.59l-13.36,13.36c-2.1,2.1-5.49,2.1-7.59,0
	c-2.09-2.09-2.09-5.49,0-7.59L834.99-177.44z"/>
<path class="st2" d="M842.63-177.44c-2.1-2.1-5.49-2.1-7.59,0c-2.09,2.1-2.09,5.49,0,7.59l13.36,13.36c2.1,2.1,5.5,2.1,7.59,0
	c2.09-2.09,2.1-5.49,0-7.59L842.63-177.44z"/>
<path class="st0" d="M948.71-156.49c2.09,2.1,5.49,2.1,7.59,0c2.09-2.1,2.09-5.49,0-7.59l-26.73-26.73c-2.1-2.1-5.49-2.09-7.59,0
	c-2.09,2.1-2.1,5.49,0,7.59L948.71-156.49z"/>
<path class="st0" d="M956.24-156.49c-2.09,2.1-5.49,2.1-7.59,0c-2.09-2.1-2.09-5.49,0-7.59l26.73-26.73c2.1-2.1,5.49-2.09,7.59,0
	c2.1,2.1,2.1,5.49,0,7.59L956.24-156.49z"/>
<path class="st0" d="M948.65-182.97c2.1,2.1,5.49,2.1,7.59,0c2.1-2.1,2.1-5.49,0-7.59l-13.37-13.36c-2.1-2.1-5.49-2.1-7.59,0
	c-2.09,2.09-2.09,5.49,0,7.59L948.65-182.97z"/>
<path class="st0" d="M956.29-182.97c-2.09,2.1-5.49,2.1-7.59,0c-2.1-2.1-2.1-5.49,0-7.59l13.36-13.36c2.1-2.1,5.49-2.1,7.59,0
	c2.1,2.09,2.1,5.49,0,7.59L956.29-182.97z"/>
<path class="st1" d="M1041.91-199.11c0-2.96,2.4-5.37,5.37-5.37c2.96,0,5.37,2.4,5.37,5.37v37.8c0,2.96-2.4,5.37-5.37,5.37
	c-2.96,0-5.37-2.4-5.37-5.37V-199.11z"/>
<path class="st1" d="M1047.23-204.43c-2.96,0-5.37,2.4-5.37,5.37c0,2.96,2.4,5.37,5.37,5.37h37.8c2.96,0,5.37-2.4,5.37-5.37
	c0-2.96-2.4-5.37-5.37-5.37H1047.23z"/>
<path class="st1" d="M1060.59-180.34c0-2.96,2.4-5.37,5.37-5.37c2.96,0,5.37,2.4,5.37,5.37v18.9c0,2.96-2.4,5.37-5.37,5.37
	c-2.96,0-5.36-2.4-5.37-5.37V-180.34z"/>
<path class="st1" d="M1066-185.75c-2.96,0-5.37,2.4-5.37,5.37c0,2.96,2.4,5.37,5.37,5.37h18.9c2.96,0,5.37-2.4,5.37-5.37
	c0-2.96-2.4-5.37-5.37-5.37H1066z"/>
<path class="st3" d="M1198.7-155.98c2.96,0,5.37-2.4,5.37-5.37c0-2.96-2.4-5.37-5.37-5.37h-37.8c-2.96,0-5.37,2.4-5.37,5.37
	c0,2.96,2.4,5.37,5.37,5.37H1198.7z"/>
<path class="st3" d="M1204.02-161.3c0,2.96-2.4,5.37-5.37,5.37c-2.96,0-5.37-2.4-5.37-5.37v-37.8c0-2.96,2.4-5.37,5.37-5.37
	c2.96,0,5.37,2.4,5.37,5.37V-161.3z"/>
<path class="st3" d="M1179.93-174.66c2.96,0,5.37-2.4,5.37-5.37c0-2.96-2.4-5.37-5.37-5.37h-18.9c-2.96,0-5.37,2.4-5.37,5.37
	s2.4,5.36,5.37,5.37H1179.93z"/>
<path class="st3" d="M1185.34-180.07c0,2.96-2.4,5.37-5.37,5.37c-2.96,0-5.37-2.4-5.37-5.37v-18.9c0-2.96,2.4-5.37,5.37-5.37
	c2.96,0,5.37,2.4,5.37,5.37V-180.07z"/>
<path class="st2" d="M1041.91-274.96c0,2.96,2.4,5.37,5.37,5.37c2.96,0,5.37-2.4,5.37-5.37v-37.81c0-2.96-2.4-5.37-5.37-5.37
	c-2.96,0-5.37,2.4-5.37,5.37V-274.96z"/>
<path class="st2" d="M1047.23-269.64c-2.96,0-5.37-2.4-5.37-5.37c0-2.96,2.4-5.37,5.37-5.37h37.8c2.96,0,5.37,2.4,5.37,5.37
	s-2.4,5.37-5.37,5.37H1047.23z"/>
<path class="st2" d="M1060.59-293.73c0,2.96,2.4,5.37,5.37,5.37c2.96,0,5.37-2.4,5.37-5.37v-18.9c0-2.96-2.4-5.37-5.37-5.37
	c-2.96,0-5.36,2.4-5.37,5.37V-293.73z"/>
<path class="st2" d="M1066-288.32c-2.96,0-5.37-2.4-5.37-5.37c0-2.96,2.4-5.37,5.37-5.37h18.9c2.96,0,5.37,2.4,5.37,5.37
	c0,2.96-2.4,5.37-5.37,5.37H1066z"/>
<path class="st5" d="M1198.7-318.09c2.96,0,5.37,2.4,5.37,5.37c0,2.96-2.4,5.37-5.37,5.37h-37.8c-2.96,0-5.37-2.4-5.37-5.37
	c0-2.96,2.4-5.37,5.37-5.37H1198.7z"/>
<path class="st5" d="M1204.02-312.77c0-2.96-2.4-5.37-5.37-5.37c-2.96,0-5.37,2.4-5.37,5.37v37.81c0,2.96,2.4,5.37,5.37,5.37
	c2.96,0,5.37-2.4,5.37-5.37V-312.77z"/>
<path class="st5" d="M1179.93-299.41c2.96,0,5.37,2.4,5.37,5.37c0,2.96-2.4,5.37-5.37,5.37h-18.9c-2.96,0-5.37-2.4-5.37-5.37
	c0-2.96,2.4-5.37,5.37-5.37H1179.93z"/>
<path class="st5" d="M1185.34-294.01c0-2.96-2.4-5.37-5.37-5.37c-2.96,0-5.37,2.4-5.37,5.37v18.9c0,2.97,2.4,5.37,5.37,5.37
	c2.96,0,5.37-2.4,5.37-5.37V-294.01z"/>
<path class="st0" d="M651.86-521.19c0,22.31-18.08,40.4-40.39,40.4c-22.31,0-40.39-18.08-40.39-40.4
	c0-22.31,18.08-40.39,40.39-40.39C633.78-561.58,651.86-543.5,651.86-521.19"/>
<polygon class="st6" points="619.29,-541.84 603.1,-541.84 619.29,-521.19 603.1,-500.54 619.29,-500.54 635.48,-521.19 "/>
<rect x="591.25" y="-531.95" class="st6" width="28.04" height="21.53"/>
<path class="st5" d="M684.76-521.19c0,22.31,18.09,40.4,40.39,40.4s40.39-18.08,40.39-40.4c0-22.31-18.08-40.39-40.39-40.39
	S684.76-543.5,684.76-521.19"/>
<polygon class="st6" points="718.28,-541.84 734.46,-541.84 718.28,-521.19 734.46,-500.54 718.28,-500.54 702.09,-521.19 "/>
<rect x="718.28" y="-531.95" class="st6" width="28.04" height="21.53"/>
<path class="st2" d="M838.81-561.58c22.31,0,40.4,18.08,40.4,40.39c0,22.31-18.09,40.39-40.4,40.39
	c-22.31,0-40.39-18.09-40.39-40.39C798.42-543.5,816.5-561.58,838.81-561.58"/>
<polygon class="st6" points="818.16,-514.31 818.16,-530.5 838.81,-514.31 859.46,-530.5 859.46,-514.31 838.81,-498.13 "/>
<rect x="828.05" y="-542.35" class="st6" width="21.53" height="28.04"/>
<path class="st1" d="M952.47-480.79c22.31,0,40.4-18.09,40.4-40.39c0-22.31-18.09-40.39-40.4-40.39
	c-22.31,0-40.39,18.08-40.39,40.39C912.08-498.88,930.16-480.79,952.47-480.79"/>
<polygon class="st6" points="931.83,-527.11 931.83,-510.92 952.47,-527.11 973.12,-510.92 973.12,-527.11 952.47,-543.3 "/>
<rect x="941.71" y="-527.11" class="st6" width="21.53" height="28.04"/>
<path class="st3" d="M1106.53-521.19c0,22.31-18.08,40.4-40.39,40.4c-22.31,0-40.39-18.08-40.39-40.4
	c0-22.31,18.08-40.39,40.39-40.39C1088.44-561.58,1106.53-543.5,1106.53-521.19"/>
<polygon class="st6" points="1046.07,-512.06 1057.51,-500.61 1060.67,-526.66 1086.71,-529.81 1075.27,-541.26 1049.22,-538.11 "/>
<rect x="1059.81" y="-530.76" transform="matrix(0.7071 -0.7071 0.7071 0.7071 678.9058 605.6439)" class="st6" width="21.53" height="28.04"/>
<path class="st2" d="M1220.19-521.19c0,22.31-18.08,40.4-40.4,40.4c-22.31,0-40.39-18.08-40.39-40.4
	c0-22.31,18.08-40.39,40.39-40.39C1202.1-561.58,1220.19-543.5,1220.19-521.19"/>
<polygon class="st6" points="1199.87,-512.06 1188.42,-500.61 1185.27,-526.66 1159.22,-529.81 1170.67,-541.26 1196.71,-538.11 "/>
<rect x="1161.33" y="-527.51" transform="matrix(0.7071 -0.7071 0.7071 0.7071 709.7042 679.7704)" class="st6" width="28.04" height="21.53"/>
<path class="st5" d="M1106.53-407.53c0-22.31-18.08-40.4-40.39-40.4c-22.31,0-40.39,18.09-40.39,40.4
	c0,22.31,18.08,40.39,40.39,40.39C1088.44-367.13,1106.53-385.22,1106.53-407.53"/>
<polygon class="st6" points="1046.07,-416.66 1057.51,-428.11 1060.67,-402.06 1086.71,-398.91 1075.27,-387.46 1049.22,-390.61 "/>
<rect x="1056.56" y="-422.74" transform="matrix(0.7071 -0.7071 0.7071 0.7071 604.8967 636.361)" class="st6" width="28.04" height="21.53"/>
<path class="st0" d="M1220.19-407.53c0-22.31-18.08-40.4-40.4-40.4c-22.31,0-40.39,18.09-40.39,40.4
	c0,22.31,18.08,40.39,40.39,40.39C1202.1-367.13,1220.19-385.22,1220.19-407.53"/>
<polygon class="st6" points="1199.87,-416.66 1188.42,-428.11 1185.27,-402.06 1159.22,-398.91 1170.67,-387.46 1196.71,-390.61 "/>
<rect x="1164.59" y="-425.99" transform="matrix(0.7071 -0.7071 0.7071 0.7071 635.5347 710.4236)" class="st6" width="21.53" height="28.04"/>
<path class="st2" d="M651.86-66.54c0,22.31-18.08,40.39-40.39,40.39c-22.31,0-40.39-18.09-40.39-40.39
	c0-22.31,18.08-40.4,40.39-40.4C633.78-106.94,651.86-88.85,651.86-66.54"/>
<polygon class="st6" points="588.17,-66.54 611.1,-43.61 611.1,-89.48 "/>
<rect x="607.07" y="-75.25" class="st6" width="27.7" height="17.41"/>
<path class="st5" d="M684.76-66.54c0,22.31,18.09,40.39,40.39,40.39s40.39-18.09,40.39-40.39c0-22.31-18.08-40.4-40.39-40.4
	S684.76-88.85,684.76-66.54"/>
<polygon class="st6" points="748.45,-66.54 725.52,-43.61 725.52,-89.48 "/>
<rect x="701.85" y="-75.25" class="st6" width="27.7" height="17.41"/>
<path class="st0" d="M838.81-106.94c22.31,0,40.4,18.09,40.4,40.39c0,22.31-18.09,40.39-40.4,40.39
	c-22.31,0-40.39-18.08-40.39-40.39C798.42-88.85,816.5-106.94,838.81-106.94"/>
<polygon class="st6" points="838.81,-89.84 861.74,-66.91 815.88,-66.91 "/>
<rect x="830.11" y="-70.94" class="st6" width="17.41" height="27.7"/>
<path class="st1" d="M952.47-26.15c22.31,0,40.4-18.08,40.4-40.39c0-22.31-18.09-40.39-40.4-40.39c-22.31,0-40.39,18.09-40.39,40.39
	C912.08-44.24,930.16-26.15,952.47-26.15"/>
<polygon class="st6" points="952.47,-43.24 975.41,-66.17 929.54,-66.17 "/>
<rect x="943.77" y="-89.84" class="st6" width="17.41" height="27.7"/>
<path class="st3" d="M1106.53-66.54c0,22.31-18.08,40.39-40.39,40.39c-22.31,0-40.39-18.09-40.39-40.39
	c0-22.31,18.08-40.4,40.39-40.4C1088.44-106.94,1106.53-88.85,1106.53-66.54"/>
<polygon class="st6" points="1048.48,-48.89 1080.91,-48.89 1048.48,-81.32 "/>
<rect x="1057.79" y="-80.76" transform="matrix(0.7071 -0.7071 0.7071 0.7071 364.8026 736.6443)" class="st6" width="27.7" height="17.41"/>
<path class="st2" d="M1220.19-66.54c0,22.31-18.08,40.39-40.4,40.39c-22.31,0-40.39-18.09-40.39-40.39
	c0-22.31,18.08-40.4,40.39-40.4C1202.1-106.94,1220.19-88.85,1220.19-66.54"/>
<polygon class="st6" points="1197.45,-48.89 1165.02,-48.89 1197.45,-81.32 "/>
<rect x="1165.58" y="-85.9" transform="matrix(0.7071 -0.7071 0.7071 0.7071 394.9104 809.2649)" class="st6" width="17.41" height="27.7"/>
<path class="st0" d="M1106.53,47.12c0-22.31-18.08-40.4-40.39-40.4c-22.31,0-40.39,18.09-40.39,40.4
	c0,22.31,18.08,40.39,40.39,40.39C1088.44,87.51,1106.53,69.43,1106.53,47.12"/>
<polygon class="st6" points="1048.48,29.46 1080.91,29.46 1048.48,61.9 "/>
<rect x="1062.94" y="38.78" transform="matrix(0.7071 -0.7071 0.7071 0.7071 276.6839 773.1988)" class="st6" width="17.41" height="27.7"/>
<path class="st5" d="M1220.19,47.12c0-22.31-18.08-40.4-40.4-40.4c-22.31,0-40.39,18.09-40.39,40.4c0,22.31,18.08,40.39,40.39,40.39
	C1202.1,87.51,1220.19,69.43,1220.19,47.12"/>
<polygon class="st6" points="1195.55,30.97 1163.12,30.97 1195.55,63.4 "/>
<rect x="1158.54" y="45.42" transform="matrix(0.7071 -0.7071 0.7071 0.7071 305.1124 844.8573)" class="st6" width="27.7" height="17.41"/>
<path class="st0" d="M584.8,52.44c-3.71,0-6.73,3.02-6.73,6.73c0,3.72,3.02,6.73,6.73,6.73c3.72,0,6.73-3.02,6.73-6.73
	C591.53,55.46,588.52,52.44,584.8,52.44"/>
<path class="st0" d="M625.27,40.39c-3.71,0-6.73,3.01-6.73,6.73c0,3.72,3.02,6.73,6.73,6.73c3.72,0,6.73-3.02,6.73-6.73
	C632.01,43.4,628.99,40.39,625.27,40.39"/>
<path class="st0" d="M598.6,40.39c-3.71,0-6.73,3.01-6.73,6.73c0,3.72,3.02,6.73,6.73,6.73c3.72,0,6.73-3.02,6.73-6.73
	C605.34,43.4,602.32,40.39,598.6,40.39"/>
<path class="st0" d="M611.47,28.33c-3.71,0-6.73,3.02-6.73,6.73c0,3.71,3.02,6.73,6.73,6.73c3.72,0,6.73-3.02,6.73-6.73
	C618.2,31.34,615.18,28.33,611.47,28.33"/>
<path class="st0" d="M638.13,52.44c-3.71,0-6.73,3.02-6.73,6.73c0,3.72,3.02,6.73,6.73,6.73c3.72,0,6.73-3.02,6.73-6.73
	C644.87,55.46,641.85,52.44,638.13,52.44"/>
<path class="st2" d="M698.48,41.79c-3.71,0-6.73-3.02-6.73-6.73c0-3.72,3.02-6.73,6.73-6.73c3.72,0,6.73,3.02,6.73,6.73
	C705.21,38.78,702.2,41.79,698.48,41.79"/>
<path class="st2" d="M738.96,53.85c-3.72,0-6.73-3.01-6.73-6.73s3.02-6.73,6.73-6.73s6.73,3.02,6.73,6.73S742.67,53.85,738.96,53.85
	"/>
<path class="st2" d="M712.29,53.85c-3.71,0-6.73-3.01-6.73-6.73s3.02-6.73,6.73-6.73c3.72,0,6.73,3.02,6.73,6.73
	S716.01,53.85,712.29,53.85"/>
<path class="st2" d="M725.15,65.91c-3.71,0-6.73-3.02-6.73-6.73c0-3.71,3.02-6.73,6.73-6.73c3.72,0,6.73,3.02,6.73,6.73
	C731.88,62.89,728.87,65.91,725.15,65.91"/>
<path class="st2" d="M751.82,41.79c-3.71,0-6.73-3.02-6.73-6.73c0-3.72,3.02-6.73,6.73-6.73c3.72,0,6.73,3.02,6.73,6.73
	C758.55,38.78,755.54,41.79,751.82,41.79"/>
<g>
	<path class="st6" d="M28.91,124.21c0,7.43-6.03,13.47-13.47,13.47c-7.43,0-13.47-6.03-13.47-13.47c0-7.44,6.04-13.47,13.47-13.47
		C22.87,110.75,28.91,116.78,28.91,124.21"/>
	<path class="st6" d="M53.03,43.25c0,7.43-6.03,13.47-13.47,13.47c-7.43,0-13.47-6.03-13.47-13.47c0-7.44,6.04-13.47,13.47-13.47
		C47,29.78,53.03,35.81,53.03,43.25"/>
	<path class="st6" d="M53.03,96.6c0,7.43-6.03,13.47-13.47,13.47c-7.43,0-13.47-6.03-13.47-13.47c0-7.44,6.04-13.47,13.47-13.47
		C47,83.13,53.03,89.16,53.03,96.6"/>
	<path class="st6" d="M77.15,70.87c0,7.43-6.04,13.47-13.47,13.47c-7.43,0-13.47-6.04-13.47-13.47c0-7.44,6.04-13.47,13.47-13.47
		C71.11,57.4,77.15,63.43,77.15,70.87"/>
	<path class="st6" d="M28.91,17.52c0,7.43-6.03,13.47-13.47,13.47c-7.43,0-13.47-6.04-13.47-13.47c0-7.44,6.04-13.47,13.47-13.47
		C22.87,4.05,28.91,10.08,28.91,17.52"/>
</g>
<path class="st0" d="M957.8,73.79c0,3.72,3.02,6.73,6.73,6.73c3.71,0,6.73-3.02,6.73-6.73c0-3.72-3.02-6.73-6.73-6.73
	C960.81,67.05,957.8,70.07,957.8,73.79"/>
<path class="st0" d="M945.74,33.31c0,3.71,3.02,6.73,6.73,6.73c3.72,0,6.73-3.02,6.73-6.73c0-3.72-3.02-6.73-6.73-6.73
	C948.76,26.58,945.74,29.59,945.74,33.31"/>
<path class="st0" d="M945.74,59.98c0,3.72,3.02,6.73,6.73,6.73c3.72,0,6.73-3.02,6.73-6.73c0-3.72-3.02-6.73-6.73-6.73
	C948.76,53.25,945.74,56.26,945.74,59.98"/>
<path class="st0" d="M933.68,47.12c0,3.71,3.02,6.73,6.73,6.73c3.71,0,6.73-3.02,6.73-6.73c0-3.72-3.02-6.73-6.73-6.73
	C936.7,40.39,933.68,43.4,933.68,47.12"/>
<path class="st0" d="M957.8,20.45c0,3.71,3.02,6.73,6.73,6.73c3.71,0,6.73-3.02,6.73-6.73c0-3.72-3.02-6.73-6.73-6.73
	C960.81,13.72,957.8,16.73,957.8,20.45"/>
<path class="st5" d="M591.09,154.28c-2.67,0-4.84-2.17-4.84-4.84c0-2.67,2.16-4.84,4.84-4.84h52.99c2.67,0,4.84,2.16,4.84,4.84
	c0,2.67-2.17,4.84-4.84,4.84H591.09z"/>
<path class="st5" d="M591.09,176.95c-2.67,0-4.84-2.17-4.84-4.84c0-2.67,2.16-4.84,4.84-4.84h52.99c2.67,0,4.84,2.17,4.84,4.84
	c0,2.67-2.17,4.84-4.84,4.84H591.09z"/>
<path class="st5" d="M582.28,164.18c-1.89,1.89-4.95,1.89-6.84,0c-1.89-1.89-1.89-4.95,0-6.84l24.1-24.1c1.89-1.89,4.95-1.89,6.84,0
	c1.89,1.89,1.89,4.95,0,6.84L582.28,164.18z"/>
<path class="st5" d="M582.28,157.38c-1.89-1.89-4.95-1.89-6.84,0c-1.89,1.89-1.89,4.95,0,6.84l24.1,24.1c1.89,1.89,4.95,1.89,6.84,0
	c1.89-1.89,1.89-4.95,0-6.84L582.28,157.38z"/>
<path class="st2" d="M745.53,154.28c2.67,0,4.84-2.17,4.84-4.84c0-2.67-2.16-4.84-4.84-4.84h-52.98c-2.67,0-4.84,2.16-4.84,4.84
	c0,2.67,2.17,4.84,4.84,4.84H745.53z"/>
<path class="st2" d="M745.53,176.95c2.67,0,4.84-2.17,4.84-4.84c0-2.67-2.16-4.84-4.84-4.84h-52.98c-2.67,0-4.84,2.17-4.84,4.84
	c0,2.67,2.17,4.84,4.84,4.84H745.53z"/>
<path class="st2" d="M754.34,164.18c1.89,1.89,4.95,1.89,6.84,0c1.89-1.89,1.89-4.95,0-6.84l-24.1-24.1c-1.89-1.89-4.95-1.89-6.84,0
	c-1.89,1.89-1.89,4.95,0,6.84L754.34,164.18z"/>
<path class="st2" d="M754.34,157.38c1.89-1.89,4.95-1.89,6.84,0c1.89,1.89,1.89,4.95,0,6.84l-24.1,24.1c-1.89,1.89-4.95,1.89-6.84,0
	c-1.89-1.89-1.89-4.95,0-6.84L754.34,157.38z"/>
<path class="st0" d="M832.31,140.4c0-2.67-2.17-4.84-4.84-4.84c-2.67,0-4.84,2.17-4.84,4.84v52.99c0,2.67,2.16,4.84,4.84,4.84
	c2.67,0,4.84-2.17,4.84-4.84V140.4z"/>
<path class="st0" d="M854.99,140.4c0-2.67-2.17-4.84-4.84-4.84c-2.67,0-4.84,2.17-4.84,4.84v52.99c0,2.67,2.17,4.84,4.84,4.84
	c2.67,0,4.84-2.17,4.84-4.84V140.4z"/>
<path class="st0" d="M842.21,131.59c1.89-1.89,1.89-4.95,0-6.84c-1.89-1.89-4.95-1.89-6.84,0l-24.1,24.1
	c-1.89,1.89-1.89,4.95,0,6.84c1.89,1.89,4.95,1.89,6.84,0L842.21,131.59z"/>
<path class="st0" d="M835.41,131.59c-1.89-1.89-1.89-4.95,0-6.84c1.89-1.89,4.95-1.89,6.84,0l24.1,24.1c1.89,1.89,1.89,4.95,0,6.84
	c-1.89,1.89-4.95,1.89-6.84,0L835.41,131.59z"/>
<path class="st1" d="M945.97,181.16c0,2.67-2.17,4.84-4.84,4.84c-2.67,0-4.84-2.17-4.84-4.84v-52.99c0-2.67,2.17-4.84,4.84-4.84
	c2.67,0,4.84,2.17,4.84,4.84V181.16z"/>
<path class="st1" d="M968.65,181.16c0,2.67-2.17,4.84-4.84,4.84c-2.67,0-4.84-2.17-4.84-4.84v-52.99c0-2.67,2.17-4.84,4.84-4.84
	c2.67,0,4.84,2.17,4.84,4.84V181.16z"/>
<path class="st1" d="M955.87,189.97c1.89,1.89,1.89,4.95,0,6.84c-1.89,1.89-4.95,1.89-6.84,0l-24.1-24.1
	c-1.89-1.89-1.89-4.95,0-6.84c1.89-1.89,4.95-1.89,6.84,0L955.87,189.97z"/>
<path class="st1" d="M949.07,189.97c-1.89,1.89-1.89,4.95,0,6.84c1.89,1.89,4.95,1.89,6.84,0l24.1-24.1c1.89-1.89,1.89-4.95,0-6.84
	c-1.89-1.89-4.95-1.89-6.84,0L949.07,189.97z"/>
<path class="st2" d="M1079.95,183.78c1.89,1.89,1.89,4.95,0,6.84c-1.89,1.89-4.95,1.89-6.84,0l-37.47-37.47
	c-1.89-1.89-1.89-4.95,0-6.84c1.89-1.89,4.95-1.89,6.84,0L1079.95,183.78z"/>
<path class="st2" d="M1095.98,167.75c1.89,1.89,1.89,4.95,0,6.84c-1.89,1.89-4.95,1.89-6.84,0l-37.47-37.47
	c-1.89-1.89-1.89-4.95,0-6.84c1.89-1.89,4.95-1.89,6.84,0L1095.98,167.75z"/>
<path class="st2" d="M1093.18,183.01c2.67,0,4.84,2.17,4.84,4.84c0,2.67-2.17,4.84-4.84,4.84l-34.08,0c-2.67,0-4.84-2.16-4.84-4.84
	c0-2.67,2.17-4.84,4.84-4.84H1093.18z"/>
<path class="st2" d="M1088.37,187.82c0,2.67,2.17,4.84,4.84,4.84c2.67,0,4.84-2.17,4.84-4.84v-34.08c0-2.67-2.17-4.84-4.84-4.84
	c-2.67,0-4.84,2.17-4.84,4.84V187.82z"/>
<path class="st0" d="M1165.98,137.78c-1.89-1.89-1.89-4.95,0-6.84c1.89-1.89,4.95-1.89,6.84,0l37.47,37.47
	c1.89,1.89,1.89,4.95,0,6.84c-1.89,1.89-4.95,1.89-6.84,0L1165.98,137.78z"/>
<path class="st0" d="M1149.95,153.81c-1.89-1.89-1.89-4.95,0-6.84c1.89-1.89,4.95-1.89,6.84,0l37.47,37.47
	c1.89,1.89,1.89,4.95,0,6.84c-1.89,1.89-4.95,1.89-6.84,0L1149.95,153.81z"/>
<path class="st0" d="M1152.76,138.54c-2.67,0-4.84-2.17-4.84-4.84c0-2.67,2.17-4.84,4.84-4.84l34.08,0c2.67,0,4.84,2.16,4.84,4.84
	c0,2.67-2.17,4.84-4.84,4.84H1152.76z"/>
<path class="st0" d="M1157.56,133.74c0-2.67-2.17-4.84-4.84-4.84c-2.67,0-4.84,2.17-4.84,4.84l0,34.08c0,2.67,2.17,4.84,4.84,4.84
	c2.67,0,4.84-2.17,4.84-4.84V133.74z"/>
<path class="st5" d="M1307.27,137.78c1.89-1.89,1.89-4.95,0-6.84c-1.89-1.89-4.95-1.89-6.84,0l-37.47,37.47
	c-1.89,1.89-1.89,4.95,0,6.84c1.89,1.89,4.96,1.89,6.84,0L1307.27,137.78z"/>
<path class="st5" d="M1323.3,153.81c1.89-1.89,1.89-4.95,0-6.84c-1.89-1.89-4.95-1.89-6.84,0L1279,184.43
	c-1.89,1.89-1.89,4.95,0,6.84c1.89,1.89,4.95,1.89,6.84,0L1323.3,153.81z"/>
<path class="st5" d="M1320.5,138.54c2.67,0,4.84-2.17,4.84-4.84c0-2.67-2.17-4.84-4.84-4.84l-34.08,0c-2.67,0-4.84,2.16-4.84,4.84
	c0,2.67,2.17,4.84,4.84,4.84H1320.5z"/>
<path class="st5" d="M1315.69,133.74c0-2.67,2.17-4.84,4.84-4.84c2.67,0,4.84,2.17,4.84,4.84l0,34.08c0,2.67-2.17,4.84-4.84,4.84
	c-2.67,0-4.84-2.17-4.84-4.84V133.74z"/>
<path class="st0" d="M1293.46-480.8c-22.31,0-40.4-18.08-40.4-40.39c0-22.31,18.09-40.39,40.4-40.39
	c22.31,0,40.39,18.08,40.39,40.39C1333.85-498.88,1315.77-480.8,1293.46-480.8"/>
<path class="st6" d="M1299.08-507.58c0,3.11-2.52,5.62-5.63,5.63c-3.11,0-5.62-2.52-5.62-5.62v-27.08c0-3.11,2.52-5.62,5.62-5.62
	c3.1,0,5.62,2.52,5.63,5.63V-507.58z"/>
<path class="st6" d="M1314.95-521.11l-17.77-17.77v0h0c-2.05-2.05-5.38-2.05-7.43,0l-17.77,17.77l7.43,7.43l14.06-14.06l14.06,14.06
	L1314.95-521.11z"/>
<path class="st5" d="M1293.46-447.92c-22.31,0-40.4,18.08-40.4,40.39s18.09,40.39,40.4,40.39c22.31,0,40.39-18.08,40.39-40.39
	S1315.77-447.92,1293.46-447.92"/>
<path class="st6" d="M1299.08-421.14c0-3.11-2.52-5.62-5.63-5.63c-3.11,0-5.62,2.52-5.62,5.62v27.08c0,3.11,2.52,5.62,5.62,5.62
	c3.1,0,5.62-2.52,5.63-5.63V-421.14z"/>
<path class="st6" d="M1314.95-407.6l-17.77,17.77v0h0c-2.05,2.05-5.38,2.05-7.43,0l-17.77-17.77l7.43-7.43l14.06,14.06l14.06-14.06
	L1314.95-407.6z"/>
<path class="st2" d="M1333.85-293.87c0,22.31-18.08,40.4-40.39,40.4c-22.31,0-40.39-18.09-40.39-40.4
	c0-22.31,18.09-40.39,40.39-40.39C1315.77-334.26,1333.85-316.18,1333.85-293.87"/>
<path class="st6" d="M1279.85-299.49c-3.11,0-5.63,2.52-5.63,5.63c0,3.11,2.52,5.62,5.62,5.62h27.08c3.11,0,5.62-2.52,5.62-5.62
	c0-3.11-2.52-5.62-5.63-5.63H1279.85z"/>
<path class="st6" d="M1293.38-315.36l17.77,17.77l0,0v0c2.05,2.05,2.05,5.38,0,7.43l-17.77,17.77l-7.43-7.43l14.06-14.06
	l-14.06-14.06L1293.38-315.36z"/>
<path class="st1" d="M1253.06-180.21c0,22.31,18.09,40.4,40.39,40.4c22.31,0,40.39-18.09,40.39-40.4
	c0-22.31-18.08-40.39-40.39-40.39C1271.15-220.6,1253.06-202.51,1253.06-180.21"/>
<path class="st6" d="M1307.07-185.83c3.1,0,5.62,2.52,5.63,5.63c0,3.11-2.52,5.62-5.63,5.62H1280c-3.11,0-5.62-2.52-5.62-5.62
	c0-3.11,2.52-5.62,5.63-5.63H1307.07z"/>
<path class="st6" d="M1293.53-201.7l-17.77,17.77v0h0c-2.05,2.05-2.05,5.38,0,7.43l17.77,17.77l7.43-7.43l-14.06-14.06l14.06-14.06
	L1293.53-201.7z"/>
<path class="st3" d="M1293.46-26.15c-22.31,0-40.4-18.08-40.4-40.39c0-22.31,18.09-40.39,40.4-40.39
	c22.31,0,40.39,18.08,40.39,40.39C1333.85-44.24,1315.77-26.15,1293.46-26.15"/>
<path class="st6" d="M1287.86-52.99c-2.2,2.19-5.76,2.19-7.96,0c-2.2-2.2-2.2-5.76,0-7.96l19.14-19.14c2.2-2.19,5.76-2.2,7.95,0
	c2.19,2.2,2.2,5.76,0,7.96L1287.86-52.99z"/>
<path class="st6" d="M1308.65-51.35v-25.13v0c0-2.9-2.35-5.25-5.26-5.25l-25.14,0v10.51l19.88,0v19.88H1308.65z"/>
<path class="st0" d="M1293.46,87.51c-22.31,0-40.4-18.08-40.4-40.4c0-22.31,18.09-40.39,40.4-40.39c22.31,0,40.39,18.08,40.39,40.39
	C1333.85,69.43,1315.77,87.51,1293.46,87.51"/>
<path class="st6" d="M1299.05,33.57c2.2-2.2,5.76-2.2,7.96,0c2.2,2.2,2.19,5.76,0,7.96l-19.15,19.14c-2.2,2.2-5.76,2.2-7.95,0
	c-2.2-2.2-2.2-5.76,0-7.96L1299.05,33.57z"/>
<path class="st6" d="M1278.26,31.92v25.13v0c0,2.9,2.35,5.25,5.26,5.25l25.13,0V51.8l-19.88,0V31.92H1278.26z"/>
<rect x="410.05" y="-758.06" class="st7" width="1077.17" height="1077.17"/>
<g>
	<defs>
		<rect id="SVGID_1_" x="410.05" y="-758.06" width="1077.17" height="1077.17"/>
	</defs>
	<clipPath id="SVGID_00000137836241835275412600000012469630432076024718_">
		<use xlink:href="#SVGID_1_"  style="overflow:visible;"/>
	</clipPath>
</g>
<path class="st8" d="M864.4-651.35c0.77,2.04,1.56,4.04,2.34,6.03c0.77,2,1.56,4.01,2.34,6.01h-1.19c-0.25-0.63-0.48-1.26-0.71-1.91
	c-0.25-0.62-0.49-1.26-0.74-1.91h-5.22c-0.25,0.65-0.48,1.29-0.72,1.91c-0.25,0.65-0.49,1.28-0.72,1.91h-1.17
	c0.79-2,1.57-4.01,2.36-6.01c0.77-1.99,1.56-3.99,2.34-6.03H864.4z M866.06-644.11c-0.37-0.96-0.74-1.9-1.11-2.85
	c-0.39-0.94-0.76-1.9-1.12-2.87c-0.37,0.97-0.74,1.93-1.1,2.87c-0.37,0.96-0.74,1.89-1.11,2.85H866.06z"/>
<path class="st8" d="M882.06-647.56c0,0.46-0.06,0.89-0.19,1.28c-0.14,0.4-0.32,0.75-0.54,1.06c-0.23,0.31-0.49,0.57-0.79,0.79
	c-0.31,0.23-0.65,0.4-0.99,0.49l2.78,4.62h-1.2c-0.46-0.74-0.92-1.48-1.36-2.23c-0.45-0.74-0.89-1.48-1.36-2.24h-3.59v4.47h-1.09
	v-12.04h4.67c0.49,0,0.96,0.09,1.4,0.26c0.43,0.19,0.83,0.43,1.17,0.76c0.32,0.34,0.59,0.72,0.79,1.19
	C881.95-648.67,882.06-648.15,882.06-647.56 M878.41-644.76c0.34,0,0.66-0.06,0.99-0.18c0.31-0.12,0.57-0.29,0.82-0.54
	c0.22-0.23,0.4-0.52,0.55-0.88c0.12-0.34,0.2-0.74,0.2-1.2c0-0.45-0.08-0.85-0.2-1.2c-0.15-0.34-0.34-0.65-0.55-0.89
	c-0.25-0.23-0.51-0.42-0.8-0.54c-0.31-0.12-0.63-0.19-0.97-0.19h-3.61v5.62H878.41z"/>
<path class="st8" d="M895.13-647.56c0,0.46-0.06,0.89-0.18,1.28c-0.14,0.4-0.32,0.75-0.54,1.06c-0.23,0.31-0.49,0.57-0.79,0.79
	c-0.31,0.23-0.65,0.4-0.99,0.49l2.78,4.62h-1.2c-0.46-0.74-0.92-1.48-1.36-2.23c-0.45-0.74-0.89-1.48-1.36-2.24h-3.59v4.47h-1.09
	v-12.04h4.67c0.49,0,0.96,0.09,1.4,0.26c0.43,0.19,0.83,0.43,1.17,0.76c0.32,0.34,0.59,0.72,0.79,1.19
	C895.02-648.67,895.13-648.15,895.13-647.56 M891.48-644.76c0.34,0,0.66-0.06,0.99-0.18c0.31-0.12,0.57-0.29,0.82-0.54
	c0.21-0.23,0.4-0.52,0.55-0.88c0.12-0.34,0.2-0.74,0.2-1.2c0-0.45-0.08-0.85-0.2-1.2c-0.15-0.34-0.34-0.65-0.55-0.89
	c-0.25-0.23-0.51-0.42-0.8-0.54c-0.31-0.12-0.63-0.19-0.97-0.19h-3.61v5.62H891.48z"/>
<path class="st8" d="M904.92-639.15c-0.83,0-1.57-0.17-2.25-0.51c-0.69-0.32-1.28-0.77-1.77-1.34c-0.51-0.56-0.89-1.22-1.17-1.97
	c-0.28-0.74-0.42-1.51-0.42-2.34c0-0.79,0.12-1.56,0.4-2.3c0.26-0.72,0.65-1.37,1.14-1.96c0.49-0.56,1.08-1.02,1.77-1.36
	c0.68-0.34,1.45-0.51,2.3-0.51c0.8,0,1.54,0.17,2.23,0.49c0.68,0.34,1.26,0.77,1.77,1.33c0.49,0.57,0.89,1.22,1.19,1.96
	c0.28,0.74,0.42,1.53,0.42,2.34c0,0.79-0.14,1.54-0.4,2.28c-0.28,0.74-0.66,1.4-1.15,1.97c-0.49,0.59-1.1,1.05-1.77,1.39
	C906.51-639.32,905.75-639.15,904.92-639.15 M904.92-650.47c-0.62,0-1.2,0.14-1.76,0.4c-0.55,0.28-1.05,0.65-1.45,1.11
	c-0.43,0.48-0.75,1.03-0.99,1.65c-0.25,0.63-0.37,1.29-0.37,2c0,0.71,0.12,1.39,0.37,2c0.23,0.65,0.55,1.19,0.99,1.65
	c0.4,0.48,0.89,0.85,1.45,1.12c0.55,0.28,1.14,0.42,1.76,0.42c0.62,0,1.19-0.14,1.74-0.42c0.54-0.28,1.02-0.65,1.45-1.12
	c0.4-0.46,0.74-1,0.99-1.65c0.23-0.62,0.35-1.29,0.35-2c0-0.71-0.12-1.37-0.35-2c-0.25-0.62-0.59-1.17-0.99-1.65
	c-0.43-0.46-0.91-0.83-1.45-1.11C906.11-650.34,905.54-650.47,904.92-650.47"/>
<polygon class="st8" points="924.06,-639.15 920.4,-646.84 916.74,-639.15 914.46,-651.35 915.54,-651.35 917.19,-642.15 
	920.4,-649.21 923.59,-642.15 925.3,-651.35 926.36,-651.35 "/>
<polygon class="st8" points="948.3,-650.4 941.44,-650.4 941.44,-645.84 947.79,-645.84 947.79,-644.88 941.44,-644.88 
	941.44,-640.27 948.3,-640.27 948.3,-639.3 940.34,-639.3 940.34,-651.35 948.3,-651.35 "/>
<polygon class="st8" points="960.67,-639.32 953.11,-639.32 953.11,-651.35 954.2,-651.35 954.2,-640.27 960.67,-640.27 "/>
<polygon class="st8" points="973.38,-650.4 966.52,-650.4 966.52,-645.84 972.87,-645.84 972.87,-644.88 966.52,-644.88 
	966.52,-640.27 973.38,-640.27 973.38,-639.3 965.42,-639.3 965.42,-651.35 973.38,-651.35 "/>
<polygon class="st8" points="988.56,-651.35 989.1,-639.3 987.99,-639.3 987.65,-649.04 983.64,-641.27 979.6,-649.06 
	979.28,-639.3 978.17,-639.3 978.71,-651.35 979.42,-651.35 983.64,-643.42 987.82,-651.35 "/>
<polygon class="st8" points="1001.82,-650.4 994.96,-650.4 994.96,-645.84 1001.31,-645.84 1001.31,-644.88 994.96,-644.88 
	994.96,-640.27 1001.82,-640.27 1001.82,-639.3 993.86,-639.3 993.86,-651.35 1001.82,-651.35 "/>
<path class="st8" d="M1014.59-639.32c-1.16-1.65-2.3-3.3-3.44-4.95c-1.14-1.63-2.3-3.28-3.44-4.95v9.9h-1.09v-12.04h0.89
	c1.14,1.66,2.3,3.33,3.44,4.96c1.12,1.66,2.27,3.31,3.42,4.98v-9.94h1.09v12.04H1014.59z"/>
<polygon class="st8" points="1029.04,-651.35 1029.04,-650.4 1025.09,-650.4 1025.09,-639.3 1023.98,-639.3 1023.98,-650.4 
	1020.02,-650.4 1020.02,-651.35 "/>
<path class="st8" d="M1037.58-651.43c0.34,0,0.68,0.05,1.02,0.11c0.34,0.08,0.66,0.18,0.99,0.32c0.31,0.15,0.59,0.32,0.86,0.54
	c0.25,0.21,0.48,0.48,0.66,0.75l-0.79,0.63c-0.15-0.2-0.34-0.38-0.54-0.57c-0.22-0.15-0.45-0.31-0.69-0.43
	c-0.25-0.12-0.51-0.21-0.77-0.29c-0.28-0.06-0.55-0.09-0.8-0.09c-0.28,0-0.57,0.05-0.85,0.14c-0.29,0.09-0.55,0.23-0.77,0.38
	c-0.23,0.19-0.42,0.38-0.55,0.62c-0.15,0.25-0.22,0.53-0.22,0.83c0,0.38,0.05,0.71,0.17,0.97c0.11,0.28,0.28,0.51,0.49,0.69
	c0.2,0.18,0.45,0.34,0.74,0.45c0.28,0.12,0.6,0.2,0.96,0.26c0.52,0.09,1.05,0.23,1.56,0.42c0.49,0.22,0.94,0.48,1.34,0.79
	c0.37,0.34,0.68,0.71,0.89,1.14c0.2,0.45,0.28,0.94,0.25,1.5c-0.05,0.48-0.18,0.91-0.43,1.28c-0.26,0.4-0.59,0.72-0.96,0.99
	c-0.4,0.28-0.83,0.49-1.29,0.63c-0.49,0.15-0.99,0.23-1.48,0.23c-0.37,0-0.75-0.03-1.12-0.12c-0.4-0.08-0.77-0.2-1.11-0.37
	c-0.37-0.15-0.69-0.37-1-0.62c-0.31-0.23-0.57-0.51-0.79-0.83l0.8-0.66c0.15,0.26,0.36,0.49,0.6,0.68c0.25,0.22,0.51,0.39,0.8,0.51
	c0.28,0.16,0.58,0.26,0.91,0.32c0.31,0.08,0.62,0.11,0.92,0.11c0.32,0,0.66-0.05,1.02-0.14c0.34-0.09,0.65-0.23,0.94-0.42
	c0.28-0.18,0.52-0.42,0.72-0.69c0.19-0.26,0.31-0.58,0.36-0.96c0.03-0.37-0.05-0.72-0.2-1.05c-0.18-0.31-0.4-0.57-0.68-0.82
	c-0.29-0.23-0.62-0.43-0.97-0.58c-0.37-0.16-0.72-0.26-1.06-0.32c-0.53-0.09-0.99-0.2-1.4-0.36c-0.43-0.14-0.8-0.34-1.11-0.6
	c-0.32-0.25-0.57-0.59-0.74-0.99c-0.19-0.4-0.26-0.89-0.26-1.48c0-0.45,0.09-0.85,0.31-1.22c0.19-0.35,0.46-0.66,0.8-0.91
	c0.32-0.25,0.71-0.43,1.14-0.57C1036.67-651.35,1037.12-651.43,1037.58-651.43"/>
<rect x="821.5" y="-663.61" class="st9" width="254.25" height="34.92"/>
</svg>
