<?xml version="1.0" encoding="utf-8"?>
<!-- Generator: Adobe Illustrator 26.0.3, SVG Export Plug-In . SVG Version: 6.00 Build 0)  -->
<svg version="1.1" id="Layer_1" xmlns="http://www.w3.org/2000/svg" xmlns:xlink="http://www.w3.org/1999/xlink" x="0px" y="0px"
	 viewBox="0 0 32 32" style="enable-background:new 0 0 32 32;" xml:space="preserve">
<style type="text/css">
	.st0{fill:#FFFFFF;}
	.st1{fill:#3E3A39;}
	.st2{fill:#FABE00;}
	.st3{fill:#EFEFEF;}
	.st4{fill:#DCDDDD;}
	.st5{fill:#C9CACA;}
	.st6{fill:#B5B5B6;}
	.st7{fill:#9FA0A0;}
	.st8{fill:#898989;}
	.st9{fill:#727171;}
	.st10{fill:#595757;}
	.st11{fill:#F39800;}
	.st12{fill:#FFE100;}
	.st13{fill:none;}
</style>
<rect x="333.24" y="-346.76" class="st0" width="595.28" height="841.89"/>
<g>
	<g>
		<path class="st1" d="M291.14-244.52c-5.6-3.55-12.84-3.17-18.03,0.96c-5.2,4.12-7.21,11.08-5.03,17.34
			c2.18,6.26,8.09,10.46,14.72,10.46c5.04,0,9.92-2.32,13.18-6.12c-2.61-0.95-5.23-1.9-7.84-2.85c-1.63,1.32-3.24,1.89-5.34,1.89
			c-3.08,0-5.42-2.29-6.44-4.96c7.21,0,14.42,0,21.62,0C299.49-234.27,296.74-240.97,291.14-244.52z M276.36-234.89
			c2.53-6.61,10.36-6.61,12.88,0C284.95-234.89,280.65-234.89,276.36-234.89z"/>
		<path class="st1" d="M224.69-246.94v-8.5h-8.5v31.18l8.5,8.5h7.09c8.61,0,15.59-6.98,15.59-15.59s-6.98-15.59-15.59-15.59H224.69z
			 M231.78-238.44c3.91,0,7.09,3.17,7.09,7.09c0,3.91-3.17,7.09-7.09,7.09h-7.09v-14.18H231.78z"/>
		<rect x="253.04" y="-255.45" class="st1" width="8.5" height="39.69"/>
		<g>
			<polygon class="st1" points="197.76,-255.44 189.26,-246.94 189.26,-215.76 197.76,-215.76 197.76,-246.94 211.93,-246.94 
				211.93,-255.45 			"/>
			<polygon class="st1" points="175.08,-255.44 175.08,-246.94 185.25,-246.94 193.75,-255.44 			"/>
		</g>
	</g>
	<g>
		<path class="st2" d="M143.46-223.07c-9.33,0-16.9-7.57-16.9-16.9c0-7.54,4.95-13.93,11.77-16.1c-5.58-1.74-12.05-0.7-16.93,4.19
			c-10.64,10.64-3.1,28.83,11.94,28.83c0,3.92-1.03,7-3.38,10.13c5.57-1.8,10.58-5.46,14.22-10.16
			C143.94-223.08,143.7-223.07,143.46-223.07z"/>
		<path class="st2" d="M134.92-251.88c-10.64,10.64-3.1,28.83,11.94,28.83c0,3.92-1.03,7-3.38,10.13
			c11.28-3.64,20.26-14.92,20.26-27.02C163.74-254.99,145.56-262.52,134.92-251.88z"/>
	</g>
</g>
<rect x="630.88" y="-346.76" class="st1" width="297.64" height="311.81"/>
<rect x="928.51" y="-346.76" class="st3" width="297.64" height="84.19"/>
<rect x="928.51" y="-262.57" class="st4" width="297.64" height="84.19"/>
<rect x="928.51" y="-178.38" class="st5" width="297.64" height="84.19"/>
<rect x="928.51" y="-94.19" class="st6" width="297.64" height="84.19"/>
<rect x="928.51" y="-10" class="st7" width="297.64" height="84.19"/>
<rect x="928.51" y="74.18" class="st8" width="297.64" height="84.19"/>
<rect x="928.51" y="158.37" class="st9" width="297.64" height="84.19"/>
<rect x="928.51" y="242.56" class="st10" width="297.64" height="84.19"/>
<rect x="928.51" y="326.75" class="st1" width="297.64" height="84.19"/>
<rect x="928.51" y="410.94" width="297.64" height="84.19"/>
<g>
	<g>
		<path class="st0" d="M870.52-299.69c-5.6-3.55-12.84-3.16-18.03,0.96c-5.2,4.12-7.21,11.08-5.03,17.34
			c2.18,6.26,8.09,10.46,14.72,10.46c5.04,0,9.92-2.32,13.18-6.12c-2.61-0.95-5.23-1.9-7.84-2.85c-1.63,1.32-3.24,1.89-5.34,1.89
			c-3.08,0-5.42-2.29-6.44-4.96c7.21,0,14.42,0,21.62,0C878.87-289.44,876.12-296.15,870.52-299.69z M855.73-290.07
			c2.53-6.61,10.36-6.61,12.88,0C864.32-290.07,860.03-290.07,855.73-290.07z"/>
		<path class="st0" d="M804.07-302.11v-8.5h-8.5v31.18l8.5,8.5h7.09c8.61,0,15.59-6.98,15.59-15.59c0-8.61-6.98-15.59-15.59-15.59
			H804.07z M811.15-293.61c3.91,0,7.09,3.17,7.09,7.09c0,3.91-3.17,7.09-7.09,7.09h-7.09v-14.18H811.15z"/>
		<rect x="832.41" y="-310.62" class="st0" width="8.5" height="39.69"/>
		<g>
			<polygon class="st0" points="777.14,-310.62 768.63,-302.11 768.63,-270.93 777.14,-270.93 777.14,-302.11 791.31,-302.11 
				791.31,-310.62 			"/>
			<polygon class="st0" points="754.46,-310.62 754.46,-302.11 764.62,-302.11 773.13,-310.62 			"/>
		</g>
	</g>
	<g>
		<path class="st2" d="M722.83-278.24c-9.33,0-16.9-7.57-16.9-16.9c0-7.54,4.95-13.93,11.77-16.1c-5.58-1.74-12.05-0.7-16.93,4.19
			c-10.64,10.64-3.1,28.83,11.94,28.83c0,3.92-1.03,7-3.38,10.13c5.57-1.8,10.58-5.46,14.22-10.16
			C723.32-278.25,723.08-278.24,722.83-278.24z"/>
		<path class="st2" d="M714.3-307.06c-10.64,10.64-3.1,28.83,11.94,28.83c0,3.92-1.03,7-3.38,10.13
			c11.28-3.64,20.26-14.92,20.26-27.02C743.12-310.16,724.93-317.69,714.3-307.06z"/>
	</g>
</g>
<g>
	<g>
		<path d="M1142.16-312.12c-4.34-2.75-9.94-2.45-13.96,0.74s-5.59,8.58-3.9,13.43c1.69,4.85,6.26,8.1,11.4,8.1
			c3.9,0,7.68-1.79,10.21-4.74c-2.02-0.74-4.05-1.47-6.07-2.21c-1.26,1.02-2.51,1.46-4.14,1.46c-2.39,0-4.2-1.77-4.99-3.84
			c5.58,0,11.16,0,16.74,0C1148.62-304.18,1146.5-309.37,1142.16-312.12z M1130.72-304.67c1.96-5.12,8.02-5.12,9.97,0
			C1137.36-304.67,1134.04-304.67,1130.72-304.67z"/>
		<path d="M1090.71-313.99v-6.58h-6.58v24.14l6.58,6.58h5.49c6.67,0,12.07-5.4,12.07-12.07c0-6.67-5.4-12.07-12.07-12.07
			C1096.2-313.99,1090.71-313.99,1090.71-313.99z M1096.2-307.41c3.03,0,5.49,2.46,5.49,5.49c0,3.03-2.46,5.49-5.49,5.49h-5.49
			v-10.98H1096.2z"/>
		<rect x="1112.66" y="-320.58" width="6.58" height="30.72"/>
		<g>
			<polygon points="1069.87,-320.58 1063.28,-313.99 1063.28,-289.85 1069.87,-289.85 1069.87,-313.99 1080.84,-313.99 
				1080.84,-320.58 			"/>
			<polygon points="1052.31,-320.58 1052.31,-313.99 1060.18,-313.99 1066.76,-320.58 			"/>
		</g>
	</g>
	<g>
		<path d="M1027.82-295.51c-7.22,0-13.08-5.86-13.08-13.08c0-5.84,3.83-10.79,9.11-12.47c-4.32-1.35-9.33-0.54-13.11,3.24
			c-8.24,8.24-2.4,22.32,9.24,22.32c0,3.03-0.8,5.42-2.61,7.84c4.31-1.39,8.19-4.23,11.01-7.87
			C1028.2-295.52,1028.01-295.51,1027.82-295.51z"/>
		<path d="M1021.21-317.82c-8.24,8.24-2.4,22.32,9.24,22.32c0,3.03-0.8,5.42-2.61,7.84c8.74-2.82,15.69-11.55,15.69-20.92
			C1043.53-320.22,1029.45-326.05,1021.21-317.82z"/>
	</g>
</g>
<g>
	<g>
		<path d="M1142.16-227.93c-4.34-2.75-9.94-2.45-13.96,0.74s-5.59,8.58-3.9,13.43c1.69,4.85,6.26,8.1,11.4,8.1
			c3.9,0,7.68-1.79,10.21-4.74c-2.02-0.74-4.05-1.47-6.07-2.21c-1.26,1.02-2.51,1.46-4.14,1.46c-2.39,0-4.2-1.77-4.99-3.84
			c5.58,0,11.16,0,16.74,0C1148.62-219.99,1146.5-225.18,1142.16-227.93z M1130.72-220.48c1.96-5.12,8.02-5.12,9.97,0
			C1137.36-220.48,1134.04-220.48,1130.72-220.48z"/>
		<path d="M1090.71-229.8v-6.58h-6.58v24.14l6.58,6.58h5.49c6.67,0,12.07-5.4,12.07-12.07c0-6.67-5.4-12.07-12.07-12.07H1090.71z
			 M1096.2-223.22c3.03,0,5.49,2.46,5.49,5.49s-2.46,5.49-5.49,5.49h-5.49v-10.97L1096.2-223.22L1096.2-223.22z"/>
		<rect x="1112.66" y="-236.39" width="6.58" height="30.72"/>
		<g>
			<polygon points="1069.87,-236.39 1063.28,-229.8 1063.28,-205.66 1069.87,-205.66 1069.87,-229.8 1080.84,-229.8 
				1080.84,-236.39 			"/>
			<polygon points="1052.31,-236.39 1052.31,-229.8 1060.18,-229.8 1066.76,-236.39 			"/>
		</g>
	</g>
	<g>
		<path d="M1027.82-211.32c-7.22,0-13.08-5.86-13.08-13.08c0-5.84,3.83-10.79,9.11-12.47c-4.32-1.35-9.33-0.54-13.11,3.24
			c-8.24,8.24-2.4,22.32,9.24,22.32c0,3.03-0.8,5.42-2.61,7.84c4.31-1.39,8.19-4.23,11.01-7.87
			C1028.2-211.33,1028.01-211.32,1027.82-211.32z"/>
		<path d="M1021.21-233.63c-8.24,8.24-2.4,22.32,9.24,22.32c0,3.03-0.8,5.42-2.61,7.84c8.74-2.82,15.69-11.55,15.69-20.92
			C1043.53-236.03,1029.45-241.87,1021.21-233.63z"/>
	</g>
</g>
<g>
	<g>
		<path d="M1142.16-143.74c-4.34-2.75-9.94-2.45-13.96,0.74s-5.59,8.58-3.9,13.43c1.69,4.85,6.26,8.1,11.4,8.1
			c3.9,0,7.68-1.79,10.21-4.74c-2.02-0.74-4.05-1.47-6.07-2.21c-1.26,1.02-2.51,1.46-4.14,1.46c-2.39,0-4.2-1.77-4.99-3.84
			c5.58,0,11.16,0,16.74,0C1148.62-135.8,1146.5-140.99,1142.16-143.74z M1130.72-136.29c1.96-5.12,8.02-5.12,9.97,0
			C1137.36-136.29,1134.04-136.29,1130.72-136.29z"/>
		<path d="M1090.71-145.61v-6.58h-6.58v24.14l6.58,6.58h5.49c6.67,0,12.07-5.4,12.07-12.07c0-6.67-5.4-12.07-12.07-12.07
			L1090.71-145.61L1090.71-145.61z M1096.2-139.03c3.03,0,5.49,2.46,5.49,5.49s-2.46,5.49-5.49,5.49h-5.49v-10.97h5.49V-139.03z"/>
		<rect x="1112.66" y="-152.2" width="6.58" height="30.72"/>
		<g>
			<polygon points="1069.87,-152.2 1063.28,-145.61 1063.28,-121.47 1069.87,-121.47 1069.87,-145.61 1080.84,-145.61 
				1080.84,-152.2 			"/>
			<polygon points="1052.31,-152.2 1052.31,-145.61 1060.18,-145.61 1066.76,-152.2 			"/>
		</g>
	</g>
	<g>
		<path d="M1027.82-127.13c-7.22,0-13.08-5.86-13.08-13.08c0-5.84,3.83-10.79,9.11-12.47c-4.32-1.35-9.33-0.54-13.11,3.24
			c-8.24,8.24-2.4,22.32,9.24,22.32c0,3.03-0.8,5.42-2.61,7.84c4.31-1.39,8.19-4.23,11.01-7.87
			C1028.2-127.14,1028.01-127.13,1027.82-127.13z"/>
		<path d="M1021.21-149.44c-8.24,8.24-2.4,22.32,9.24,22.32c0,3.03-0.8,5.42-2.61,7.84c8.74-2.82,15.69-11.55,15.69-20.92
			C1043.53-151.84,1029.45-157.68,1021.21-149.44z"/>
	</g>
</g>
<g>
	<g>
		<path d="M1142.16-59.55c-4.34-2.75-9.94-2.45-13.96,0.74s-5.59,8.58-3.9,13.43s6.26,8.1,11.4,8.1c3.9,0,7.68-1.79,10.21-4.74
			c-2.02-0.74-4.05-1.47-6.07-2.21c-1.26,1.02-2.51,1.46-4.14,1.46c-2.39,0-4.2-1.77-4.99-3.84c5.58,0,11.16,0,16.74,0
			C1148.62-51.61,1146.5-56.8,1142.16-59.55z M1130.72-52.1c1.96-5.12,8.02-5.12,9.97,0C1137.36-52.1,1134.04-52.1,1130.72-52.1z"/>
		<path d="M1090.71-61.43v-6.58h-6.58v24.14l6.58,6.58h5.49c6.67,0,12.07-5.4,12.07-12.07s-5.4-12.07-12.07-12.07L1090.71-61.43
			L1090.71-61.43z M1096.2-54.84c3.03,0,5.49,2.46,5.49,5.49s-2.46,5.49-5.49,5.49h-5.49v-10.97L1096.2-54.84L1096.2-54.84z"/>
		<rect x="1112.66" y="-68.01" width="6.58" height="30.72"/>
		<g>
			<polygon points="1069.87,-68.01 1063.28,-61.43 1063.28,-37.29 1069.87,-37.29 1069.87,-61.43 1080.84,-61.43 1080.84,-68.01 			
				"/>
			<polygon points="1052.31,-68.01 1052.31,-61.43 1060.18,-61.43 1066.76,-68.01 			"/>
		</g>
	</g>
	<g>
		<path d="M1027.82-42.94c-7.22,0-13.08-5.86-13.08-13.08c0-5.84,3.83-10.79,9.11-12.47c-4.32-1.35-9.33-0.54-13.11,3.24
			c-8.24,8.24-2.4,22.32,9.24,22.32c0,3.03-0.8,5.42-2.61,7.84c4.31-1.39,8.19-4.23,11.01-7.87
			C1028.2-42.95,1028.01-42.94,1027.82-42.94z"/>
		<path d="M1021.21-65.25c-8.24,8.24-2.4,22.32,9.24,22.32c0,3.03-0.8,5.42-2.61,7.84c8.74-2.82,15.69-11.55,15.69-20.92
			C1043.53-67.65,1029.45-73.49,1021.21-65.25z"/>
	</g>
</g>
<g>
	<g>
		<path class="st0" d="M1142.16,24.64c-4.34-2.75-9.94-2.45-13.96,0.74s-5.59,8.58-3.9,13.43s6.26,8.1,11.4,8.1
			c3.9,0,7.68-1.79,10.21-4.74c-2.02-0.74-4.05-1.47-6.07-2.21c-1.26,1.02-2.51,1.46-4.14,1.46c-2.39,0-4.2-1.77-4.99-3.84
			c5.58,0,11.16,0,16.74,0C1148.62,32.58,1146.5,27.38,1142.16,24.64z M1130.72,32.09c1.96-5.12,8.02-5.12,9.97,0
			C1137.36,32.09,1134.04,32.09,1130.72,32.09z"/>
		<path class="st0" d="M1090.71,22.76v-6.58h-6.58v24.14l6.58,6.58h5.49c6.67,0,12.07-5.4,12.07-12.07s-5.4-12.07-12.07-12.07
			L1090.71,22.76L1090.71,22.76z M1096.2,29.35c3.03,0,5.49,2.46,5.49,5.49s-2.46,5.49-5.49,5.49h-5.49V29.36L1096.2,29.35
			L1096.2,29.35z"/>
		<rect x="1112.66" y="16.18" class="st0" width="6.58" height="30.72"/>
		<g>
			<polygon class="st0" points="1069.87,16.18 1063.28,22.76 1063.28,46.9 1069.87,46.9 1069.87,22.76 1080.84,22.76 1080.84,16.18 
							"/>
			<polygon class="st0" points="1052.31,16.18 1052.31,22.76 1060.18,22.76 1066.76,16.18 			"/>
		</g>
	</g>
	<g>
		<path class="st0" d="M1027.82,41.24c-7.22,0-13.08-5.86-13.08-13.08c0-5.84,3.83-10.79,9.11-12.47
			c-4.32-1.35-9.33-0.54-13.11,3.24c-8.24,8.24-2.4,22.32,9.24,22.32c0,3.03-0.8,5.42-2.61,7.84c4.31-1.39,8.19-4.23,11.01-7.87
			C1028.2,41.24,1028.01,41.24,1027.82,41.24z"/>
		<path class="st0" d="M1021.21,18.94c-8.24,8.24-2.4,22.32,9.24,22.32c0,3.03-0.8,5.42-2.61,7.84
			c8.74-2.82,15.69-11.55,15.69-20.92C1043.53,16.53,1029.45,10.7,1021.21,18.94z"/>
	</g>
</g>
<g>
	<g>
		<path class="st0" d="M1142.16,108.83c-4.34-2.75-9.94-2.45-13.96,0.74s-5.59,8.58-3.9,13.43s6.26,8.1,11.4,8.1
			c3.9,0,7.68-1.79,10.21-4.74c-2.02-0.74-4.05-1.47-6.07-2.21c-1.26,1.02-2.51,1.46-4.14,1.46c-2.39,0-4.2-1.77-4.99-3.84
			c5.58,0,11.16,0,16.74,0C1148.62,116.76,1146.5,111.57,1142.16,108.83z M1130.72,116.28c1.96-5.12,8.02-5.12,9.97,0
			C1137.36,116.28,1134.04,116.28,1130.72,116.28z"/>
		<path class="st0" d="M1090.71,106.95v-6.58h-6.58v24.14l6.58,6.58h5.49c6.67,0,12.07-5.4,12.07-12.07s-5.4-12.07-12.07-12.07
			L1090.71,106.95L1090.71,106.95z M1096.2,113.54c3.03,0,5.49,2.46,5.49,5.49s-2.46,5.49-5.49,5.49h-5.49v-10.97L1096.2,113.54
			L1096.2,113.54z"/>
		<rect x="1112.66" y="100.37" class="st0" width="6.58" height="30.72"/>
		<g>
			<polygon class="st0" points="1069.87,100.37 1063.28,106.95 1063.28,131.09 1069.87,131.09 1069.87,106.95 1080.84,106.95 
				1080.84,100.37 			"/>
			<polygon class="st0" points="1052.31,100.37 1052.31,106.95 1060.18,106.95 1066.76,100.37 			"/>
		</g>
	</g>
	<g>
		<path class="st0" d="M1027.82,125.43c-7.22,0-13.08-5.86-13.08-13.08c0-5.84,3.83-10.79,9.11-12.47
			c-4.32-1.35-9.33-0.54-13.11,3.24c-8.24,8.24-2.4,22.32,9.24,22.32c0,3.03-0.8,5.42-2.61,7.84c4.31-1.39,8.19-4.23,11.01-7.87
			C1028.2,125.43,1028.01,125.43,1027.82,125.43z"/>
		<path class="st0" d="M1021.21,103.13c-8.24,8.24-2.4,22.32,9.24,22.32c0,3.03-0.8,5.42-2.61,7.84
			c8.74-2.82,15.69-11.55,15.69-20.92C1043.53,100.72,1029.45,94.89,1021.21,103.13z"/>
	</g>
</g>
<g>
	<g>
		<path class="st0" d="M1142.16,193.01c-4.34-2.75-9.94-2.45-13.96,0.74s-5.59,8.58-3.9,13.43s6.26,8.1,11.4,8.1
			c3.9,0,7.68-1.79,10.21-4.74c-2.02-0.74-4.05-1.47-6.07-2.21c-1.26,1.02-2.51,1.46-4.14,1.46c-2.39,0-4.2-1.77-4.99-3.84
			c5.58,0,11.16,0,16.74,0C1148.62,200.95,1146.5,195.76,1142.16,193.01z M1130.72,200.47c1.96-5.12,8.02-5.12,9.97,0
			C1137.36,200.47,1134.04,200.47,1130.72,200.47z"/>
		<path class="st0" d="M1090.71,191.14v-6.58h-6.58v24.14l6.58,6.58h5.49c6.67,0,12.07-5.4,12.07-12.07s-5.4-12.07-12.07-12.07
			H1090.71z M1096.2,197.72c3.03,0,5.49,2.46,5.49,5.49c0,3.03-2.46,5.49-5.49,5.49h-5.49v-10.97h5.49V197.72z"/>
		<rect x="1112.66" y="184.56" class="st0" width="6.58" height="30.72"/>
		<g>
			<polygon class="st0" points="1069.87,184.56 1063.28,191.14 1063.28,215.28 1069.87,215.28 1069.87,191.14 1080.84,191.14 
				1080.84,184.56 			"/>
			<polygon class="st0" points="1052.31,184.56 1052.31,191.14 1060.18,191.14 1066.76,184.56 			"/>
		</g>
	</g>
	<g>
		<path class="st0" d="M1027.82,209.62c-7.22,0-13.08-5.86-13.08-13.08c0-5.84,3.83-10.79,9.11-12.47
			c-4.32-1.35-9.33-0.54-13.11,3.24c-8.24,8.24-2.4,22.32,9.24,22.32c0,3.03-0.8,5.42-2.61,7.84c4.31-1.39,8.19-4.23,11.01-7.87
			C1028.2,209.62,1028.01,209.62,1027.82,209.62z"/>
		<path class="st0" d="M1021.21,187.31c-8.24,8.24-2.4,22.32,9.24,22.32c0,3.03-0.8,5.42-2.61,7.84
			c8.74-2.82,15.69-11.55,15.69-20.92C1043.53,184.91,1029.45,179.08,1021.21,187.31z"/>
	</g>
</g>
<g>
	<g>
		<path class="st0" d="M1142.16,277.2c-4.34-2.75-9.94-2.45-13.96,0.74s-5.59,8.58-3.9,13.43s6.26,8.1,11.4,8.1
			c3.9,0,7.68-1.79,10.21-4.74c-2.02-0.74-4.05-1.47-6.07-2.21c-1.26,1.02-2.51,1.46-4.14,1.46c-2.39,0-4.2-1.77-4.99-3.84
			c5.58,0,11.16,0,16.74,0C1148.62,285.14,1146.5,279.95,1142.16,277.2z M1130.72,284.66c1.96-5.12,8.02-5.12,9.97,0
			C1137.36,284.66,1134.04,284.66,1130.72,284.66z"/>
		<path class="st0" d="M1090.71,275.33v-6.58h-6.58v24.14l6.58,6.58h5.49c6.67,0,12.07-5.4,12.07-12.07s-5.4-12.07-12.07-12.07
			H1090.71z M1096.2,281.91c3.03,0,5.49,2.46,5.49,5.49c0,3.03-2.46,5.49-5.49,5.49h-5.49v-10.97h5.49V281.91z"/>
		<rect x="1112.66" y="268.75" class="st0" width="6.58" height="30.72"/>
		<g>
			<polygon class="st0" points="1069.87,268.75 1063.28,275.33 1063.28,299.47 1069.87,299.47 1069.87,275.33 1080.84,275.33 
				1080.84,268.75 			"/>
			<polygon class="st0" points="1052.31,268.75 1052.31,275.33 1060.18,275.33 1066.76,268.75 			"/>
		</g>
	</g>
	<g>
		<path class="st0" d="M1027.82,293.81c-7.22,0-13.08-5.86-13.08-13.08c0-5.84,3.83-10.79,9.11-12.47
			c-4.32-1.35-9.33-0.54-13.11,3.24c-8.24,8.24-2.4,22.32,9.24,22.32c0,3.03-0.8,5.42-2.61,7.84c4.31-1.39,8.19-4.23,11.01-7.87
			C1028.2,293.81,1028.01,293.81,1027.82,293.81z"/>
		<path class="st0" d="M1021.21,271.5c-8.24,8.24-2.4,22.32,9.24,22.32c0,3.03-0.8,5.42-2.61,7.84
			c8.74-2.82,15.69-11.55,15.69-20.92C1043.53,269.1,1029.45,263.27,1021.21,271.5z"/>
	</g>
</g>
<g>
	<g>
		<path class="st0" d="M1142.16,361.39c-4.34-2.75-9.94-2.45-13.96,0.74s-5.59,8.58-3.9,13.43s6.26,8.1,11.4,8.1
			c3.9,0,7.68-1.79,10.21-4.74c-2.02-0.74-4.05-1.47-6.07-2.21c-1.26,1.02-2.51,1.46-4.14,1.46c-2.39,0-4.2-1.77-4.99-3.84
			c5.58,0,11.16,0,16.74,0C1148.62,369.33,1146.5,364.14,1142.16,361.39z M1130.72,368.85c1.96-5.12,8.02-5.12,9.97,0
			C1137.36,368.85,1134.04,368.85,1130.72,368.85z"/>
		<path class="st0" d="M1090.71,359.52v-6.58h-6.58v24.14l6.58,6.58h5.49c6.67,0,12.07-5.4,12.07-12.07s-5.4-12.07-12.07-12.07
			H1090.71z M1096.2,366.1c3.03,0,5.49,2.46,5.49,5.49c0,3.03-2.46,5.49-5.49,5.49h-5.49V366.1H1096.2z"/>
		<rect x="1112.66" y="352.93" class="st0" width="6.58" height="30.72"/>
		<g>
			<polygon class="st0" points="1069.87,352.94 1063.28,359.52 1063.28,383.66 1069.87,383.66 1069.87,359.52 1080.84,359.52 
				1080.84,352.93 			"/>
			<polygon class="st0" points="1052.31,352.94 1052.31,359.52 1060.18,359.52 1066.76,352.94 			"/>
		</g>
	</g>
	<g>
		<path class="st0" d="M1027.82,378c-7.22,0-13.08-5.86-13.08-13.08c0-5.84,3.83-10.79,9.11-12.47c-4.32-1.35-9.33-0.54-13.11,3.24
			c-8.24,8.24-2.4,22.32,9.24,22.32c0,3.03-0.8,5.42-2.61,7.84c4.31-1.39,8.19-4.23,11.01-7.87
			C1028.2,377.99,1028.01,378,1027.82,378z"/>
		<path class="st0" d="M1021.21,355.69c-8.24,8.24-2.4,22.32,9.24,22.32c0,3.03-0.8,5.42-2.61,7.84
			c8.74-2.82,15.69-11.55,15.69-20.92C1043.53,353.29,1029.45,347.46,1021.21,355.69z"/>
	</g>
</g>
<g>
	<g>
		<path class="st0" d="M1142.16,445.58c-4.34-2.75-9.94-2.45-13.96,0.74s-5.59,8.58-3.9,13.43s6.26,8.1,11.4,8.1
			c3.9,0,7.68-1.79,10.21-4.74c-2.02-0.74-4.05-1.47-6.07-2.21c-1.26,1.02-2.51,1.46-4.14,1.46c-2.39,0-4.2-1.77-4.99-3.84
			c5.58,0,11.16,0,16.74,0C1148.62,453.52,1146.5,448.33,1142.16,445.58z M1130.72,453.03c1.96-5.12,8.02-5.12,9.97,0
			C1137.36,453.03,1134.04,453.03,1130.72,453.03z"/>
		<path class="st0" d="M1090.71,443.71v-6.58h-6.58v24.14l6.58,6.58h5.49c6.67,0,12.07-5.4,12.07-12.07s-5.4-12.07-12.07-12.07
			H1090.71z M1096.2,450.29c3.03,0,5.49,2.46,5.49,5.49c0,3.03-2.46,5.49-5.49,5.49h-5.49V450.3h5.49V450.29z"/>
		<rect x="1112.66" y="437.12" class="st0" width="6.58" height="30.72"/>
		<g>
			<polygon class="st0" points="1069.87,437.12 1063.28,443.71 1063.28,467.85 1069.87,467.85 1069.87,443.71 1080.84,443.71 
				1080.84,437.12 			"/>
			<polygon class="st0" points="1052.31,437.12 1052.31,443.71 1060.18,443.71 1066.76,437.12 			"/>
		</g>
	</g>
	<g>
		<path class="st0" d="M1027.82,462.19c-7.22,0-13.08-5.86-13.08-13.08c0-5.84,3.83-10.79,9.11-12.47
			c-4.32-1.35-9.33-0.54-13.11,3.24c-8.24,8.24-2.4,22.32,9.24,22.32c0,3.03-0.8,5.42-2.61,7.84c4.31-1.39,8.19-4.23,11.01-7.87
			C1028.2,462.18,1028.01,462.19,1027.82,462.19z"/>
		<path class="st0" d="M1021.21,439.88c-8.24,8.24-2.4,22.32,9.24,22.32c0,3.03-0.8,5.42-2.61,7.84
			c8.74-2.82,15.69-11.55,15.69-20.92C1043.53,437.48,1029.45,431.65,1021.21,439.88z"/>
	</g>
</g>
<g>
	<g>
		<path class="st2" d="M503.31,6.15c-30.08,0-74.73,9.26-94.48,32.82c-13.36,15.94-8.9,33.08,12.56,44.18
			c16.4,8.48,37.12,10.87,53.6,10.87c30.08,0,74.73-9.26,94.48-32.82c13.36-15.94,8.9-33.08-12.56-44.18
			C540.5,8.54,519.79,6.15,503.31,6.15z"/>
	</g>
	<g>
		<path class="st1" d="M545.77,41.17c-5.6-3.55-12.84-3.17-18.03,0.96c-5.2,4.12-7.21,11.08-5.03,17.34
			c2.18,6.26,8.09,10.46,14.72,10.46c5.04,0,9.92-2.32,13.18-6.12c-2.61-0.95-5.23-1.9-7.84-2.85c-1.63,1.32-3.24,1.89-5.34,1.89
			c-3.08,0-5.42-2.29-6.44-4.96c7.21,0,14.42,0,21.62,0C554.12,51.43,551.38,44.72,545.77,41.17z M530.99,50.8
			c2.53-6.61,10.36-6.61,12.88,0C539.58,50.8,535.28,50.8,530.99,50.8z"/>
		<path class="st1" d="M479.32,38.75v-8.5h-8.5v31.18l8.5,8.5h7.09c8.61,0,15.59-6.98,15.59-15.59s-6.98-15.59-15.59-15.59H479.32z
			 M486.41,47.26c3.91,0,7.09,3.17,7.09,7.09c0,3.91-3.17,7.09-7.09,7.09h-7.09V47.27L486.41,47.26L486.41,47.26z"/>
		<rect x="507.67" y="30.25" class="st1" width="8.5" height="39.69"/>
		<g>
			<polygon class="st1" points="452.39,30.25 443.89,38.75 443.89,69.93 452.39,69.93 452.39,38.75 466.56,38.75 466.56,30.25 			
				"/>
			<polygon class="st1" points="429.71,30.25 429.71,38.75 439.88,38.75 448.38,30.25 			"/>
		</g>
	</g>
</g>
<g>
	<path class="st1" d="M772.61-0.93c-20.47,0-39.65,2.64-59.02,10.01c-11.49,4.37-21.62,9.53-30.37,18.88
		c-5.58,5.97-9.82,13.39-9.82,22.13c0,8.75,4.24,16.18,9.83,22.14c8.76,9.35,18.9,14.51,30.4,18.88c19.36,7.36,38.53,10,58.98,10
		c20.47,0,39.65-2.64,59.02-10.01c11.49-4.37,21.62-9.53,30.37-18.88c5.59-5.97,9.82-13.39,9.82-22.13c0-8.75-4.24-16.18-9.83-22.14
		c-8.76-9.35-18.9-14.51-30.4-18.88C812.23,1.7,793.06-0.93,772.61-0.93z"/>
	<g>
		<path class="st2" d="M786.77,6.15c-30.08,0-74.73,9.26-94.48,32.82c-13.36,15.94-8.9,33.08,12.56,44.18
			c16.4,8.48,37.12,10.87,53.6,10.87c30.08,0,74.73-9.26,94.48-32.82c13.36-15.94,8.9-33.08-12.56-44.18
			C823.97,8.54,803.25,6.15,786.77,6.15z"/>
	</g>
	<g>
		<path class="st1" d="M829.24,41.17c-5.6-3.55-12.84-3.17-18.03,0.96c-5.2,4.12-7.21,11.08-5.03,17.34s8.09,10.46,14.72,10.46
			c5.04,0,9.92-2.32,13.18-6.12c-2.61-0.95-5.23-1.9-7.84-2.85c-1.63,1.32-3.24,1.89-5.34,1.89c-3.08,0-5.42-2.29-6.44-4.96
			c7.21,0,14.42,0,21.62,0C837.58,51.43,834.84,44.72,829.24,41.17z M814.45,50.8c2.53-6.61,10.36-6.61,12.88,0
			C823.04,50.8,818.75,50.8,814.45,50.8z"/>
		<path class="st1" d="M762.79,38.75v-8.5h-8.5v31.18l8.5,8.5h7.09c8.61,0,15.59-6.98,15.59-15.59s-6.98-15.59-15.59-15.59H762.79z
			 M769.87,47.26c3.91,0,7.09,3.17,7.09,7.09c0,3.91-3.17,7.09-7.09,7.09h-7.09V47.27L769.87,47.26L769.87,47.26z"/>
		<rect x="791.13" y="30.25" class="st1" width="8.5" height="39.69"/>
		<g>
			<polygon class="st1" points="735.86,30.25 727.35,38.75 727.35,69.93 735.86,69.93 735.86,38.75 750.03,38.75 750.03,30.25 			
				"/>
			<polygon class="st1" points="713.18,30.25 713.18,38.75 723.34,38.75 731.85,30.25 			"/>
		</g>
	</g>
</g>
<g>
	<g>
		<path class="st1" d="M503.31,133.71c-30.08,0-74.73,9.26-94.48,32.82c-13.36,15.94-8.9,33.08,12.56,44.18
			c16.4,8.48,37.12,10.87,53.6,10.87c30.08,0,74.73-9.26,94.48-32.82c13.36-15.94,8.9-33.08-12.56-44.18
			C540.5,136.1,519.79,133.71,503.31,133.71z"/>
	</g>
	<g>
		<path class="st2" d="M545.77,168.73c-5.6-3.55-12.84-3.16-18.03,0.96c-5.2,4.12-7.21,11.08-5.03,17.34
			c2.18,6.26,8.09,10.46,14.72,10.46c5.04,0,9.92-2.32,13.18-6.12c-2.61-0.95-5.23-1.9-7.84-2.85c-1.63,1.32-3.24,1.89-5.34,1.89
			c-3.08,0-5.42-2.29-6.44-4.96c7.21,0,14.42,0,21.62,0C554.12,178.99,551.38,172.28,545.77,168.73z M530.99,178.36
			c2.53-6.61,10.36-6.61,12.88,0C539.58,178.36,535.28,178.36,530.99,178.36z"/>
		<path class="st2" d="M479.32,166.31v-8.5h-8.5v31.18l8.5,8.5h7.09c8.61,0,15.59-6.98,15.59-15.59c0-8.61-6.98-15.59-15.59-15.59
			L479.32,166.31L479.32,166.31z M486.41,174.81c3.91,0,7.09,3.17,7.09,7.09c0,3.91-3.17,7.09-7.09,7.09h-7.09v-14.17h7.09V174.81z"
			/>
		<rect x="507.67" y="157.81" class="st2" width="8.5" height="39.69"/>
		<g>
			<polygon class="st2" points="452.39,157.81 443.89,166.31 443.89,197.49 452.39,197.49 452.39,166.31 466.56,166.31 
				466.56,157.81 			"/>
			<polygon class="st2" points="429.71,157.81 429.71,166.31 439.88,166.31 448.38,157.81 			"/>
		</g>
	</g>
</g>
<ellipse transform="matrix(0.0709 -0.9975 0.9975 0.0709 77.9495 722.4457)" class="st2" cx="426.78" cy="319.38" rx="42.52" ry="42.52"/>
<circle class="st11" cx="834.97" cy="319.38" r="42.52"/>
<ellipse transform="matrix(0.7071 -0.7071 0.7071 0.7071 -21.1298 587.7482)" class="st12" cx="698.91" cy="319.38" rx="42.52" ry="42.52"/>
<text transform="matrix(1 0 0 1 405.9655 395.23)" style="font-family:'ArialMT'; font-size:18px;">Main</text>
<text transform="matrix(1 0 0 1 379.9255 419.23)" style="font-family:'ArialMT'; font-size:14px;">C0 M30 Y100 K0</text>
<text transform="matrix(1 0 0 1 386.5955 443.23)" style="font-family:'ArialMT'; font-size:14px;">R251 G186 B0</text>
<text transform="matrix(1 0 0 1 400.8455 467.23)" style="font-family:'ArialMT'; font-size:14px;">#FBBA00</text>
<circle class="st1" cx="562.85" cy="319.38" r="42.52"/>
<text transform="matrix(1 0 0 1 543.0905 395.23)" style="font-family:'ArialMT'; font-size:18px;">Sub1</text>
<text transform="matrix(1 0 0 1 523.1705 419.23)" style="font-family:'ArialMT'; font-size:14px;">C0 M0 Y0 K90</text>
<text transform="matrix(1 0 0 1 526.2505 443.23)" style="font-family:'ArialMT'; font-size:14px;">R60 G60 B60</text>
<text transform="matrix(1 0 0 1 536.4105 467.23)" style="font-family:'ArialMT'; font-size:14px;">#3C3C3C</text>
<text transform="matrix(1 0 0 1 815.2163 395.23)" style="font-family:'ArialMT'; font-size:18px;">Sub3</text>
<text transform="matrix(1 0 0 1 788.1165 419.23)" style="font-family:'ArialMT'; font-size:14px;">C0 M50 Y100 K0</text>
<text transform="matrix(1 0 0 1 794.7864 443.23)" style="font-family:'ArialMT'; font-size:14px;">R243 G146 B0</text>
<text transform="matrix(1 0 0 1 810.1263 467.23)" style="font-family:'ArialMT'; font-size:14px;">#F39200</text>
<text transform="matrix(1 0 0 1 679.1535 395.23)" style="font-family:'ArialMT'; font-size:18px;">Sub2</text>
<text transform="matrix(1 0 0 1 652.0535 419.23)" style="font-family:'ArialMT'; font-size:14px;">C0 M10 Y100 K0</text>
<text transform="matrix(1 0 0 1 658.7235 443.23)" style="font-family:'ArialMT'; font-size:14px;">R255 G221 B0</text>
<text transform="matrix(1 0 0 1 672.1035 467.23)" style="font-family:'ArialMT'; font-size:14px;">#FFDD00</text>
<g>
	<g>
		<ellipse class="st1" cx="772.63" cy="177.67" rx="36.85" ry="36.85"/>
		
			<ellipse transform="matrix(0.7485 -0.6632 0.6632 0.7485 76.5429 557.0765)" class="st2" cx="772.64" cy="177.63" rx="34.39" ry="27"/>
	</g>
	<g>
		<polygon class="st1" points="754.18,170.56 754.18,162.06 791.03,162.06 791.03,170.56 776.86,170.56 776.86,201.74 
			768.36,201.74 768.36,170.56 		"/>
	</g>
</g>
<g>
	<g>
		<ellipse class="st1" cx="16" cy="16.08" rx="15.45" ry="15.45"/>
		
			<ellipse transform="matrix(0.7485 -0.6632 0.6632 0.7485 -6.6243 14.6574)" class="st2" cx="16.01" cy="16.06" rx="14.42" ry="11.32"/>
	</g>
	<g>
		<polygon class="st1" points="8.27,13.09 8.27,9.53 23.72,9.53 23.72,13.09 17.78,13.09 17.78,26.17 14.21,26.17 14.21,13.09 		"/>
	</g>
</g>
<text transform="matrix(1 0 0 1 943.2322 14.1179)" class="st0" style="font-family:'ArialMT'; font-size:14px;">50%</text>
<text transform="matrix(1 0 0 1 943.2322 -70.071)" style="font-family:'ArialMT'; font-size:14px;">40%</text>
<text transform="matrix(1 0 0 1 943.2322 -154.26)" style="font-family:'ArialMT'; font-size:14px;">30%</text>
<text transform="matrix(1 0 0 1 943.2322 -238.449)" style="font-family:'ArialMT'; font-size:14px;">20%</text>
<text transform="matrix(1 0 0 1 943.2322 -322.6379)" style="font-family:'ArialMT'; font-size:14px;">10%</text>
<text transform="matrix(1 0 0 1 943.2322 98.307)" class="st0" style="font-family:'ArialMT'; font-size:14px;">60%</text>
<text transform="matrix(1 0 0 1 943.2322 182.496)" class="st0" style="font-family:'ArialMT'; font-size:14px;">70%</text>
<text transform="matrix(1 0 0 1 943.2322 266.6851)" class="st0" style="font-family:'ArialMT'; font-size:14px;">80%</text>
<text transform="matrix(1 0 0 1 943.2322 350.874)" class="st0" style="font-family:'ArialMT'; font-size:14px;">90%</text>
<text transform="matrix(1 0 0 1 943.2322 435.063)" class="st0" style="font-family:'ArialMT'; font-size:14px;">100%</text>
<g>
	<g>
		<path class="st2" d="M494.8-137.26c-15.66,0-28.35-12.69-28.35-28.35c0-12.66,8.3-23.37,19.75-27.01
			c-9.35-2.92-20.21-1.17-28.4,7.02c-17.85,17.85-5.21,48.36,20.03,48.36c0,6.57-1.72,11.74-5.67,17
			c9.35-3.02,17.75-9.16,23.86-17.05C495.62-137.27,495.22-137.26,494.8-137.26z"/>
		<path class="st2" d="M480.48-185.59c-17.85,17.85-5.21,48.36,20.03,48.36c0,6.57-1.72,11.74-5.67,17
			c18.93-6.11,33.99-25.03,33.99-45.32C528.84-190.8,498.33-203.44,480.48-185.59z"/>
	</g>
	<g>
		<path class="st1" d="M543.55-95.14c-5.6-3.55-12.84-3.16-18.03,0.96c-5.2,4.12-7.21,11.08-5.03,17.34
			c2.18,6.26,8.09,10.46,14.72,10.46c5.04,0,9.92-2.32,13.18-6.12c-2.61-0.95-5.23-1.9-7.84-2.85c-1.63,1.32-3.24,1.89-5.34,1.89
			c-3.08,0-5.42-2.29-6.44-4.96c7.21,0,14.42,0,21.62,0C551.9-84.89,549.15-91.59,543.55-95.14z M528.76-85.52
			c2.53-6.61,10.36-6.61,12.88,0C537.35-85.52,533.06-85.52,528.76-85.52z"/>
		<path class="st1" d="M477.1-97.56v-8.5h-8.5v31.18l8.5,8.5h7.09c8.61,0,15.59-6.98,15.59-15.59c0-8.61-6.98-15.59-15.59-15.59
			H477.1z M484.18-89.06c3.91,0,7.09,3.17,7.09,7.09c0,3.91-3.17,7.09-7.09,7.09h-7.09v-14.17L484.18-89.06L484.18-89.06z"/>
		<rect x="505.44" y="-106.07" class="st1" width="8.5" height="39.69"/>
		<g>
			<polygon class="st1" points="450.17,-106.07 441.66,-97.56 441.66,-66.38 450.17,-66.38 450.17,-97.56 464.34,-97.56 
				464.34,-106.07 			"/>
			<polygon class="st1" points="427.49,-106.07 427.49,-97.56 437.66,-97.56 446.16,-106.07 			"/>
		</g>
	</g>
</g>
<g>
	<g>
		<path class="st2" d="M792.44-137.26c-15.66,0-28.35-12.69-28.35-28.35c0-12.66,8.3-23.37,19.75-27.01
			c-9.35-2.92-20.21-1.17-28.4,7.02c-17.85,17.85-5.21,48.36,20.03,48.36c0,6.57-1.72,11.74-5.67,17
			c9.35-3.02,17.75-9.16,23.86-17.05C793.26-137.27,792.85-137.26,792.44-137.26z"/>
		<path class="st2" d="M778.12-185.59c-17.85,17.85-5.21,48.36,20.03,48.36c0,6.57-1.72,11.74-5.67,17
			c18.93-6.11,33.99-25.03,33.99-45.32C826.48-190.8,795.96-203.44,778.12-185.59z"/>
	</g>
	<g>
		<path class="st0" d="M841.19-95.14c-5.6-3.55-12.84-3.16-18.03,0.96c-5.2,4.12-7.21,11.08-5.03,17.34
			c2.18,6.26,8.09,10.46,14.72,10.46c5.04,0,9.92-2.32,13.18-6.12c-2.61-0.95-5.23-1.9-7.84-2.85c-1.63,1.32-3.24,1.89-5.34,1.89
			c-3.08,0-5.42-2.29-6.44-4.96c7.21,0,14.42,0,21.62,0C849.53-84.89,846.79-91.59,841.19-95.14z M826.4-85.52
			c2.53-6.61,10.36-6.61,12.88,0C834.99-85.52,830.7-85.52,826.4-85.52z"/>
		<path class="st0" d="M774.74-97.56v-8.5h-8.5v31.18l8.5,8.5h7.09c8.61,0,15.59-6.98,15.59-15.59c0-8.61-6.98-15.59-15.59-15.59
			H774.74z M781.82-89.06c3.91,0,7.09,3.17,7.09,7.09c0,3.91-3.17,7.09-7.09,7.09h-7.09v-14.17L781.82-89.06L781.82-89.06z"/>
		<rect x="803.08" y="-106.07" class="st0" width="8.5" height="39.69"/>
		<g>
			<polygon class="st0" points="747.81,-106.07 739.3,-97.56 739.3,-66.38 747.81,-66.38 747.81,-97.56 761.98,-97.56 
				761.98,-106.07 			"/>
			<polygon class="st0" points="725.13,-106.07 725.13,-97.56 735.29,-97.56 743.8,-106.07 			"/>
		</g>
	</g>
</g>
<rect x="159.98" y="-118.89" class="st13" width="10.17" height="5.48"/>
<rect x="155.28" y="-127.11" class="st13" width="8.22" height="1.96"/>
<text transform="matrix(1 0 0 1 343.1087 -318.8479)" style="fill:#373838; font-family:'NEXONFootballGothicB'; font-size:25px;">광고신청하기</text>
<text transform="matrix(1 0 0 1 343.1087 -277.761)" class="st2" style="font-family:'NEXONFootballGothicB'; font-size:25px;">광고신청하기</text>
<text transform="matrix(1 0 0 1 181.8913 -312.9783)" class="st2" style="font-family:'NEXONFootballGothicB'; font-size:25px;">광고신청하기</text>
</svg>
