<?xml version="1.0" encoding="utf-8"?>
<!-- Generator: Adobe Illustrator 26.0.3, SVG Export Plug-In . SVG Version: 6.00 Build 0)  -->
<svg version="1.1" id="Layer_1" xmlns="http://www.w3.org/2000/svg" xmlns:xlink="http://www.w3.org/1999/xlink" x="0px" y="0px"
	 viewBox="0 0 183.91 46.96" style="enable-background:new 0 0 183.91 46.96;" xml:space="preserve">
<style type="text/css">
	.st0{fill:#FFFFFF;}
	.st1{fill:#3E3A39;}
	.st2{fill:#FABE00;}
	.st3{fill:#EFEFEF;}
	.st4{fill:#DCDDDD;}
	.st5{fill:#C9CACA;}
	.st6{fill:#B5B5B6;}
	.st7{fill:#9FA0A0;}
	.st8{fill:#898989;}
	.st9{fill:#727171;}
	.st10{fill:#595757;}
	.st11{fill:#F39800;}
	.st12{fill:#FFE100;}
</style>
<rect x="217.87" y="-87.78" class="st0" width="595.28" height="841.89"/>
<g>
	<g>
		<path class="st1" d="M175.77,14.46c-5.6-3.55-12.84-3.16-18.03,0.96c-5.2,4.12-7.21,11.08-5.03,17.34
			c2.18,6.26,8.09,10.46,14.72,10.46c5.04,0,9.92-2.32,13.18-6.12c-2.61-0.95-5.23-1.9-7.84-2.85c-1.63,1.32-3.24,1.89-5.34,1.89
			c-3.08,0-5.42-2.29-6.44-4.96c7.21,0,14.42,0,21.62,0C184.12,24.71,181.37,18.01,175.77,14.46z M160.99,24.08
			c2.53-6.61,10.36-6.61,12.88,0C169.58,24.08,165.28,24.08,160.99,24.08z"/>
		<path class="st1" d="M109.32,12.04v-8.5h-8.5v31.18l8.5,8.5h7.09c8.61,0,15.59-6.98,15.59-15.59c0-8.61-6.98-15.59-15.59-15.59
			H109.32z M116.41,20.54c3.91,0,7.09,3.17,7.09,7.09c0,3.91-3.17,7.09-7.09,7.09h-7.09V20.54H116.41z"/>
		<rect x="137.67" y="3.53" class="st1" width="8.5" height="39.69"/>
		<g>
			<polygon class="st1" points="82.39,3.53 73.89,12.04 73.89,43.22 82.39,43.22 82.39,12.04 96.56,12.04 96.56,3.53 			"/>
			<polygon class="st1" points="59.71,3.53 59.71,12.04 69.88,12.04 78.38,3.53 			"/>
		</g>
	</g>
	<g>
		<path class="st2" d="M28.09,35.91c-9.33,0-16.9-7.57-16.9-16.9c0-7.54,4.95-13.93,11.77-16.1C17.38,1.17,10.91,2.21,6.03,7.1
			c-10.64,10.64-3.1,28.83,11.94,28.83c0,3.92-1.03,7-3.38,10.13c5.57-1.8,10.58-5.46,14.22-10.16
			C28.57,35.9,28.33,35.91,28.09,35.91z"/>
		<path class="st2" d="M19.55,7.1c-10.64,10.64-3.1,28.83,11.94,28.83c0,3.92-1.03,7-3.38,10.13c11.28-3.64,20.26-14.92,20.26-27.02
			C48.37,3.99,30.19-3.54,19.55,7.1z"/>
	</g>
</g>
<rect x="515.51" y="-87.78" class="st1" width="297.64" height="311.81"/>
<rect x="813.15" y="-87.78" class="st3" width="297.64" height="84.19"/>
<rect x="813.15" y="-3.59" class="st4" width="297.64" height="84.19"/>
<rect x="813.15" y="80.6" class="st5" width="297.64" height="84.19"/>
<rect x="813.15" y="164.78" class="st6" width="297.64" height="84.19"/>
<rect x="813.15" y="248.97" class="st7" width="297.64" height="84.19"/>
<rect x="813.15" y="333.16" class="st8" width="297.64" height="84.19"/>
<rect x="813.15" y="417.35" class="st9" width="297.64" height="84.19"/>
<rect x="813.15" y="501.54" class="st10" width="297.64" height="84.19"/>
<rect x="813.15" y="585.73" class="st1" width="297.64" height="84.19"/>
<rect x="813.15" y="669.92" width="297.64" height="84.19"/>
<g>
	<g>
		<path class="st0" d="M755.15-40.72c-5.6-3.55-12.84-3.16-18.03,0.96c-5.2,4.12-7.21,11.08-5.03,17.34
			c2.18,6.26,8.09,10.46,14.72,10.46c5.04,0,9.92-2.32,13.18-6.12c-2.61-0.95-5.23-1.9-7.84-2.85c-1.63,1.32-3.24,1.89-5.34,1.89
			c-3.08,0-5.42-2.29-6.44-4.96c7.21,0,14.42,0,21.62,0C763.5-30.46,760.75-37.17,755.15-40.72z M740.36-31.09
			c2.53-6.61,10.36-6.61,12.88,0C748.95-31.09,744.66-31.09,740.36-31.09z"/>
		<path class="st0" d="M688.7-43.14v-8.5h-8.5v31.18l8.5,8.5h7.09c8.61,0,15.59-6.98,15.59-15.59c0-8.61-6.98-15.59-15.59-15.59
			H688.7z M695.78-34.63c3.91,0,7.09,3.17,7.09,7.09c0,3.91-3.17,7.09-7.09,7.09h-7.09v-14.17H695.78z"/>
		<rect x="717.04" y="-51.64" class="st0" width="8.5" height="39.69"/>
		<g>
			<polygon class="st0" points="661.77,-51.64 653.26,-43.14 653.26,-11.96 661.77,-11.96 661.77,-43.14 675.94,-43.14 
				675.94,-51.64 			"/>
			<polygon class="st0" points="639.09,-51.64 639.09,-43.14 649.25,-43.14 657.76,-51.64 			"/>
		</g>
	</g>
	<g>
		<path class="st2" d="M607.46-19.26c-9.33,0-16.9-7.57-16.9-16.9c0-7.54,4.95-13.93,11.77-16.1c-5.58-1.74-12.05-0.7-16.93,4.19
			c-10.64,10.64-3.1,28.83,11.94,28.83c0,3.92-1.03,7-3.38,10.13c5.57-1.8,10.58-5.46,14.22-10.16
			C607.95-19.27,607.71-19.26,607.46-19.26z"/>
		<path class="st2" d="M598.93-48.08c-10.64,10.64-3.1,28.83,11.94,28.83c0,3.92-1.03,7-3.38,10.13
			c11.28-3.64,20.26-14.92,20.26-27.02C627.75-51.18,609.56-58.72,598.93-48.08z"/>
	</g>
</g>
<g>
	<g>
		<path d="M1026.79-53.14c-4.34-2.75-9.94-2.45-13.96,0.74s-5.59,8.58-3.9,13.43c1.69,4.85,6.26,8.1,11.4,8.1
			c3.9,0,7.68-1.79,10.21-4.74c-2.02-0.74-4.05-1.47-6.07-2.21c-1.26,1.02-2.51,1.46-4.14,1.46c-2.39,0-4.2-1.77-4.99-3.84
			c5.58,0,11.16,0,16.74,0C1033.25-45.2,1031.13-50.39,1026.79-53.14z M1015.35-45.69c1.96-5.12,8.02-5.12,9.97,0
			C1022-45.69,1018.67-45.69,1015.35-45.69z"/>
		<path d="M975.34-55.01v-6.58h-6.58v24.14l6.58,6.58h5.49c6.67,0,12.07-5.4,12.07-12.07s-5.4-12.07-12.07-12.07H975.34z
			 M980.83-48.43c3.03,0,5.49,2.46,5.49,5.49c0,3.03-2.46,5.49-5.49,5.49h-5.49v-10.97H980.83z"/>
		<rect x="997.29" y="-61.6" width="6.58" height="30.72"/>
		<g>
			<polygon points="954.5,-61.6 947.91,-55.01 947.91,-30.87 954.5,-30.87 954.5,-55.01 965.47,-55.01 965.47,-61.6 			"/>
			<polygon points="936.94,-61.6 936.94,-55.01 944.81,-55.01 951.39,-61.6 			"/>
		</g>
	</g>
	<g>
		<path d="M912.46-36.53c-7.22,0-13.08-5.86-13.08-13.08c0-5.84,3.83-10.79,9.11-12.47c-4.32-1.35-9.33-0.54-13.11,3.24
			c-8.24,8.24-2.4,22.32,9.24,22.32c0,3.03-0.8,5.42-2.61,7.84c4.31-1.39,8.19-4.23,11.01-7.87
			C912.83-36.54,912.64-36.53,912.46-36.53z"/>
		<path d="M905.84-58.84c-8.24,8.24-2.4,22.32,9.24,22.32c0,3.03-0.8,5.42-2.61,7.84c8.74-2.82,15.69-11.55,15.69-20.92
			C928.16-61.24,914.08-67.08,905.84-58.84z"/>
	</g>
</g>
<g>
	<g>
		<path d="M1026.79,31.05c-4.34-2.75-9.94-2.45-13.96,0.74c-4.02,3.19-5.59,8.58-3.9,13.43s6.26,8.1,11.4,8.1
			c3.9,0,7.68-1.79,10.21-4.74c-2.02-0.74-4.05-1.47-6.07-2.21c-1.26,1.02-2.51,1.46-4.14,1.46c-2.39,0-4.2-1.77-4.99-3.84
			c5.58,0,11.16,0,16.74,0C1033.25,38.99,1031.13,33.8,1026.79,31.05z M1015.35,38.5c1.96-5.12,8.02-5.12,9.97,0
			C1022,38.5,1018.67,38.5,1015.35,38.5z"/>
		<path d="M975.34,29.17v-6.58h-6.58v24.14l6.58,6.58h5.49c6.67,0,12.07-5.4,12.07-12.07s-5.4-12.07-12.07-12.07H975.34z
			 M980.83,35.76c3.03,0,5.49,2.46,5.49,5.49c0,3.03-2.46,5.49-5.49,5.49h-5.49V35.76H980.83z"/>
		<rect x="997.29" y="22.59" width="6.58" height="30.72"/>
		<g>
			<polygon points="954.5,22.59 947.91,29.17 947.91,53.31 954.5,53.31 954.5,29.17 965.47,29.17 965.47,22.59 			"/>
			<polygon points="936.94,22.59 936.94,29.17 944.81,29.17 951.39,22.59 			"/>
		</g>
	</g>
	<g>
		<path d="M912.46,47.66c-7.22,0-13.08-5.86-13.08-13.08c0-5.84,3.83-10.79,9.11-12.47c-4.32-1.35-9.33-0.54-13.11,3.24
			c-8.24,8.24-2.4,22.32,9.24,22.32c0,3.03-0.8,5.42-2.61,7.84c4.31-1.39,8.19-4.23,11.01-7.87
			C912.83,47.65,912.64,47.66,912.46,47.66z"/>
		<path d="M905.84,25.35c-8.24,8.24-2.4,22.32,9.24,22.32c0,3.03-0.8,5.42-2.61,7.84c8.74-2.82,15.69-11.55,15.69-20.92
			C928.16,22.95,914.08,17.11,905.84,25.35z"/>
	</g>
</g>
<g>
	<g>
		<path d="M1026.79,115.24c-4.34-2.75-9.94-2.45-13.96,0.74c-4.02,3.19-5.59,8.58-3.9,13.43c1.69,4.85,6.26,8.1,11.4,8.1
			c3.9,0,7.68-1.79,10.21-4.74c-2.02-0.74-4.05-1.47-6.07-2.21c-1.26,1.02-2.51,1.46-4.14,1.46c-2.39,0-4.2-1.77-4.99-3.84
			c5.58,0,11.16,0,16.74,0C1033.25,123.18,1031.13,117.98,1026.79,115.24z M1015.35,122.69c1.96-5.12,8.02-5.12,9.97,0
			C1022,122.69,1018.67,122.69,1015.35,122.69z"/>
		<path d="M975.34,113.36v-6.58h-6.58v24.14l6.58,6.58h5.49c6.67,0,12.07-5.4,12.07-12.07s-5.4-12.07-12.07-12.07H975.34z
			 M980.83,119.95c3.03,0,5.49,2.46,5.49,5.49s-2.46,5.49-5.49,5.49h-5.49v-10.97H980.83z"/>
		<rect x="997.29" y="106.78" width="6.58" height="30.72"/>
		<g>
			<polygon points="954.5,106.78 947.91,113.36 947.91,137.5 954.5,137.5 954.5,113.36 965.47,113.36 965.47,106.78 			"/>
			<polygon points="936.94,106.78 936.94,113.36 944.81,113.36 951.39,106.78 			"/>
		</g>
	</g>
	<g>
		<path d="M912.46,131.85c-7.22,0-13.08-5.86-13.08-13.08c0-5.84,3.83-10.79,9.11-12.47c-4.32-1.35-9.33-0.54-13.11,3.24
			c-8.24,8.24-2.4,22.32,9.24,22.32c0,3.03-0.8,5.42-2.61,7.84c4.31-1.39,8.19-4.23,11.01-7.87
			C912.83,131.84,912.64,131.85,912.46,131.85z"/>
		<path d="M905.84,109.54c-8.24,8.24-2.4,22.32,9.24,22.32c0,3.03-0.8,5.42-2.61,7.84c8.74-2.82,15.69-11.55,15.69-20.92
			C928.16,107.13,914.08,101.3,905.84,109.54z"/>
	</g>
</g>
<g>
	<g>
		<path d="M1026.79,199.43c-4.34-2.75-9.94-2.45-13.96,0.74c-4.02,3.19-5.59,8.58-3.9,13.43s6.26,8.1,11.4,8.1
			c3.9,0,7.68-1.79,10.21-4.74c-2.02-0.74-4.05-1.47-6.07-2.21c-1.26,1.02-2.51,1.46-4.14,1.46c-2.39,0-4.2-1.77-4.99-3.84
			c5.58,0,11.16,0,16.74,0C1033.25,207.37,1031.13,202.17,1026.79,199.43z M1015.35,206.88c1.96-5.12,8.02-5.12,9.97,0
			C1022,206.88,1018.67,206.88,1015.35,206.88z"/>
		<path d="M975.34,197.55v-6.58h-6.58v24.14l6.58,6.58h5.49c6.67,0,12.07-5.4,12.07-12.07c0-6.67-5.4-12.07-12.07-12.07H975.34z
			 M980.83,204.14c3.03,0,5.49,2.46,5.49,5.49c0,3.03-2.46,5.49-5.49,5.49h-5.49v-10.97H980.83z"/>
		<rect x="997.29" y="190.97" width="6.58" height="30.72"/>
		<g>
			<polygon points="954.5,190.97 947.91,197.55 947.91,221.69 954.5,221.69 954.5,197.55 965.47,197.55 965.47,190.97 			"/>
			<polygon points="936.94,190.97 936.94,197.55 944.81,197.55 951.39,190.97 			"/>
		</g>
	</g>
	<g>
		<path d="M912.46,216.03c-7.22,0-13.08-5.86-13.08-13.08c0-5.84,3.83-10.79,9.11-12.47c-4.32-1.35-9.33-0.54-13.11,3.24
			c-8.24,8.24-2.4,22.32,9.24,22.32c0,3.03-0.8,5.42-2.61,7.84c4.31-1.39,8.19-4.23,11.01-7.87
			C912.83,216.03,912.64,216.03,912.46,216.03z"/>
		<path d="M905.84,193.73c-8.24,8.24-2.4,22.32,9.24,22.32c0,3.03-0.8,5.42-2.61,7.84c8.74-2.82,15.69-11.55,15.69-20.92
			C928.16,191.32,914.08,185.49,905.84,193.73z"/>
	</g>
</g>
<g>
	<g>
		<path class="st0" d="M1026.79,283.62c-4.34-2.75-9.94-2.45-13.96,0.74c-4.02,3.19-5.59,8.58-3.9,13.43
			c1.69,4.85,6.26,8.1,11.4,8.1c3.9,0,7.68-1.79,10.21-4.74c-2.02-0.74-4.05-1.47-6.07-2.21c-1.26,1.02-2.51,1.46-4.14,1.46
			c-2.39,0-4.2-1.77-4.99-3.84c5.58,0,11.16,0,16.74,0C1033.25,291.55,1031.13,286.36,1026.79,283.62z M1015.35,291.07
			c1.96-5.12,8.02-5.12,9.97,0C1022,291.07,1018.67,291.07,1015.35,291.07z"/>
		<path class="st0" d="M975.34,281.74v-6.58h-6.58v24.14l6.58,6.58h5.49c6.67,0,12.07-5.4,12.07-12.07c0-6.67-5.4-12.07-12.07-12.07
			H975.34z M980.83,288.32c3.03,0,5.49,2.46,5.49,5.49c0,3.03-2.46,5.49-5.49,5.49h-5.49v-10.97H980.83z"/>
		<rect x="997.29" y="275.16" class="st0" width="6.58" height="30.72"/>
		<g>
			<polygon class="st0" points="954.5,275.16 947.91,281.74 947.91,305.88 954.5,305.88 954.5,281.74 965.47,281.74 965.47,275.16 
							"/>
			<polygon class="st0" points="936.94,275.16 936.94,281.74 944.81,281.74 951.39,275.16 			"/>
		</g>
	</g>
	<g>
		<path class="st0" d="M912.46,300.22c-7.22,0-13.08-5.86-13.08-13.08c0-5.84,3.83-10.79,9.11-12.47
			c-4.32-1.35-9.33-0.54-13.11,3.24c-8.24,8.24-2.4,22.32,9.24,22.32c0,3.03-0.8,5.42-2.61,7.84c4.31-1.39,8.19-4.23,11.01-7.87
			C912.83,300.22,912.64,300.22,912.46,300.22z"/>
		<path class="st0" d="M905.84,277.92c-8.24,8.24-2.4,22.32,9.24,22.32c0,3.03-0.8,5.42-2.61,7.84
			c8.74-2.82,15.69-11.55,15.69-20.92C928.16,275.51,914.08,269.68,905.84,277.92z"/>
	</g>
</g>
<g>
	<g>
		<path class="st0" d="M1026.79,367.8c-4.34-2.75-9.94-2.45-13.96,0.74c-4.02,3.19-5.59,8.58-3.9,13.43s6.26,8.1,11.4,8.1
			c3.9,0,7.68-1.79,10.21-4.74c-2.02-0.74-4.05-1.47-6.07-2.21c-1.26,1.02-2.51,1.46-4.14,1.46c-2.39,0-4.2-1.77-4.99-3.84
			c5.58,0,11.16,0,16.74,0C1033.25,375.74,1031.13,370.55,1026.79,367.8z M1015.35,375.26c1.96-5.12,8.02-5.12,9.97,0
			C1022,375.26,1018.67,375.26,1015.35,375.26z"/>
		<path class="st0" d="M975.34,365.93v-6.58h-6.58v24.14l6.58,6.58h5.49c6.67,0,12.07-5.4,12.07-12.07c0-6.67-5.4-12.07-12.07-12.07
			H975.34z M980.83,372.51c3.03,0,5.49,2.46,5.49,5.49c0,3.03-2.46,5.49-5.49,5.49h-5.49v-10.97H980.83z"/>
		<rect x="997.29" y="359.35" class="st0" width="6.58" height="30.72"/>
		<g>
			<polygon class="st0" points="954.5,359.35 947.91,365.93 947.91,390.07 954.5,390.07 954.5,365.93 965.47,365.93 965.47,359.35 
							"/>
			<polygon class="st0" points="936.94,359.35 936.94,365.93 944.81,365.93 951.39,359.35 			"/>
		</g>
	</g>
	<g>
		<path class="st0" d="M912.46,384.41c-7.22,0-13.08-5.86-13.08-13.08c0-5.84,3.83-10.79,9.11-12.47
			c-4.32-1.35-9.33-0.54-13.11,3.24c-8.24,8.24-2.4,22.32,9.24,22.32c0,3.03-0.8,5.42-2.61,7.84c4.31-1.39,8.19-4.23,11.01-7.87
			C912.83,384.41,912.64,384.41,912.46,384.41z"/>
		<path class="st0" d="M905.84,362.1c-8.24,8.24-2.4,22.32,9.24,22.32c0,3.03-0.8,5.42-2.61,7.84c8.74-2.82,15.69-11.55,15.69-20.92
			C928.16,359.7,914.08,353.87,905.84,362.1z"/>
	</g>
</g>
<g>
	<g>
		<path class="st0" d="M1026.79,451.99c-4.34-2.75-9.94-2.45-13.96,0.74c-4.02,3.19-5.59,8.58-3.9,13.43s6.26,8.1,11.4,8.1
			c3.9,0,7.68-1.79,10.21-4.74c-2.02-0.74-4.05-1.47-6.07-2.21c-1.26,1.02-2.51,1.46-4.14,1.46c-2.39,0-4.2-1.77-4.99-3.84
			c5.58,0,11.16,0,16.74,0C1033.25,459.93,1031.13,454.74,1026.79,451.99z M1015.35,459.45c1.96-5.12,8.02-5.12,9.97,0
			C1022,459.45,1018.67,459.45,1015.35,459.45z"/>
		<path class="st0" d="M975.34,450.12v-6.58h-6.58v24.14l6.58,6.58h5.49c6.67,0,12.07-5.4,12.07-12.07c0-6.67-5.4-12.07-12.07-12.07
			H975.34z M980.83,456.7c3.03,0,5.49,2.46,5.49,5.49c0,3.03-2.46,5.49-5.49,5.49h-5.49V456.7H980.83z"/>
		<rect x="997.29" y="443.54" class="st0" width="6.58" height="30.72"/>
		<g>
			<polygon class="st0" points="954.5,443.54 947.91,450.12 947.91,474.26 954.5,474.26 954.5,450.12 965.47,450.12 965.47,443.54 
							"/>
			<polygon class="st0" points="936.94,443.54 936.94,450.12 944.81,450.12 951.39,443.54 			"/>
		</g>
	</g>
	<g>
		<path class="st0" d="M912.46,468.6c-7.22,0-13.08-5.86-13.08-13.08c0-5.84,3.83-10.79,9.11-12.47c-4.32-1.35-9.33-0.54-13.11,3.24
			c-8.24,8.24-2.4,22.32,9.24,22.32c0,3.03-0.8,5.42-2.61,7.84c4.31-1.39,8.19-4.23,11.01-7.87
			C912.83,468.59,912.64,468.6,912.46,468.6z"/>
		<path class="st0" d="M905.84,446.29c-8.24,8.24-2.4,22.32,9.24,22.32c0,3.03-0.8,5.42-2.61,7.84
			c8.74-2.82,15.69-11.55,15.69-20.92C928.16,443.89,914.08,438.06,905.84,446.29z"/>
	</g>
</g>
<g>
	<g>
		<path class="st0" d="M1026.79,536.18c-4.34-2.75-9.94-2.45-13.96,0.74s-5.59,8.58-3.9,13.43s6.26,8.1,11.4,8.1
			c3.9,0,7.68-1.79,10.21-4.74c-2.02-0.74-4.05-1.47-6.07-2.21c-1.26,1.02-2.51,1.46-4.14,1.46c-2.39,0-4.2-1.77-4.99-3.84
			c5.58,0,11.16,0,16.74,0C1033.25,544.12,1031.13,538.93,1026.79,536.18z M1015.35,543.64c1.96-5.12,8.02-5.12,9.97,0
			C1022,543.64,1018.67,543.64,1015.35,543.64z"/>
		<path class="st0" d="M975.34,534.31v-6.58h-6.58v24.14l6.58,6.58h5.49c6.67,0,12.07-5.4,12.07-12.07c0-6.67-5.4-12.07-12.07-12.07
			H975.34z M980.83,540.89c3.03,0,5.49,2.46,5.49,5.49c0,3.03-2.46,5.49-5.49,5.49h-5.49v-10.97H980.83z"/>
		<rect x="997.29" y="527.72" class="st0" width="6.58" height="30.72"/>
		<g>
			<polygon class="st0" points="954.5,527.72 947.91,534.31 947.91,558.45 954.5,558.45 954.5,534.31 965.47,534.31 965.47,527.72 
							"/>
			<polygon class="st0" points="936.94,527.72 936.94,534.31 944.81,534.31 951.39,527.72 			"/>
		</g>
	</g>
	<g>
		<path class="st0" d="M912.46,552.79c-7.22,0-13.08-5.86-13.08-13.08c0-5.84,3.83-10.79,9.11-12.47
			c-4.32-1.35-9.33-0.54-13.11,3.24c-8.24,8.24-2.4,22.32,9.24,22.32c0,3.03-0.8,5.42-2.61,7.84c4.31-1.39,8.19-4.23,11.01-7.87
			C912.83,552.78,912.64,552.79,912.46,552.79z"/>
		<path class="st0" d="M905.84,530.48c-8.24,8.24-2.4,22.32,9.24,22.32c0,3.03-0.8,5.42-2.61,7.84
			c8.74-2.82,15.69-11.55,15.69-20.92C928.16,528.08,914.08,522.25,905.84,530.48z"/>
	</g>
</g>
<g>
	<g>
		<path class="st0" d="M1026.79,620.37c-4.34-2.75-9.94-2.45-13.96,0.74c-4.02,3.19-5.59,8.58-3.9,13.43s6.26,8.1,11.4,8.1
			c3.9,0,7.68-1.79,10.21-4.74c-2.02-0.74-4.05-1.47-6.07-2.21c-1.26,1.02-2.51,1.46-4.14,1.46c-2.39,0-4.2-1.77-4.99-3.84
			c5.58,0,11.16,0,16.74,0C1033.25,628.31,1031.13,623.12,1026.79,620.37z M1015.35,627.82c1.96-5.12,8.02-5.12,9.97,0
			C1022,627.82,1018.67,627.82,1015.35,627.82z"/>
		<path class="st0" d="M975.34,618.5v-6.58h-6.58v24.14l6.58,6.58h5.49c6.67,0,12.07-5.4,12.07-12.07c0-6.67-5.4-12.07-12.07-12.07
			H975.34z M980.83,625.08c3.03,0,5.49,2.46,5.49,5.49c0,3.03-2.46,5.49-5.49,5.49h-5.49v-10.97H980.83z"/>
		<rect x="997.29" y="611.91" class="st0" width="6.58" height="30.72"/>
		<g>
			<polygon class="st0" points="954.5,611.91 947.91,618.5 947.91,642.64 954.5,642.64 954.5,618.5 965.47,618.5 965.47,611.91 			
				"/>
			<polygon class="st0" points="936.94,611.91 936.94,618.5 944.81,618.5 951.39,611.91 			"/>
		</g>
	</g>
	<g>
		<path class="st0" d="M912.46,636.98c-7.22,0-13.08-5.86-13.08-13.08c0-5.84,3.83-10.79,9.11-12.47
			c-4.32-1.35-9.33-0.54-13.11,3.24c-8.24,8.24-2.4,22.32,9.24,22.32c0,3.03-0.8,5.42-2.61,7.84c4.31-1.39,8.19-4.23,11.01-7.87
			C912.83,636.97,912.64,636.98,912.46,636.98z"/>
		<path class="st0" d="M905.84,614.67c-8.24,8.24-2.4,22.32,9.24,22.32c0,3.03-0.8,5.42-2.61,7.84
			c8.74-2.82,15.69-11.55,15.69-20.92C928.16,612.27,914.08,606.44,905.84,614.67z"/>
	</g>
</g>
<g>
	<g>
		<path class="st0" d="M1026.79,704.56c-4.34-2.75-9.94-2.45-13.96,0.74s-5.59,8.58-3.9,13.43s6.26,8.1,11.4,8.1
			c3.9,0,7.68-1.79,10.21-4.74c-2.02-0.74-4.05-1.47-6.07-2.21c-1.26,1.02-2.51,1.46-4.14,1.46c-2.39,0-4.2-1.77-4.99-3.84
			c5.58,0,11.16,0,16.74,0C1033.25,712.5,1031.13,707.31,1026.79,704.56z M1015.35,712.01c1.96-5.12,8.02-5.12,9.97,0
			C1022,712.01,1018.67,712.01,1015.35,712.01z"/>
		<path class="st0" d="M975.34,702.69v-6.58h-6.58v24.14l6.58,6.58h5.49c6.67,0,12.07-5.4,12.07-12.07c0-6.67-5.4-12.07-12.07-12.07
			H975.34z M980.83,709.27c3.03,0,5.49,2.46,5.49,5.49c0,3.03-2.46,5.49-5.49,5.49h-5.49v-10.97H980.83z"/>
		<rect x="997.29" y="696.1" class="st0" width="6.58" height="30.72"/>
		<g>
			<polygon class="st0" points="954.5,696.1 947.91,702.69 947.91,726.83 954.5,726.83 954.5,702.69 965.47,702.69 965.47,696.1 			
				"/>
			<polygon class="st0" points="936.94,696.1 936.94,702.69 944.81,702.69 951.39,696.1 			"/>
		</g>
	</g>
	<g>
		<path class="st0" d="M912.46,721.17c-7.22,0-13.08-5.86-13.08-13.08c0-5.84,3.83-10.79,9.11-12.47
			c-4.32-1.35-9.33-0.54-13.11,3.24c-8.24,8.24-2.4,22.32,9.24,22.32c0,3.03-0.8,5.42-2.61,7.84c4.31-1.39,8.19-4.23,11.01-7.87
			C912.83,721.16,912.64,721.17,912.46,721.17z"/>
		<path class="st0" d="M905.84,698.86c-8.24,8.24-2.4,22.32,9.24,22.32c0,3.03-0.8,5.42-2.61,7.84
			c8.74-2.82,15.69-11.55,15.69-20.92C928.16,696.46,914.08,690.62,905.84,698.86z"/>
	</g>
</g>
<g>
	<g>
		<path class="st2" d="M387.94,265.13c-30.08,0-74.73,9.26-94.48,32.82c-13.36,15.94-8.9,33.08,12.56,44.18
			c16.4,8.48,37.12,10.87,53.6,10.87c30.08,0,74.73-9.26,94.48-32.82c13.36-15.94,8.9-33.08-12.56-44.18
			C425.13,267.52,404.42,265.13,387.94,265.13z"/>
	</g>
	<g>
		<path class="st1" d="M430.4,300.15c-5.6-3.55-12.84-3.17-18.03,0.96c-5.2,4.12-7.21,11.08-5.03,17.34s8.09,10.46,14.72,10.46
			c5.04,0,9.92-2.32,13.18-6.12c-2.61-0.95-5.23-1.9-7.84-2.85c-1.63,1.32-3.24,1.89-5.34,1.89c-3.08,0-5.42-2.29-6.44-4.96
			c7.21,0,14.42,0,21.62,0C438.75,310.4,436.01,303.7,430.4,300.15z M415.62,309.78c2.53-6.61,10.36-6.61,12.88,0
			C424.21,309.78,419.91,309.78,415.62,309.78z"/>
		<path class="st1" d="M363.95,297.73v-8.5h-8.5v31.18l8.5,8.5h7.09c8.61,0,15.59-6.98,15.59-15.59c0-8.61-6.98-15.59-15.59-15.59
			H363.95z M371.04,306.23c3.91,0,7.09,3.17,7.09,7.09c0,3.91-3.17,7.09-7.09,7.09h-7.09v-14.17H371.04z"/>
		<rect x="392.3" y="289.23" class="st1" width="8.5" height="39.69"/>
		<g>
			<polygon class="st1" points="337.02,289.23 328.52,297.73 328.52,328.91 337.02,328.91 337.02,297.73 351.2,297.73 351.2,289.23 
							"/>
			<polygon class="st1" points="314.34,289.23 314.34,297.73 324.51,297.73 333.01,289.23 			"/>
		</g>
	</g>
</g>
<g>
	<path class="st1" d="M657.24,258.04c-20.47,0-39.65,2.64-59.02,10.01c-11.49,4.37-21.62,9.53-30.37,18.88
		c-5.58,5.97-9.82,13.39-9.82,22.13c0,8.75,4.24,16.18,9.83,22.14c8.76,9.35,18.9,14.51,30.4,18.88c19.36,7.36,38.53,10,58.98,10
		c20.47,0,39.65-2.64,59.02-10.01c11.49-4.37,21.62-9.53,30.37-18.88c5.59-5.97,9.82-13.39,9.82-22.13c0-8.75-4.24-16.18-9.83-22.14
		c-8.76-9.35-18.9-14.51-30.4-18.88C696.86,260.68,677.69,258.04,657.24,258.04z"/>
	<g>
		<path class="st2" d="M671.4,265.13c-30.08,0-74.73,9.26-94.48,32.82c-13.36,15.94-8.9,33.08,12.56,44.18
			c16.4,8.48,37.12,10.87,53.6,10.87c30.08,0,74.73-9.26,94.48-32.82c13.36-15.94,8.9-33.08-12.56-44.18
			C708.6,267.52,687.88,265.13,671.4,265.13z"/>
	</g>
	<g>
		<path class="st1" d="M713.87,300.15c-5.6-3.55-12.84-3.17-18.03,0.96c-5.2,4.12-7.21,11.08-5.03,17.34
			c2.18,6.26,8.09,10.46,14.72,10.46c5.04,0,9.92-2.32,13.18-6.12c-2.61-0.95-5.23-1.9-7.84-2.85c-1.63,1.32-3.24,1.89-5.34,1.89
			c-3.08,0-5.42-2.29-6.44-4.96c7.21,0,14.42,0,21.62,0C722.21,310.4,719.47,303.7,713.87,300.15z M699.08,309.78
			c2.53-6.61,10.36-6.61,12.88,0C707.67,309.78,703.38,309.78,699.08,309.78z"/>
		<path class="st1" d="M647.42,297.73v-8.5h-8.5v31.18l8.5,8.5h7.09c8.61,0,15.59-6.98,15.59-15.59c0-8.61-6.98-15.59-15.59-15.59
			H647.42z M654.5,306.23c3.91,0,7.09,3.17,7.09,7.09c0,3.91-3.17,7.09-7.09,7.09h-7.09v-14.17H654.5z"/>
		<rect x="675.76" y="289.23" class="st1" width="8.5" height="39.69"/>
		<g>
			<polygon class="st1" points="620.49,289.23 611.98,297.73 611.98,328.91 620.49,328.91 620.49,297.73 634.66,297.73 
				634.66,289.23 			"/>
			<polygon class="st1" points="597.81,289.23 597.81,297.73 607.97,297.73 616.48,289.23 			"/>
		</g>
	</g>
</g>
<g>
	<g>
		<path class="st1" d="M387.94,392.69c-30.08,0-74.73,9.26-94.48,32.82c-13.36,15.94-8.9,33.08,12.56,44.18
			c16.4,8.48,37.12,10.87,53.6,10.87c30.08,0,74.73-9.26,94.48-32.82c13.36-15.94,8.9-33.08-12.56-44.18
			C425.13,395.08,404.42,392.69,387.94,392.69z"/>
	</g>
	<g>
		<path class="st2" d="M430.4,427.71c-5.6-3.55-12.84-3.17-18.03,0.96c-5.2,4.12-7.21,11.08-5.03,17.34
			c2.18,6.26,8.09,10.46,14.72,10.46c5.04,0,9.92-2.32,13.18-6.12c-2.61-0.95-5.23-1.9-7.84-2.85c-1.63,1.32-3.24,1.89-5.34,1.89
			c-3.08,0-5.42-2.29-6.44-4.96c7.21,0,14.42,0,21.62,0C438.75,437.96,436.01,431.26,430.4,427.71z M415.62,437.34
			c2.53-6.61,10.36-6.61,12.88,0C424.21,437.34,419.91,437.34,415.62,437.34z"/>
		<path class="st2" d="M363.95,425.29v-8.5h-8.5v31.18l8.5,8.5h7.09c8.61,0,15.59-6.98,15.59-15.59c0-8.61-6.98-15.59-15.59-15.59
			H363.95z M371.04,433.79c3.91,0,7.09,3.17,7.09,7.09c0,3.91-3.17,7.09-7.09,7.09h-7.09v-14.17H371.04z"/>
		<rect x="392.3" y="416.78" class="st2" width="8.5" height="39.69"/>
		<g>
			<polygon class="st2" points="337.02,416.78 328.52,425.29 328.52,456.47 337.02,456.47 337.02,425.29 351.2,425.29 351.2,416.78 
							"/>
			<polygon class="st2" points="314.34,416.78 314.34,425.29 324.51,425.29 333.01,416.78 			"/>
		</g>
	</g>
</g>
<circle class="st2" cx="311.41" cy="578.36" r="42.52"/>
<circle class="st11" cx="719.6" cy="578.36" r="42.52"/>
<circle class="st12" cx="583.54" cy="578.36" r="42.52"/>
<text transform="matrix(1 0 0 1 290.5959 654.2081)"><tspan x="0" y="0" style="font-family:'MyriadPro-Bold'; font-size:18px;">Main</tspan><tspan x="-26.04" y="24" style="font-family:'MyriadPro-Regular'; font-size:14px;">C0 M30 Y100 K0</tspan><tspan x="-19.37" y="48" style="font-family:'MyriadPro-Regular'; font-size:14px;">R251 G186 B0</tspan><tspan x="-5.12" y="72" style="font-family:'MyriadPro-Regular'; font-size:14px;">#FBBA00</tspan></text>
<circle class="st1" cx="447.48" cy="578.36" r="42.52"/>
<text transform="matrix(1 0 0 1 427.7209 654.2081)"><tspan x="0" y="0" style="font-family:'MyriadPro-Bold'; font-size:18px;">Sub1</tspan><tspan x="-19.92" y="24" style="font-family:'MyriadPro-Regular'; font-size:14px;">C0 M0 Y0 K90</tspan><tspan x="-16.84" y="48" style="font-family:'MyriadPro-Regular'; font-size:14px;">R60 G60 B60</tspan><tspan x="-6.68" y="72" style="font-family:'MyriadPro-Regular'; font-size:14px;">#3C3C3C</tspan></text>
<text transform="matrix(1 0 0 1 699.8469 654.2081)"><tspan x="0" y="0" style="font-family:'MyriadPro-Bold'; font-size:18px;">Sub3</tspan><tspan x="-27.1" y="24" style="font-family:'MyriadPro-Regular'; font-size:14px;">C0 M50 Y100 K0</tspan><tspan x="-20.43" y="48" style="font-family:'MyriadPro-Regular'; font-size:14px;">R243 G146 B0</tspan><tspan x="-5.09" y="72" style="font-family:'MyriadPro-Regular'; font-size:14px;">#F39200</tspan></text>
<text transform="matrix(1 0 0 1 563.7839 654.2081)"><tspan x="0" y="0" style="font-family:'MyriadPro-Bold'; font-size:18px;">Sub2</tspan><tspan x="-27.1" y="24" style="font-family:'MyriadPro-Regular'; font-size:14px;">C0 M10 Y100 K0</tspan><tspan x="-20.43" y="48" style="font-family:'MyriadPro-Regular'; font-size:14px;">R255 G221 B0</tspan><tspan x="-7.05" y="72" style="font-family:'MyriadPro-Regular'; font-size:14px;">#FFDD00</tspan></text>
<g>
	<g>
		
			<ellipse transform="matrix(0.8417 -0.54 0.54 0.8417 -131.7145 424.0454)" class="st1" cx="657.24" cy="436.63" rx="36.85" ry="36.85"/>
		
			<ellipse transform="matrix(0.7485 -0.6632 0.6632 0.7485 -124.2433 545.6741)" class="st2" cx="657.24" cy="436.63" rx="34.39" ry="27"/>
	</g>
	<g>
		<polygon class="st1" points="638.81,429.54 638.81,421.04 675.66,421.04 675.66,429.54 661.49,429.54 661.49,460.72 
			652.99,460.72 652.99,429.54 		"/>
	</g>
</g>
<text transform="matrix(1 0 0 1 827.8625 273.0963)" class="st0" style="font-family:'MyriadPro-Bold'; font-size:14px;">50%</text>
<text transform="matrix(1 0 0 1 827.8625 188.9073)" style="font-family:'MyriadPro-Bold'; font-size:14px;">40%</text>
<text transform="matrix(1 0 0 1 827.8625 104.7183)" style="font-family:'MyriadPro-Bold'; font-size:14px;">30%</text>
<text transform="matrix(1 0 0 1 827.8625 20.5294)" style="font-family:'MyriadPro-Bold'; font-size:14px;">20%</text>
<text transform="matrix(1 0 0 1 827.8625 -63.6596)" style="font-family:'MyriadPro-Bold'; font-size:14px;">10%</text>
<text transform="matrix(1 0 0 1 827.8625 357.2853)" class="st0" style="font-family:'MyriadPro-Bold'; font-size:14px;">60%</text>
<text transform="matrix(1 0 0 1 827.8625 441.4742)" class="st0" style="font-family:'MyriadPro-Bold'; font-size:14px;">70%</text>
<text transform="matrix(1 0 0 1 827.8625 525.6632)" class="st0" style="font-family:'MyriadPro-Bold'; font-size:14px;">80%</text>
<text transform="matrix(1 0 0 1 827.8625 609.8522)" class="st0" style="font-family:'MyriadPro-Bold'; font-size:14px;">90%</text>
<text transform="matrix(1 0 0 1 827.8625 694.0412)" class="st0" style="font-family:'MyriadPro-Bold'; font-size:14px;">100%</text>
<g>
	<g>
		<path class="st2" d="M379.43,121.72c-15.66,0-28.35-12.69-28.35-28.35c0-12.66,8.3-23.37,19.75-27.01
			c-9.35-2.92-20.21-1.17-28.4,7.02c-17.85,17.85-5.21,48.36,20.03,48.36c0,6.57-1.72,11.74-5.67,17
			c9.35-3.02,17.75-9.16,23.86-17.05C380.25,121.71,379.85,121.72,379.43,121.72z"/>
		<path class="st2" d="M365.11,73.38c-17.85,17.85-5.21,48.36,20.03,48.36c0,6.57-1.72,11.74-5.67,17
			c18.93-6.11,33.99-25.03,33.99-45.32C413.47,68.18,382.96,55.54,365.11,73.38z"/>
	</g>
	<g>
		<path class="st1" d="M428.18,163.84c-5.6-3.55-12.84-3.16-18.03,0.96c-5.2,4.12-7.21,11.08-5.03,17.34
			c2.18,6.26,8.09,10.46,14.72,10.46c5.04,0,9.92-2.32,13.18-6.12c-2.61-0.95-5.23-1.9-7.84-2.85c-1.63,1.32-3.24,1.89-5.34,1.89
			c-3.08,0-5.42-2.29-6.44-4.96c7.21,0,14.42,0,21.62,0C436.53,174.09,433.78,167.38,428.18,163.84z M413.4,173.46
			c2.53-6.61,10.36-6.61,12.88,0C421.98,173.46,417.69,173.46,413.4,173.46z"/>
		<path class="st1" d="M361.73,161.42v-8.5h-8.5v31.18l8.5,8.5h7.09c8.61,0,15.59-6.98,15.59-15.59c0-8.61-6.98-15.59-15.59-15.59
			H361.73z M368.81,169.92c3.91,0,7.09,3.17,7.09,7.09c0,3.91-3.17,7.09-7.09,7.09h-7.09v-14.17H368.81z"/>
		<rect x="390.07" y="152.91" class="st1" width="8.5" height="39.69"/>
		<g>
			<polygon class="st1" points="334.8,152.91 326.29,161.42 326.29,192.6 334.8,192.6 334.8,161.42 348.97,161.42 348.97,152.91 			
				"/>
			<polygon class="st1" points="312.12,152.91 312.12,161.42 322.29,161.42 330.79,152.91 			"/>
		</g>
	</g>
</g>
<g>
	<g>
		<path class="st2" d="M677.07,121.72c-15.66,0-28.35-12.69-28.35-28.35c0-12.66,8.3-23.37,19.75-27.01
			c-9.35-2.92-20.21-1.17-28.4,7.02c-17.85,17.85-5.21,48.36,20.03,48.36c0,6.57-1.72,11.74-5.67,17
			c9.35-3.02,17.75-9.16,23.86-17.05C677.89,121.71,677.48,121.72,677.07,121.72z"/>
		<path class="st2" d="M662.75,73.38c-17.85,17.85-5.21,48.36,20.03,48.36c0,6.57-1.72,11.74-5.67,17
			c18.93-6.11,33.99-25.03,33.99-45.32C711.11,68.18,680.59,55.54,662.75,73.38z"/>
	</g>
	<g>
		<path class="st0" d="M725.82,163.84c-5.6-3.55-12.84-3.16-18.03,0.96c-5.2,4.12-7.21,11.08-5.03,17.34
			c2.18,6.26,8.09,10.46,14.72,10.46c5.04,0,9.92-2.32,13.18-6.12c-2.61-0.95-5.23-1.9-7.84-2.85c-1.63,1.32-3.24,1.89-5.34,1.89
			c-3.08,0-5.42-2.29-6.44-4.96c7.21,0,14.42,0,21.62,0C734.16,174.09,731.42,167.38,725.82,163.84z M711.03,173.46
			c2.53-6.61,10.36-6.61,12.88,0C719.62,173.46,715.33,173.46,711.03,173.46z"/>
		<path class="st0" d="M659.37,161.42v-8.5h-8.5v31.18l8.5,8.5h7.09c8.61,0,15.59-6.98,15.59-15.59c0-8.61-6.98-15.59-15.59-15.59
			H659.37z M666.45,169.92c3.91,0,7.09,3.17,7.09,7.09c0,3.91-3.17,7.09-7.09,7.09h-7.09v-14.17H666.45z"/>
		<rect x="687.71" y="152.91" class="st0" width="8.5" height="39.69"/>
		<g>
			<polygon class="st0" points="632.44,152.91 623.93,161.42 623.93,192.6 632.44,192.6 632.44,161.42 646.61,161.42 646.61,152.91 
							"/>
			<polygon class="st0" points="609.76,152.91 609.76,161.42 619.93,161.42 628.43,152.91 			"/>
		</g>
	</g>
</g>
</svg>
