<?xml version="1.0" encoding="utf-8"?>
<!-- Generator: Adobe Illustrator 26.0.3, SVG Export Plug-In . SVG Version: 6.00 Build 0)  -->
<svg version="1.1" id="Layer_1" xmlns="http://www.w3.org/2000/svg" xmlns:xlink="http://www.w3.org/1999/xlink" x="0px" y="0px"
	 viewBox="0 0 184.96 47.22" style="enable-background:new 0 0 184.96 47.22;" xml:space="preserve">
<style type="text/css">
	.st0{fill:#FFFFFF;}
	.st1{fill:#3E3A39;}
	.st2{fill:#FABE00;}
	.st3{fill:#EFEFEF;}
	.st4{fill:#DCDDDD;}
	.st5{fill:#C9CACA;}
	.st6{fill:#B5B5B6;}
	.st7{fill:#9FA0A0;}
	.st8{fill:#898989;}
	.st9{fill:#727171;}
	.st10{fill:#595757;}
	.st11{fill:#F39800;}
	.st12{fill:#FFE100;}
</style>
<rect x="367.09" y="-145.04" class="st0" width="595.28" height="841.89"/>
<g>
	<g>
		<path class="st1" d="M606.73-97.98c-5.6-3.55-12.84-3.17-18.03,0.96c-5.2,4.12-7.21,11.08-5.03,17.34
			c2.18,6.26,8.09,10.46,14.72,10.46c5.04,0,9.92-2.32,13.18-6.12c-2.61-0.95-5.23-1.9-7.84-2.85c-1.63,1.32-3.24,1.89-5.34,1.89
			c-3.08,0-5.42-2.29-6.44-4.96c7.21,0,14.42,0,21.62,0C615.08-87.72,612.33-94.43,606.73-97.98z M591.94-88.35
			c2.53-6.61,10.36-6.61,12.88,0C600.53-88.35,596.24-88.35,591.94-88.35z"/>
		<path class="st1" d="M540.28-100.4v-8.5h-8.5v31.18l8.5,8.5h7.09c8.61,0,15.59-6.98,15.59-15.59c0-8.61-6.98-15.59-15.59-15.59
			H540.28z M547.36-91.89c3.91,0,7.09,3.17,7.09,7.09c0,3.91-3.17,7.09-7.09,7.09h-7.09v-14.17H547.36z"/>
		<rect x="568.62" y="-108.9" class="st1" width="8.5" height="39.69"/>
		<g>
			<polygon class="st1" points="513.35,-108.9 504.84,-100.4 504.84,-69.22 513.35,-69.22 513.35,-100.4 527.52,-100.4 
				527.52,-108.9 			"/>
			<polygon class="st1" points="490.67,-108.9 490.67,-100.4 500.83,-100.4 509.34,-108.9 			"/>
		</g>
	</g>
	<g>
		<path class="st2" d="M459.04-76.52c-9.33,0-16.9-7.57-16.9-16.9c0-7.54,4.95-13.93,11.77-16.1c-5.58-1.74-12.05-0.7-16.93,4.19
			c-10.64,10.64-3.1,28.83,11.94,28.83c0,3.92-1.03,7-3.38,10.13c5.57-1.8,10.58-5.46,14.22-10.16
			C459.53-76.53,459.29-76.52,459.04-76.52z"/>
		<path class="st2" d="M450.51-105.34c-10.64,10.64-3.1,28.83,11.94,28.83c0,3.92-1.03,7-3.38,10.13
			c11.28-3.64,20.26-14.92,20.26-27.02C479.33-108.44,461.14-115.98,450.51-105.34z"/>
	</g>
</g>
<g>
	<g>
		<path class="st1" d="M176.45,13.95c-5.6-3.55-12.84-3.16-18.03,0.96c-5.2,4.12-7.21,11.08-5.03,17.34
			c2.18,6.26,8.09,10.46,14.72,10.46c5.04,0,9.92-2.32,13.18-6.12c-2.61-0.95-5.23-1.9-7.84-2.85c-1.63,1.32-3.24,1.89-5.34,1.89
			c-3.08,0-5.42-2.29-6.44-4.96c7.21,0,14.42,0,21.62,0C184.8,24.2,182.06,17.5,176.45,13.95z M161.67,23.58
			c2.53-6.61,10.36-6.61,12.88,0C170.26,23.58,165.96,23.58,161.67,23.58z"/>
		<path class="st1" d="M110,11.53v-8.5h-8.5v31.18l8.5,8.5h7.09c8.61,0,15.59-6.98,15.59-15.59c0-8.61-6.98-15.59-15.59-15.59H110z
			 M117.09,20.03c3.91,0,7.09,3.17,7.09,7.09c0,3.91-3.17,7.09-7.09,7.09H110V20.03H117.09z"/>
		<rect x="138.35" y="3.02" class="st1" width="8.5" height="39.69"/>
		<g>
			<polygon class="st1" points="83.07,3.03 74.57,11.53 74.57,42.71 83.07,42.71 83.07,11.53 97.24,11.53 97.24,3.02 			"/>
			<polygon class="st1" points="60.39,3.03 60.39,11.53 70.56,11.53 79.06,3.03 			"/>
		</g>
	</g>
	<g>
		<path class="st2" d="M28.77,35.4c-9.33,0-16.9-7.57-16.9-16.9c0-7.54,4.95-13.93,11.77-16.1C18.07,0.66,11.6,1.7,6.71,6.59
			c-10.64,10.64-3.1,28.83,11.94,28.83c0,3.92-1.03,7-3.38,10.13c5.57-1.8,10.58-5.46,14.22-10.16
			C29.26,35.39,29.01,35.4,28.77,35.4z"/>
		<path class="st2" d="M20.23,6.59c-10.64,10.64-3.1,28.83,11.94,28.83c0,3.92-1.03,7-3.38,10.13
			c11.28-3.64,20.26-14.92,20.26-27.02C49.06,3.48,30.87-4.05,20.23,6.59z"/>
	</g>
</g>
<rect x="664.72" y="-145.04" class="st1" width="297.64" height="311.81"/>
<rect x="962.36" y="-145.04" class="st3" width="297.64" height="84.19"/>
<rect x="962.36" y="-60.85" class="st4" width="297.64" height="84.19"/>
<rect x="962.36" y="23.33" class="st5" width="297.64" height="84.19"/>
<rect x="962.36" y="107.52" class="st6" width="297.64" height="84.19"/>
<rect x="962.36" y="191.71" class="st7" width="297.64" height="84.19"/>
<rect x="962.36" y="275.9" class="st8" width="297.64" height="84.19"/>
<rect x="962.36" y="360.09" class="st9" width="297.64" height="84.19"/>
<rect x="962.36" y="444.28" class="st10" width="297.64" height="84.19"/>
<rect x="962.36" y="528.47" class="st1" width="297.64" height="84.19"/>
<rect x="962.36" y="612.66" width="297.64" height="84.19"/>
<g>
	<g>
		<path class="st0" d="M904.37-97.98c-5.6-3.55-12.84-3.17-18.03,0.96c-5.2,4.12-7.21,11.08-5.03,17.34
			c2.18,6.26,8.09,10.46,14.72,10.46c5.04,0,9.92-2.32,13.18-6.12c-2.61-0.95-5.23-1.9-7.84-2.85c-1.63,1.32-3.24,1.89-5.34,1.89
			c-3.08,0-5.42-2.29-6.44-4.96c7.21,0,14.42,0,21.62,0C912.71-87.72,909.97-94.43,904.37-97.98z M889.58-88.35
			c2.53-6.61,10.36-6.61,12.88,0C898.17-88.35,893.88-88.35,889.58-88.35z"/>
		<path class="st0" d="M837.91-100.4v-8.5h-8.5v31.18l8.5,8.5H845c8.61,0,15.59-6.98,15.59-15.59c0-8.61-6.98-15.59-15.59-15.59
			H837.91z M845-91.89c3.91,0,7.09,3.17,7.09,7.09c0,3.91-3.17,7.09-7.09,7.09h-7.09v-14.17H845z"/>
		<rect x="866.26" y="-108.9" class="st0" width="8.5" height="39.69"/>
		<g>
			<polygon class="st0" points="810.98,-108.9 802.48,-100.4 802.48,-69.22 810.98,-69.22 810.98,-100.4 825.16,-100.4 
				825.16,-108.9 			"/>
			<polygon class="st0" points="788.31,-108.9 788.31,-100.4 798.47,-100.4 806.98,-108.9 			"/>
		</g>
	</g>
	<g>
		<path class="st2" d="M756.68-76.52c-9.33,0-16.9-7.57-16.9-16.9c0-7.54,4.95-13.93,11.77-16.1c-5.58-1.74-12.05-0.7-16.93,4.19
			c-10.64,10.64-3.1,28.83,11.94,28.83c0,3.92-1.03,7-3.38,10.13c5.57-1.8,10.58-5.46,14.22-10.16
			C757.17-76.53,756.93-76.52,756.68-76.52z"/>
		<path class="st2" d="M748.14-105.34c-10.64,10.64-3.1,28.83,11.94,28.83c0,3.92-1.03,7-3.38,10.13
			c11.28-3.64,20.26-14.92,20.26-27.02C776.97-108.44,758.78-115.98,748.14-105.34z"/>
	</g>
</g>
<g>
	<g>
		<path d="M1176.01-110.4c-4.34-2.75-9.94-2.45-13.96,0.74c-4.02,3.19-5.58,8.58-3.9,13.43c1.69,4.85,6.26,8.1,11.4,8.1
			c3.9,0,7.68-1.79,10.21-4.74c-2.02-0.74-4.05-1.47-6.07-2.21c-1.26,1.02-2.51,1.46-4.14,1.46c-2.39,0-4.2-1.77-4.99-3.84
			c5.58,0,11.16,0,16.74,0C1182.47-102.46,1180.35-107.65,1176.01-110.4z M1164.56-102.95c1.96-5.12,8.02-5.12,9.97,0
			C1171.21-102.95,1167.89-102.95,1164.56-102.95z"/>
		<path d="M1124.56-112.28v-6.58h-6.58v24.14l6.58,6.58h5.49c6.67,0,12.07-5.4,12.07-12.07c0-6.67-5.4-12.07-12.07-12.07H1124.56z
			 M1130.05-105.69c3.03,0,5.49,2.46,5.49,5.49c0,3.03-2.46,5.49-5.49,5.49h-5.49v-10.97H1130.05z"/>
		<rect x="1146.51" y="-118.86" width="6.58" height="30.72"/>
		<g>
			<polygon points="1103.71,-118.86 1097.13,-112.28 1097.13,-88.14 1103.71,-88.14 1103.71,-112.28 1114.69,-112.28 
				1114.69,-118.86 			"/>
			<polygon points="1086.16,-118.86 1086.16,-112.28 1094.03,-112.28 1100.61,-118.86 			"/>
		</g>
	</g>
	<g>
		<path d="M1061.67-93.79c-7.22,0-13.08-5.86-13.08-13.08c0-5.84,3.83-10.79,9.11-12.47c-4.32-1.35-9.33-0.54-13.11,3.24
			c-8.24,8.24-2.4,22.32,9.24,22.32c0,3.03-0.8,5.42-2.61,7.84c4.31-1.39,8.19-4.23,11.01-7.87
			C1062.05-93.8,1061.86-93.79,1061.67-93.79z"/>
		<path d="M1055.06-116.1c-8.24,8.24-2.4,22.32,9.24,22.32c0,3.03-0.8,5.42-2.61,7.84c8.74-2.82,15.69-11.55,15.69-20.92
			C1077.38-118.5,1063.3-124.34,1055.06-116.1z"/>
	</g>
</g>
<g>
	<g>
		<path d="M1176.01-26.21c-4.34-2.75-9.94-2.45-13.96,0.74c-4.02,3.19-5.58,8.58-3.9,13.43c1.69,4.85,6.26,8.1,11.4,8.1
			c3.9,0,7.68-1.79,10.21-4.74c-2.02-0.74-4.05-1.47-6.07-2.21c-1.26,1.02-2.51,1.46-4.14,1.46c-2.39,0-4.2-1.77-4.99-3.84
			c5.58,0,11.16,0,16.74,0C1182.47-18.27,1180.35-23.46,1176.01-26.21z M1164.56-18.76c1.96-5.12,8.02-5.12,9.97,0
			C1171.21-18.76,1167.89-18.76,1164.56-18.76z"/>
		<path d="M1124.56-28.09v-6.58h-6.58v24.14l6.58,6.58h5.49c6.67,0,12.07-5.4,12.07-12.07s-5.4-12.07-12.07-12.07H1124.56z
			 M1130.05-21.5c3.03,0,5.49,2.46,5.49,5.49c0,3.03-2.46,5.49-5.49,5.49h-5.49V-21.5H1130.05z"/>
		<rect x="1146.51" y="-34.67" width="6.58" height="30.72"/>
		<g>
			<polygon points="1103.71,-34.67 1097.13,-28.09 1097.13,-3.95 1103.71,-3.95 1103.71,-28.09 1114.69,-28.09 1114.69,-34.67 			
				"/>
			<polygon points="1086.16,-34.67 1086.16,-28.09 1094.03,-28.09 1100.61,-34.67 			"/>
		</g>
	</g>
	<g>
		<path d="M1061.67-9.6c-7.22,0-13.08-5.86-13.08-13.08c0-5.84,3.83-10.79,9.11-12.47c-4.32-1.35-9.33-0.54-13.11,3.24
			c-8.24,8.24-2.4,22.32,9.24,22.32c0,3.03-0.8,5.42-2.61,7.84c4.31-1.39,8.19-4.23,11.01-7.87
			C1062.05-9.61,1061.86-9.6,1061.67-9.6z"/>
		<path d="M1055.06-31.91c-8.24,8.24-2.4,22.32,9.24,22.32c0,3.03-0.8,5.42-2.61,7.84c8.74-2.82,15.69-11.55,15.69-20.92
			C1077.38-34.32,1063.3-40.15,1055.06-31.91z"/>
	</g>
</g>
<g>
	<g>
		<path d="M1176.01,57.98c-4.34-2.75-9.94-2.45-13.96,0.74s-5.58,8.58-3.9,13.43c1.69,4.85,6.26,8.1,11.4,8.1
			c3.9,0,7.68-1.79,10.21-4.74c-2.02-0.74-4.05-1.47-6.07-2.21c-1.26,1.02-2.51,1.46-4.14,1.46c-2.39,0-4.2-1.77-4.99-3.84
			c5.58,0,11.16,0,16.74,0C1182.47,65.92,1180.35,60.72,1176.01,57.98z M1164.56,65.43c1.96-5.12,8.02-5.12,9.97,0
			C1171.21,65.43,1167.89,65.43,1164.56,65.43z"/>
		<path d="M1124.56,56.1v-6.58h-6.58v24.14l6.58,6.58h5.49c6.67,0,12.07-5.4,12.07-12.07s-5.4-12.07-12.07-12.07H1124.56z
			 M1130.05,62.69c3.03,0,5.49,2.46,5.49,5.49s-2.46,5.49-5.49,5.49h-5.49V62.69H1130.05z"/>
		<rect x="1146.51" y="49.52" width="6.58" height="30.72"/>
		<g>
			<polygon points="1103.71,49.52 1097.13,56.1 1097.13,80.24 1103.71,80.24 1103.71,56.1 1114.69,56.1 1114.69,49.52 			"/>
			<polygon points="1086.16,49.52 1086.16,56.1 1094.03,56.1 1100.61,49.52 			"/>
		</g>
	</g>
	<g>
		<path d="M1061.67,74.58c-7.22,0-13.08-5.86-13.08-13.08c0-5.84,3.83-10.79,9.11-12.47c-4.32-1.35-9.33-0.54-13.11,3.24
			c-8.24,8.24-2.4,22.32,9.24,22.32c0,3.03-0.8,5.42-2.61,7.84c4.31-1.39,8.19-4.23,11.01-7.87
			C1062.05,74.58,1061.86,74.58,1061.67,74.58z"/>
		<path d="M1055.06,52.28c-8.24,8.24-2.4,22.32,9.24,22.32c0,3.03-0.8,5.42-2.61,7.84c8.74-2.82,15.69-11.55,15.69-20.92
			C1077.38,49.87,1063.3,44.04,1055.06,52.28z"/>
	</g>
</g>
<g>
	<g>
		<path d="M1176.01,142.17c-4.34-2.75-9.94-2.45-13.96,0.74c-4.02,3.19-5.58,8.58-3.9,13.43c1.69,4.85,6.26,8.1,11.4,8.1
			c3.9,0,7.68-1.79,10.21-4.74c-2.02-0.74-4.05-1.47-6.07-2.21c-1.26,1.02-2.51,1.46-4.14,1.46c-2.39,0-4.2-1.77-4.99-3.84
			c5.58,0,11.16,0,16.74,0C1182.47,150.1,1180.35,144.91,1176.01,142.17z M1164.56,149.62c1.96-5.12,8.02-5.12,9.97,0
			C1171.21,149.62,1167.89,149.62,1164.56,149.62z"/>
		<path d="M1124.56,140.29v-6.58h-6.58v24.14l6.58,6.58h5.49c6.67,0,12.07-5.4,12.07-12.07c0-6.67-5.4-12.07-12.07-12.07H1124.56z
			 M1130.05,146.88c3.03,0,5.49,2.46,5.49,5.49c0,3.03-2.46,5.49-5.49,5.49h-5.49v-10.97H1130.05z"/>
		<rect x="1146.51" y="133.71" width="6.58" height="30.72"/>
		<g>
			<polygon points="1103.71,133.71 1097.13,140.29 1097.13,164.43 1103.71,164.43 1103.71,140.29 1114.69,140.29 1114.69,133.71 			
				"/>
			<polygon points="1086.16,133.71 1086.16,140.29 1094.03,140.29 1100.61,133.71 			"/>
		</g>
	</g>
	<g>
		<path d="M1061.67,158.77c-7.22,0-13.08-5.86-13.08-13.08c0-5.84,3.83-10.79,9.11-12.47c-4.32-1.35-9.33-0.54-13.11,3.24
			c-8.24,8.24-2.4,22.32,9.24,22.32c0,3.03-0.8,5.42-2.61,7.84c4.31-1.39,8.19-4.23,11.01-7.87
			C1062.05,158.77,1061.86,158.77,1061.67,158.77z"/>
		<path d="M1055.06,136.47c-8.24,8.24-2.4,22.32,9.24,22.32c0,3.03-0.8,5.42-2.61,7.84c8.74-2.82,15.69-11.55,15.69-20.92
			C1077.38,134.06,1063.3,128.23,1055.06,136.47z"/>
	</g>
</g>
<g>
	<g>
		<path class="st0" d="M1176.01,226.35c-4.34-2.75-9.94-2.45-13.96,0.74c-4.02,3.19-5.58,8.58-3.9,13.43
			c1.69,4.85,6.26,8.1,11.4,8.1c3.9,0,7.68-1.79,10.21-4.74c-2.02-0.74-4.05-1.47-6.07-2.21c-1.26,1.02-2.51,1.46-4.14,1.46
			c-2.39,0-4.2-1.77-4.99-3.84c5.58,0,11.16,0,16.74,0C1182.47,234.29,1180.35,229.1,1176.01,226.35z M1164.56,233.81
			c1.96-5.12,8.02-5.12,9.97,0C1171.21,233.81,1167.89,233.81,1164.56,233.81z"/>
		<path class="st0" d="M1124.56,224.48v-6.58h-6.58v24.14l6.58,6.58h5.49c6.67,0,12.07-5.4,12.07-12.07
			c0-6.67-5.4-12.07-12.07-12.07H1124.56z M1130.05,231.06c3.03,0,5.49,2.46,5.49,5.49c0,3.03-2.46,5.49-5.49,5.49h-5.49v-10.97
			H1130.05z"/>
		<rect x="1146.51" y="217.9" class="st0" width="6.58" height="30.72"/>
		<g>
			<polygon class="st0" points="1103.71,217.9 1097.13,224.48 1097.13,248.62 1103.71,248.62 1103.71,224.48 1114.69,224.48 
				1114.69,217.9 			"/>
			<polygon class="st0" points="1086.16,217.9 1086.16,224.48 1094.03,224.48 1100.61,217.9 			"/>
		</g>
	</g>
	<g>
		<path class="st0" d="M1061.67,242.96c-7.22,0-13.08-5.86-13.08-13.08c0-5.84,3.83-10.79,9.11-12.47
			c-4.32-1.35-9.33-0.54-13.11,3.24c-8.24,8.24-2.4,22.32,9.24,22.32c0,3.03-0.8,5.42-2.61,7.84c4.31-1.39,8.19-4.23,11.01-7.87
			C1062.05,242.96,1061.86,242.96,1061.67,242.96z"/>
		<path class="st0" d="M1055.06,220.65c-8.24,8.24-2.4,22.32,9.24,22.32c0,3.03-0.8,5.42-2.61,7.84
			c8.74-2.82,15.69-11.55,15.69-20.92C1077.38,218.25,1063.3,212.42,1055.06,220.65z"/>
	</g>
</g>
<g>
	<g>
		<path class="st0" d="M1176.01,310.54c-4.34-2.75-9.94-2.45-13.96,0.74c-4.02,3.19-5.58,8.58-3.9,13.43
			c1.69,4.85,6.26,8.1,11.4,8.1c3.9,0,7.68-1.79,10.21-4.74c-2.02-0.74-4.05-1.47-6.07-2.21c-1.26,1.02-2.51,1.46-4.14,1.46
			c-2.39,0-4.2-1.77-4.99-3.84c5.58,0,11.16,0,16.74,0C1182.47,318.48,1180.35,313.29,1176.01,310.54z M1164.56,318
			c1.96-5.12,8.02-5.12,9.97,0C1171.21,318,1167.89,318,1164.56,318z"/>
		<path class="st0" d="M1124.56,308.67v-6.58h-6.58v24.14l6.58,6.58h5.49c6.67,0,12.07-5.4,12.07-12.07
			c0-6.67-5.4-12.07-12.07-12.07H1124.56z M1130.05,315.25c3.03,0,5.49,2.46,5.49,5.49c0,3.03-2.46,5.49-5.49,5.49h-5.49v-10.97
			H1130.05z"/>
		<rect x="1146.51" y="302.09" class="st0" width="6.58" height="30.72"/>
		<g>
			<polygon class="st0" points="1103.71,302.09 1097.13,308.67 1097.13,332.81 1103.71,332.81 1103.71,308.67 1114.69,308.67 
				1114.69,302.09 			"/>
			<polygon class="st0" points="1086.16,302.09 1086.16,308.67 1094.03,308.67 1100.61,302.09 			"/>
		</g>
	</g>
	<g>
		<path class="st0" d="M1061.67,327.15c-7.22,0-13.08-5.86-13.08-13.08c0-5.84,3.83-10.79,9.11-12.47
			c-4.32-1.35-9.33-0.54-13.11,3.24c-8.24,8.24-2.4,22.32,9.24,22.32c0,3.03-0.8,5.42-2.61,7.84c4.31-1.39,8.19-4.23,11.01-7.87
			C1062.05,327.14,1061.86,327.15,1061.67,327.15z"/>
		<path class="st0" d="M1055.06,304.84c-8.24,8.24-2.4,22.32,9.24,22.32c0,3.03-0.8,5.42-2.61,7.84
			c8.74-2.82,15.69-11.55,15.69-20.92C1077.38,302.44,1063.3,296.61,1055.06,304.84z"/>
	</g>
</g>
<g>
	<g>
		<path class="st0" d="M1176.01,394.73c-4.34-2.75-9.94-2.45-13.96,0.74c-4.02,3.19-5.58,8.58-3.9,13.43
			c1.69,4.85,6.26,8.1,11.4,8.1c3.9,0,7.68-1.79,10.21-4.74c-2.02-0.74-4.05-1.47-6.07-2.21c-1.26,1.02-2.51,1.46-4.14,1.46
			c-2.39,0-4.2-1.77-4.99-3.84c5.58,0,11.16,0,16.74,0C1182.47,402.67,1180.35,397.48,1176.01,394.73z M1164.56,402.19
			c1.96-5.12,8.02-5.12,9.97,0C1171.21,402.19,1167.89,402.19,1164.56,402.19z"/>
		<path class="st0" d="M1124.56,392.86v-6.58h-6.58v24.14l6.58,6.58h5.49c6.67,0,12.07-5.4,12.07-12.07
			c0-6.67-5.4-12.07-12.07-12.07H1124.56z M1130.05,399.44c3.03,0,5.49,2.46,5.49,5.49c0,3.03-2.46,5.49-5.49,5.49h-5.49v-10.97
			H1130.05z"/>
		<rect x="1146.51" y="386.27" class="st0" width="6.58" height="30.72"/>
		<g>
			<polygon class="st0" points="1103.71,386.27 1097.13,392.86 1097.13,417 1103.71,417 1103.71,392.86 1114.69,392.86 
				1114.69,386.27 			"/>
			<polygon class="st0" points="1086.16,386.27 1086.16,392.86 1094.03,392.86 1100.61,386.27 			"/>
		</g>
	</g>
	<g>
		<path class="st0" d="M1061.67,411.34c-7.22,0-13.08-5.86-13.08-13.08c0-5.84,3.83-10.79,9.11-12.47
			c-4.32-1.35-9.33-0.54-13.11,3.24c-8.24,8.24-2.4,22.32,9.24,22.32c0,3.03-0.8,5.42-2.61,7.84c4.31-1.39,8.19-4.23,11.01-7.87
			C1062.05,411.33,1061.86,411.34,1061.67,411.34z"/>
		<path class="st0" d="M1055.06,389.03c-8.24,8.24-2.4,22.32,9.24,22.32c0,3.03-0.8,5.42-2.61,7.84
			c8.74-2.82,15.69-11.55,15.69-20.92C1077.38,386.63,1063.3,380.8,1055.06,389.03z"/>
	</g>
</g>
<g>
	<g>
		<path class="st0" d="M1176.01,478.92c-4.34-2.75-9.94-2.45-13.96,0.74c-4.02,3.19-5.58,8.58-3.9,13.43
			c1.69,4.85,6.26,8.1,11.4,8.1c3.9,0,7.68-1.79,10.21-4.74c-2.02-0.74-4.05-1.47-6.07-2.21c-1.26,1.02-2.51,1.46-4.14,1.46
			c-2.39,0-4.2-1.77-4.99-3.84c5.58,0,11.16,0,16.74,0C1182.47,486.86,1180.35,481.67,1176.01,478.92z M1164.56,486.37
			c1.96-5.12,8.02-5.12,9.97,0C1171.21,486.37,1167.89,486.37,1164.56,486.37z"/>
		<path class="st0" d="M1124.56,477.05v-6.58h-6.58v24.14l6.58,6.58h5.49c6.67,0,12.07-5.4,12.07-12.07
			c0-6.67-5.4-12.07-12.07-12.07H1124.56z M1130.05,483.63c3.03,0,5.49,2.46,5.49,5.49c0,3.03-2.46,5.49-5.49,5.49h-5.49v-10.97
			H1130.05z"/>
		<rect x="1146.51" y="470.46" class="st0" width="6.58" height="30.72"/>
		<g>
			<polygon class="st0" points="1103.71,470.46 1097.13,477.05 1097.13,501.19 1103.71,501.19 1103.71,477.05 1114.69,477.05 
				1114.69,470.46 			"/>
			<polygon class="st0" points="1086.16,470.46 1086.16,477.05 1094.03,477.05 1100.61,470.46 			"/>
		</g>
	</g>
	<g>
		<path class="st0" d="M1061.67,495.53c-7.22,0-13.08-5.86-13.08-13.08c0-5.84,3.83-10.79,9.11-12.47
			c-4.32-1.35-9.33-0.54-13.11,3.24c-8.24,8.24-2.4,22.32,9.24,22.32c0,3.03-0.8,5.42-2.61,7.84c4.31-1.39,8.19-4.23,11.01-7.87
			C1062.05,495.52,1061.86,495.53,1061.67,495.53z"/>
		<path class="st0" d="M1055.06,473.22c-8.24,8.24-2.4,22.32,9.24,22.32c0,3.03-0.8,5.42-2.61,7.84
			c8.74-2.82,15.69-11.55,15.69-20.92C1077.38,470.82,1063.3,464.99,1055.06,473.22z"/>
	</g>
</g>
<g>
	<g>
		<path class="st0" d="M1176.01,563.11c-4.34-2.75-9.94-2.45-13.96,0.74c-4.02,3.19-5.58,8.58-3.9,13.43
			c1.69,4.85,6.26,8.1,11.4,8.1c3.9,0,7.68-1.79,10.21-4.74c-2.02-0.74-4.05-1.47-6.07-2.21c-1.26,1.02-2.51,1.46-4.14,1.46
			c-2.39,0-4.2-1.77-4.99-3.84c5.58,0,11.16,0,16.74,0C1182.47,571.05,1180.35,565.86,1176.01,563.11z M1164.56,570.56
			c1.96-5.12,8.02-5.12,9.97,0C1171.21,570.56,1167.89,570.56,1164.56,570.56z"/>
		<path class="st0" d="M1124.56,561.24v-6.58h-6.58v24.14l6.58,6.58h5.49c6.67,0,12.07-5.4,12.07-12.07
			c0-6.67-5.4-12.07-12.07-12.07H1124.56z M1130.05,567.82c3.03,0,5.49,2.46,5.49,5.49c0,3.03-2.46,5.49-5.49,5.49h-5.49v-10.97
			H1130.05z"/>
		<rect x="1146.51" y="554.65" class="st0" width="6.58" height="30.72"/>
		<g>
			<polygon class="st0" points="1103.71,554.65 1097.13,561.24 1097.13,585.38 1103.71,585.38 1103.71,561.24 1114.69,561.24 
				1114.69,554.65 			"/>
			<polygon class="st0" points="1086.16,554.65 1086.16,561.24 1094.03,561.24 1100.61,554.65 			"/>
		</g>
	</g>
	<g>
		<path class="st0" d="M1061.67,579.72c-7.22,0-13.08-5.86-13.08-13.08c0-5.84,3.83-10.79,9.11-12.47
			c-4.32-1.35-9.33-0.54-13.11,3.24c-8.24,8.24-2.4,22.32,9.24,22.32c0,3.03-0.8,5.42-2.61,7.84c4.31-1.39,8.19-4.23,11.01-7.87
			C1062.05,579.71,1061.86,579.72,1061.67,579.72z"/>
		<path class="st0" d="M1055.06,557.41c-8.24,8.24-2.4,22.32,9.24,22.32c0,3.03-0.8,5.42-2.61,7.84
			c8.74-2.82,15.69-11.55,15.69-20.92C1077.38,555.01,1063.3,549.17,1055.06,557.41z"/>
	</g>
</g>
<g>
	<g>
		<path class="st0" d="M1176.01,647.3c-4.34-2.75-9.94-2.45-13.96,0.74s-5.58,8.58-3.9,13.43c1.69,4.85,6.26,8.1,11.4,8.1
			c3.9,0,7.68-1.79,10.21-4.74c-2.02-0.74-4.05-1.47-6.07-2.21c-1.26,1.02-2.51,1.46-4.14,1.46c-2.39,0-4.2-1.77-4.99-3.84
			c5.58,0,11.16,0,16.74,0C1182.47,655.24,1180.35,650.05,1176.01,647.3z M1164.56,654.75c1.96-5.12,8.02-5.12,9.97,0
			C1171.21,654.75,1167.89,654.75,1164.56,654.75z"/>
		<path class="st0" d="M1124.56,645.43v-6.58h-6.58v24.14l6.58,6.58h5.49c6.67,0,12.07-5.4,12.07-12.07
			c0-6.67-5.4-12.07-12.07-12.07H1124.56z M1130.05,652.01c3.03,0,5.49,2.46,5.49,5.49c0,3.03-2.46,5.49-5.49,5.49h-5.49v-10.97
			H1130.05z"/>
		<rect x="1146.51" y="638.84" class="st0" width="6.58" height="30.72"/>
		<g>
			<polygon class="st0" points="1103.71,638.84 1097.13,645.43 1097.13,669.57 1103.71,669.57 1103.71,645.43 1114.69,645.43 
				1114.69,638.84 			"/>
			<polygon class="st0" points="1086.16,638.84 1086.16,645.43 1094.03,645.43 1100.61,638.84 			"/>
		</g>
	</g>
	<g>
		<path class="st0" d="M1061.67,663.91c-7.22,0-13.08-5.86-13.08-13.08c0-5.84,3.83-10.79,9.11-12.47
			c-4.32-1.35-9.33-0.54-13.11,3.24c-8.24,8.24-2.4,22.32,9.24,22.32c0,3.03-0.8,5.42-2.61,7.84c4.31-1.39,8.19-4.23,11.01-7.87
			C1062.05,663.9,1061.86,663.91,1061.67,663.91z"/>
		<path class="st0" d="M1055.06,641.6c-8.24,8.24-2.4,22.32,9.24,22.32c0,3.03-0.8,5.42-2.61,7.84
			c8.74-2.82,15.69-11.55,15.69-20.92C1077.38,639.2,1063.3,633.36,1055.06,641.6z"/>
	</g>
</g>
<g>
	<g>
		<path class="st2" d="M537.15,207.87c-30.08,0-74.73,9.26-94.48,32.82c-13.36,15.94-8.9,33.08,12.56,44.18
			c16.4,8.48,37.12,10.87,53.6,10.87c30.08,0,74.73-9.26,94.48-32.82c13.36-15.94,8.9-33.08-12.56-44.18
			C574.35,210.26,553.63,207.87,537.15,207.87z"/>
	</g>
	<g>
		<path class="st1" d="M579.62,242.89c-5.6-3.55-12.84-3.17-18.03,0.96c-5.2,4.12-7.21,11.08-5.03,17.34
			c2.18,6.26,8.09,10.46,14.72,10.46c5.04,0,9.92-2.32,13.18-6.12c-2.61-0.95-5.23-1.9-7.84-2.85c-1.63,1.32-3.24,1.89-5.34,1.89
			c-3.08,0-5.42-2.29-6.44-4.96c7.21,0,14.42,0,21.62,0C587.97,253.14,585.22,246.44,579.62,242.89z M564.84,252.52
			c2.53-6.61,10.36-6.61,12.88,0C573.43,252.52,569.13,252.52,564.84,252.52z"/>
		<path class="st1" d="M513.17,240.47v-8.5h-8.5v31.18l8.5,8.5h7.09c8.61,0,15.59-6.98,15.59-15.59c0-8.61-6.98-15.59-15.59-15.59
			H513.17z M520.25,248.97c3.91,0,7.09,3.17,7.09,7.09c0,3.91-3.17,7.09-7.09,7.09h-7.09v-14.17H520.25z"/>
		<rect x="541.51" y="231.96" class="st1" width="8.5" height="39.69"/>
		<g>
			<polygon class="st1" points="486.24,231.96 477.74,240.47 477.74,271.65 486.24,271.65 486.24,240.47 500.41,240.47 
				500.41,231.96 			"/>
			<polygon class="st1" points="463.56,231.96 463.56,240.47 473.73,240.47 482.23,231.96 			"/>
		</g>
	</g>
</g>
<g>
	<path class="st1" d="M806.46,200.78c-20.47,0-39.65,2.64-59.02,10.01c-11.49,4.37-21.62,9.53-30.37,18.88
		c-5.58,5.97-9.82,13.39-9.82,22.13c0,8.75,4.24,16.18,9.83,22.14c8.76,9.35,18.9,14.51,30.4,18.88c19.36,7.36,38.53,10,58.98,10
		c20.47,0,39.65-2.64,59.02-10.01c11.49-4.37,21.62-9.53,30.37-18.88c5.59-5.97,9.82-13.39,9.82-22.13c0-8.75-4.24-16.18-9.83-22.14
		c-8.76-9.35-18.9-14.51-30.4-18.88C846.08,203.42,826.91,200.78,806.46,200.78z"/>
	<g>
		<path class="st2" d="M820.62,207.87c-30.08,0-74.73,9.26-94.48,32.82c-13.36,15.94-8.9,33.08,12.56,44.18
			c16.4,8.48,37.12,10.87,53.6,10.87c30.08,0,74.73-9.26,94.48-32.82c13.36-15.94,8.9-33.08-12.56-44.18
			C857.82,210.26,837.1,207.87,820.62,207.87z"/>
	</g>
	<g>
		<path class="st1" d="M863.09,242.89c-5.6-3.55-12.84-3.17-18.03,0.96s-7.21,11.08-5.03,17.34c2.18,6.26,8.09,10.46,14.72,10.46
			c5.04,0,9.92-2.32,13.18-6.12c-2.61-0.95-5.23-1.9-7.84-2.85c-1.63,1.32-3.24,1.89-5.34,1.89c-3.08,0-5.42-2.29-6.44-4.96
			c7.21,0,14.42,0,21.62,0C871.43,253.14,868.69,246.44,863.09,242.89z M848.3,252.52c2.53-6.61,10.36-6.61,12.88,0
			C856.89,252.52,852.6,252.52,848.3,252.52z"/>
		<path class="st1" d="M796.63,240.47v-8.5h-8.5v31.18l8.5,8.5h7.09c8.61,0,15.59-6.98,15.59-15.59c0-8.61-6.98-15.59-15.59-15.59
			H796.63z M803.72,248.97c3.91,0,7.09,3.17,7.09,7.09c0,3.91-3.17,7.09-7.09,7.09h-7.09v-14.17H803.72z"/>
		<rect x="824.98" y="231.96" class="st1" width="8.5" height="39.69"/>
		<g>
			<polygon class="st1" points="769.7,231.96 761.2,240.47 761.2,271.65 769.7,271.65 769.7,240.47 783.88,240.47 783.88,231.96 			
				"/>
			<polygon class="st1" points="747.03,231.96 747.03,240.47 757.19,240.47 765.7,231.96 			"/>
		</g>
	</g>
</g>
<g>
	<g>
		<path class="st1" d="M537.15,335.43c-30.08,0-74.73,9.26-94.48,32.82c-13.36,15.94-8.9,33.08,12.56,44.18
			c16.4,8.48,37.12,10.87,53.6,10.87c30.08,0,74.73-9.26,94.48-32.82c13.36-15.94,8.9-33.08-12.56-44.18
			C574.35,337.82,553.63,335.43,537.15,335.43z"/>
	</g>
	<g>
		<path class="st2" d="M579.62,370.45c-5.6-3.55-12.84-3.17-18.03,0.96c-5.2,4.12-7.21,11.08-5.03,17.34
			c2.18,6.26,8.09,10.46,14.72,10.46c5.04,0,9.92-2.32,13.18-6.12c-2.61-0.95-5.23-1.9-7.84-2.85c-1.63,1.32-3.24,1.89-5.34,1.89
			c-3.08,0-5.42-2.29-6.44-4.96c7.21,0,14.42,0,21.62,0C587.97,380.7,585.22,374,579.62,370.45z M564.84,380.08
			c2.53-6.61,10.36-6.61,12.88,0C573.43,380.08,569.13,380.08,564.84,380.08z"/>
		<path class="st2" d="M513.17,368.03v-8.5h-8.5v31.18l8.5,8.5h7.09c8.61,0,15.59-6.98,15.59-15.59c0-8.61-6.98-15.59-15.59-15.59
			H513.17z M520.25,376.53c3.91,0,7.09,3.17,7.09,7.09c0,3.91-3.17,7.09-7.09,7.09h-7.09v-14.17H520.25z"/>
		<rect x="541.51" y="359.52" class="st2" width="8.5" height="39.69"/>
		<g>
			<polygon class="st2" points="486.24,359.52 477.74,368.03 477.74,399.21 486.24,399.21 486.24,368.03 500.41,368.03 
				500.41,359.52 			"/>
			<polygon class="st2" points="463.56,359.52 463.56,368.03 473.73,368.03 482.23,359.52 			"/>
		</g>
	</g>
</g>
<circle class="st2" cx="460.63" cy="521.1" r="42.52"/>
<circle class="st11" cx="868.82" cy="521.1" r="42.52"/>
<circle class="st12" cx="732.76" cy="521.1" r="42.52"/>
<text transform="matrix(1 0 0 1 439.8133 596.9472)"><tspan x="0" y="0" style="font-family:'MyriadPro-Bold'; font-size:18px;">Main</tspan><tspan x="-26.04" y="24" style="font-family:'MyriadPro-Regular'; font-size:14px;">C0 M30 Y100 K0</tspan><tspan x="-19.37" y="48" style="font-family:'MyriadPro-Regular'; font-size:14px;">R251 G186 B0</tspan><tspan x="-5.12" y="72" style="font-family:'MyriadPro-Regular'; font-size:14px;">#FBBA00</tspan></text>
<circle class="st1" cx="596.69" cy="521.1" r="42.52"/>
<text transform="matrix(1 0 0 1 576.9383 596.9472)"><tspan x="0" y="0" style="font-family:'MyriadPro-Bold'; font-size:18px;">Sub1</tspan><tspan x="-19.92" y="24" style="font-family:'MyriadPro-Regular'; font-size:14px;">C0 M0 Y0 K90</tspan><tspan x="-16.84" y="48" style="font-family:'MyriadPro-Regular'; font-size:14px;">R60 G60 B60</tspan><tspan x="-6.68" y="72" style="font-family:'MyriadPro-Regular'; font-size:14px;">#3C3C3C</tspan></text>
<text transform="matrix(1 0 0 1 849.0643 596.9472)"><tspan x="0" y="0" style="font-family:'MyriadPro-Bold'; font-size:18px;">Sub3</tspan><tspan x="-27.1" y="24" style="font-family:'MyriadPro-Regular'; font-size:14px;">C0 M50 Y100 K0</tspan><tspan x="-20.43" y="48" style="font-family:'MyriadPro-Regular'; font-size:14px;">R243 G146 B0</tspan><tspan x="-5.09" y="72" style="font-family:'MyriadPro-Regular'; font-size:14px;">#F39200</tspan></text>
<text transform="matrix(1 0 0 1 713.0013 596.9472)"><tspan x="0" y="0" style="font-family:'MyriadPro-Bold'; font-size:18px;">Sub2</tspan><tspan x="-27.1" y="24" style="font-family:'MyriadPro-Regular'; font-size:14px;">C0 M10 Y100 K0</tspan><tspan x="-20.43" y="48" style="font-family:'MyriadPro-Regular'; font-size:14px;">R255 G221 B0</tspan><tspan x="-7.05" y="72" style="font-family:'MyriadPro-Regular'; font-size:14px;">#FFDD00</tspan></text>
<g>
	<g>
		
			<ellipse transform="matrix(0.8417 -0.54 0.54 0.8417 -77.1669 495.5567)" class="st1" cx="806.46" cy="379.37" rx="36.85" ry="36.85"/>
		
			<ellipse transform="matrix(0.7485 -0.6632 0.6632 0.7485 -48.7391 630.2265)" class="st2" cx="806.46" cy="379.37" rx="34.39" ry="27"/>
	</g>
	<g>
		<polygon class="st1" points="788.03,372.28 788.03,363.78 824.88,363.78 824.88,372.28 810.71,372.28 810.71,403.46 
			802.21,403.46 802.21,372.28 		"/>
	</g>
</g>
<text transform="matrix(1 0 0 1 977.08 215.8354)" class="st0" style="font-family:'MyriadPro-Bold'; font-size:14px;">50%</text>
<text transform="matrix(1 0 0 1 977.08 131.6465)" style="font-family:'MyriadPro-Bold'; font-size:14px;">40%</text>
<text transform="matrix(1 0 0 1 977.08 47.4575)" style="font-family:'MyriadPro-Bold'; font-size:14px;">30%</text>
<text transform="matrix(1 0 0 1 977.08 -36.7315)" style="font-family:'MyriadPro-Bold'; font-size:14px;">20%</text>
<text transform="matrix(1 0 0 1 977.08 -120.9205)" style="font-family:'MyriadPro-Bold'; font-size:14px;">10%</text>
<text transform="matrix(1 0 0 1 977.08 300.0244)" class="st0" style="font-family:'MyriadPro-Bold'; font-size:14px;">60%</text>
<text transform="matrix(1 0 0 1 977.08 384.2134)" class="st0" style="font-family:'MyriadPro-Bold'; font-size:14px;">70%</text>
<text transform="matrix(1 0 0 1 977.08 468.4024)" class="st0" style="font-family:'MyriadPro-Bold'; font-size:14px;">80%</text>
<text transform="matrix(1 0 0 1 977.08 552.5914)" class="st0" style="font-family:'MyriadPro-Bold'; font-size:14px;">90%</text>
<text transform="matrix(1 0 0 1 977.08 636.7803)" class="st0" style="font-family:'MyriadPro-Bold'; font-size:14px;">100%</text>
<g>
	<g>
		<path class="st2" d="M528.65,64.46c-15.66,0-28.35-12.69-28.35-28.35c0-12.66,8.3-23.37,19.75-27.01
			c-9.35-2.92-20.21-1.17-28.4,7.02c-17.85,17.85-5.21,48.36,20.03,48.36c0,6.57-1.72,11.74-5.67,17
			c9.35-3.02,17.75-9.16,23.86-17.05C529.47,64.45,529.06,64.46,528.65,64.46z"/>
		<path class="st2" d="M514.33,16.12c-17.85,17.85-5.21,48.36,20.03,48.36c0,6.57-1.72,11.74-5.67,17
			c18.93-6.11,33.99-25.03,33.99-45.32C562.69,10.92,532.17-1.72,514.33,16.12z"/>
	</g>
	<g>
		<path class="st1" d="M577.4,106.57c-5.6-3.55-12.84-3.17-18.03,0.96c-5.2,4.12-7.21,11.08-5.03,17.34
			c2.18,6.26,8.09,10.46,14.72,10.46c5.04,0,9.92-2.32,13.18-6.12c-2.61-0.95-5.23-1.9-7.84-2.85c-1.63,1.32-3.24,1.89-5.34,1.89
			c-3.08,0-5.42-2.29-6.44-4.96c7.21,0,14.42,0,21.62,0C585.74,116.83,583,110.12,577.4,106.57z M562.61,116.2
			c2.53-6.61,10.36-6.61,12.88,0C571.2,116.2,566.91,116.2,562.61,116.2z"/>
		<path class="st1" d="M510.94,104.15v-8.5h-8.5v31.18l8.5,8.5h7.09c8.61,0,15.59-6.98,15.59-15.59c0-8.61-6.98-15.59-15.59-15.59
			H510.94z M518.03,112.66c3.91,0,7.09,3.17,7.09,7.09c0,3.91-3.17,7.09-7.09,7.09h-7.09v-14.17H518.03z"/>
		<rect x="539.29" y="95.65" class="st1" width="8.5" height="39.69"/>
		<g>
			<polygon class="st1" points="484.02,95.65 475.51,104.15 475.51,135.34 484.02,135.34 484.02,104.15 498.19,104.15 498.19,95.65 
							"/>
			<polygon class="st1" points="461.34,95.65 461.34,104.16 471.5,104.16 480.01,95.65 			"/>
		</g>
	</g>
</g>
<g>
	<g>
		<path class="st2" d="M826.29,64.46c-15.66,0-28.35-12.69-28.35-28.35c0-12.66,8.3-23.37,19.75-27.01
			c-9.35-2.92-20.21-1.17-28.4,7.02c-17.85,17.85-5.21,48.36,20.03,48.36c0,6.57-1.72,11.74-5.67,17
			c9.35-3.02,17.75-9.16,23.86-17.05C827.11,64.45,826.7,64.46,826.29,64.46z"/>
		<path class="st2" d="M811.97,16.12c-17.85,17.85-5.21,48.36,20.03,48.36c0,6.57-1.72,11.74-5.67,17
			c18.93-6.11,33.99-25.03,33.99-45.32C860.32,10.92,829.81-1.72,811.97,16.12z"/>
	</g>
	<g>
		<path class="st0" d="M875.04,106.57c-5.6-3.55-12.84-3.17-18.03,0.96c-5.2,4.12-7.21,11.08-5.03,17.34
			c2.18,6.26,8.09,10.46,14.72,10.46c5.04,0,9.92-2.32,13.18-6.12c-2.61-0.95-5.23-1.9-7.84-2.85c-1.63,1.32-3.24,1.89-5.34,1.89
			c-3.08,0-5.42-2.29-6.44-4.96c7.21,0,14.42,0,21.62,0C883.38,116.83,880.64,110.12,875.04,106.57z M860.25,116.2
			c2.53-6.61,10.36-6.61,12.88,0C868.84,116.2,864.55,116.2,860.25,116.2z"/>
		<path class="st0" d="M808.58,104.15v-8.5h-8.5v31.18l8.5,8.5h7.09c8.61,0,15.59-6.98,15.59-15.59c0-8.61-6.98-15.59-15.59-15.59
			H808.58z M815.67,112.66c3.91,0,7.09,3.17,7.09,7.09c0,3.91-3.17,7.09-7.09,7.09h-7.09v-14.17H815.67z"/>
		<rect x="836.93" y="95.65" class="st0" width="8.5" height="39.69"/>
		<g>
			<polygon class="st0" points="781.65,95.65 773.15,104.15 773.15,135.34 781.65,135.34 781.65,104.15 795.83,104.15 795.83,95.65 
							"/>
			<polygon class="st0" points="758.98,95.65 758.98,104.16 769.14,104.16 777.65,95.65 			"/>
		</g>
	</g>
</g>
</svg>
