<?xml version="1.0" encoding="utf-8"?>
<!-- Generator: Adobe Illustrator 26.0.3, SVG Export Plug-In . SVG Version: 6.00 Build 0)  -->
<svg version="1.1" id="Layer_1" xmlns="http://www.w3.org/2000/svg" xmlns:xlink="http://www.w3.org/1999/xlink" x="0px" y="0px"
	 viewBox="0 0 187.3 48" style="enable-background:new 0 0 187.3 48;" xml:space="preserve">
<style type="text/css">
	.st0{fill:#FFFFFF;}
	.st1{fill:#3E3A39;}
	.st2{fill:#FABE00;}
	.st3{fill:#EFEFEF;}
	.st4{fill:#DCDDDD;}
	.st5{fill:#C9CACA;}
	.st6{fill:#B5B5B6;}
	.st7{fill:#9FA0A0;}
	.st8{fill:#898989;}
	.st9{fill:#727171;}
	.st10{fill:#595757;}
	.st11{fill:#F39800;}
	.st12{fill:#FFE100;}
</style>
<rect x="233" y="-168.26" class="st0" width="595.28" height="841.89"/>
<g>
	<g>
		<path class="st1" d="M472.64-121.19c-5.6-3.55-12.84-3.17-18.03,0.96c-5.2,4.12-7.21,11.08-5.03,17.34
			c2.18,6.26,8.09,10.46,14.72,10.46c5.04,0,9.92-2.32,13.18-6.12c-2.61-0.95-5.23-1.9-7.84-2.85c-1.63,1.32-3.24,1.89-5.34,1.89
			c-3.08,0-5.42-2.29-6.44-4.96c7.21,0,14.42,0,21.62,0C480.99-110.94,478.24-117.65,472.64-121.19z M457.86-111.57
			c2.53-6.61,10.36-6.61,12.88,0C466.45-111.57,462.15-111.57,457.86-111.57z"/>
		<path class="st1" d="M406.19-123.61v-8.5h-8.5v31.18l8.5,8.5h7.09c8.61,0,15.59-6.98,15.59-15.59c0-8.61-6.98-15.59-15.59-15.59
			H406.19z M413.28-115.11c3.91,0,7.09,3.17,7.09,7.09c0,3.91-3.17,7.09-7.09,7.09h-7.09v-14.17H413.28z"/>
		<rect x="434.54" y="-132.12" class="st1" width="8.5" height="39.69"/>
		<g>
			<polygon class="st1" points="379.26,-132.12 370.76,-123.61 370.76,-92.43 379.26,-92.43 379.26,-123.61 393.43,-123.61 
				393.43,-132.12 			"/>
			<polygon class="st1" points="356.58,-132.12 356.58,-123.61 366.75,-123.61 375.25,-132.12 			"/>
		</g>
	</g>
	<g>
		<path class="st2" d="M324.96-99.74c-9.33,0-16.9-7.57-16.9-16.9c0-7.54,4.95-13.93,11.77-16.1c-5.58-1.74-12.05-0.7-16.93,4.19
			c-10.64,10.64-3.1,28.83,11.94,28.83c0,3.92-1.03,7-3.38,10.13c5.57-1.8,10.58-5.46,14.22-10.16
			C325.44-99.75,325.2-99.74,324.96-99.74z"/>
		<path class="st2" d="M316.42-128.56c-10.64,10.64-3.1,28.83,11.94,28.83c0,3.92-1.03,7-3.38,10.13
			c11.28-3.64,20.26-14.92,20.26-27.02C345.24-131.66,327.06-139.19,316.42-128.56z"/>
	</g>
</g>
<rect x="530.64" y="-168.26" class="st1" width="297.64" height="311.81"/>
<rect x="828.28" y="-168.26" class="st3" width="297.64" height="84.19"/>
<rect x="828.28" y="-84.07" class="st4" width="297.64" height="84.19"/>
<rect x="828.28" y="0.12" class="st5" width="297.64" height="84.19"/>
<rect x="828.28" y="84.31" class="st6" width="297.64" height="84.19"/>
<rect x="828.28" y="168.5" class="st7" width="297.64" height="84.19"/>
<rect x="828.28" y="252.68" class="st8" width="297.64" height="84.19"/>
<rect x="828.28" y="336.87" class="st9" width="297.64" height="84.19"/>
<rect x="828.28" y="421.06" class="st10" width="297.64" height="84.19"/>
<rect x="828.28" y="505.25" class="st1" width="297.64" height="84.19"/>
<rect x="828.28" y="589.44" width="297.64" height="84.19"/>
<g>
	<g>
		<path class="st0" d="M178.62,15.13c-5.6-3.55-12.84-3.16-18.03,0.96c-5.2,4.12-7.21,11.08-5.03,17.34
			c2.18,6.26,8.09,10.46,14.72,10.46c5.04,0,9.92-2.32,13.18-6.12c-2.61-0.95-5.23-1.9-7.84-2.85c-1.63,1.32-3.24,1.89-5.34,1.89
			c-3.08,0-5.42-2.29-6.44-4.96c7.21,0,14.42,0,21.62,0C186.97,25.39,184.23,18.68,178.62,15.13z M163.84,24.76
			c2.53-6.61,10.36-6.61,12.88,0C172.43,24.76,168.13,24.76,163.84,24.76z"/>
		<path class="st0" d="M112.17,12.71v-8.5h-8.5v31.18l8.5,8.5h7.09c8.61,0,15.59-6.98,15.59-15.59c0-8.61-6.98-15.59-15.59-15.59
			H112.17z M119.26,21.22c3.91,0,7.09,3.17,7.09,7.09c0,3.91-3.17,7.09-7.09,7.09h-7.09V21.22H119.26z"/>
		<rect x="140.52" y="4.21" class="st0" width="8.5" height="39.69"/>
		<g>
			<polygon class="st0" points="85.24,4.21 76.74,12.71 76.74,43.89 85.24,43.89 85.24,12.71 99.42,12.71 99.42,4.21 			"/>
			<polygon class="st0" points="62.57,4.21 62.57,12.71 72.73,12.71 81.23,4.21 			"/>
		</g>
	</g>
	<g>
		<path class="st0" d="M30.94,36.58c-9.33,0-16.9-7.57-16.9-16.9c0-7.54,4.95-13.93,11.77-16.1c-5.58-1.74-12.05-0.7-16.93,4.19
			C-1.75,18.41,5.78,36.6,20.82,36.6c0,3.92-1.03,7-3.38,10.13c5.57-1.8,10.58-5.46,14.22-10.16
			C31.43,36.58,31.18,36.58,30.94,36.58z"/>
		<path class="st0" d="M22.4,7.77C11.76,18.41,19.3,36.6,34.34,36.6c0,3.92-1.03,7-3.38,10.13c11.28-3.64,20.26-14.92,20.26-27.02
			C51.23,4.67,33.04-2.87,22.4,7.77z"/>
	</g>
</g>
<g>
	<g>
		<path d="M1041.92-133.62c-4.34-2.75-9.94-2.45-13.96,0.74c-4.02,3.19-5.59,8.58-3.9,13.43c1.69,4.85,6.26,8.1,11.4,8.1
			c3.9,0,7.68-1.79,10.21-4.74c-2.02-0.74-4.05-1.47-6.07-2.21c-1.26,1.02-2.51,1.46-4.14,1.46c-2.39,0-4.2-1.77-4.99-3.84
			c5.58,0,11.16,0,16.74,0C1048.38-125.68,1046.26-130.87,1041.92-133.62z M1030.48-126.17c1.96-5.12,8.02-5.12,9.97,0
			C1037.13-126.17,1033.8-126.17,1030.48-126.17z"/>
		<path d="M990.48-135.49v-6.58h-6.58v24.14l6.58,6.58h5.49c6.67,0,12.07-5.4,12.07-12.07c0-6.67-5.4-12.07-12.07-12.07H990.48z
			 M995.96-128.91c3.03,0,5.49,2.46,5.49,5.49c0,3.03-2.46,5.49-5.49,5.49h-5.49v-10.97H995.96z"/>
		<rect x="1012.42" y="-142.08" width="6.58" height="30.72"/>
		<g>
			<polygon points="969.63,-142.08 963.04,-135.49 963.04,-111.35 969.63,-111.35 969.63,-135.49 980.6,-135.49 980.6,-142.08 			
				"/>
			<polygon points="952.07,-142.08 952.07,-135.49 959.94,-135.49 966.52,-142.08 			"/>
		</g>
	</g>
	<g>
		<path d="M927.59-117.01c-7.22,0-13.08-5.86-13.08-13.08c0-5.84,3.83-10.79,9.11-12.47c-4.32-1.35-9.33-0.54-13.11,3.24
			c-8.24,8.24-2.4,22.32,9.24,22.32c0,3.03-0.8,5.42-2.61,7.84c4.31-1.39,8.19-4.23,11.01-7.87
			C927.96-117.02,927.78-117.01,927.59-117.01z"/>
		<path d="M920.98-139.32c-8.24,8.24-2.4,22.32,9.24,22.32c0,3.03-0.8,5.42-2.61,7.84c8.74-2.82,15.69-11.55,15.69-20.92
			C943.29-141.72,929.21-147.55,920.98-139.32z"/>
	</g>
</g>
<g>
	<g>
		<path d="M1041.92-49.43c-4.34-2.75-9.94-2.45-13.96,0.74c-4.02,3.19-5.59,8.58-3.9,13.43c1.69,4.85,6.26,8.1,11.4,8.1
			c3.9,0,7.68-1.79,10.21-4.74c-2.02-0.74-4.05-1.47-6.07-2.21c-1.26,1.02-2.51,1.46-4.14,1.46c-2.39,0-4.2-1.77-4.99-3.84
			c5.58,0,11.16,0,16.74,0C1048.38-41.49,1046.26-46.68,1041.92-49.43z M1030.48-41.98c1.96-5.12,8.02-5.12,9.97,0
			C1037.13-41.98,1033.8-41.98,1030.48-41.98z"/>
		<path d="M990.48-51.3v-6.58h-6.58v24.14l6.58,6.58h5.49c6.67,0,12.07-5.4,12.07-12.07s-5.4-12.07-12.07-12.07H990.48z
			 M995.96-44.72c3.03,0,5.49,2.46,5.49,5.49c0,3.03-2.46,5.49-5.49,5.49h-5.49v-10.97H995.96z"/>
		<rect x="1012.42" y="-57.89" width="6.58" height="30.72"/>
		<g>
			<polygon points="969.63,-57.89 963.04,-51.3 963.04,-27.16 969.63,-27.16 969.63,-51.3 980.6,-51.3 980.6,-57.89 			"/>
			<polygon points="952.07,-57.89 952.07,-51.3 959.94,-51.3 966.52,-57.89 			"/>
		</g>
	</g>
	<g>
		<path d="M927.59-32.82c-7.22,0-13.08-5.86-13.08-13.08c0-5.84,3.83-10.79,9.11-12.47c-4.32-1.35-9.33-0.54-13.11,3.24
			c-8.24,8.24-2.4,22.32,9.24,22.32c0,3.03-0.8,5.42-2.61,7.84c4.31-1.39,8.19-4.23,11.01-7.87
			C927.96-32.83,927.78-32.82,927.59-32.82z"/>
		<path d="M920.98-55.13c-8.24,8.24-2.4,22.32,9.24,22.32c0,3.03-0.8,5.42-2.61,7.84c8.74-2.82,15.69-11.55,15.69-20.92
			C943.29-57.53,929.21-63.37,920.98-55.13z"/>
	</g>
</g>
<g>
	<g>
		<path d="M1041.92,34.76c-4.34-2.75-9.94-2.45-13.96,0.74c-4.02,3.19-5.59,8.58-3.9,13.43c1.69,4.85,6.26,8.1,11.4,8.1
			c3.9,0,7.68-1.79,10.21-4.74c-2.02-0.74-4.05-1.47-6.07-2.21c-1.26,1.02-2.51,1.46-4.14,1.46c-2.39,0-4.2-1.77-4.99-3.84
			c5.58,0,11.16,0,16.74,0C1048.38,42.7,1046.26,37.51,1041.92,34.76z M1030.48,42.21c1.96-5.12,8.02-5.12,9.97,0
			C1037.13,42.21,1033.8,42.21,1030.48,42.21z"/>
		<path d="M990.48,32.89V26.3h-6.58v24.14l6.58,6.58h5.49c6.67,0,12.07-5.4,12.07-12.07s-5.4-12.07-12.07-12.07H990.48z
			 M995.96,39.47c3.03,0,5.49,2.46,5.49,5.49c0,3.03-2.46,5.49-5.49,5.49h-5.49V39.47H995.96z"/>
		<rect x="1012.42" y="26.3" width="6.58" height="30.72"/>
		<g>
			<polygon points="969.63,26.3 963.04,32.89 963.04,57.03 969.63,57.03 969.63,32.89 980.6,32.89 980.6,26.3 			"/>
			<polygon points="952.07,26.3 952.07,32.89 959.94,32.89 966.52,26.3 			"/>
		</g>
	</g>
	<g>
		<path d="M927.59,51.37c-7.22,0-13.08-5.86-13.08-13.08c0-5.84,3.83-10.79,9.11-12.47c-4.32-1.35-9.33-0.54-13.11,3.24
			c-8.24,8.24-2.4,22.32,9.24,22.32c0,3.03-0.8,5.42-2.61,7.84c4.31-1.39,8.19-4.23,11.01-7.87
			C927.96,51.36,927.78,51.37,927.59,51.37z"/>
		<path d="M920.98,29.06c-8.24,8.24-2.4,22.32,9.24,22.32c0,3.03-0.8,5.42-2.61,7.84c8.74-2.82,15.69-11.55,15.69-20.92
			C943.29,26.66,929.21,20.82,920.98,29.06z"/>
	</g>
</g>
<g>
	<g>
		<path d="M1041.92,118.95c-4.34-2.75-9.94-2.45-13.96,0.74c-4.02,3.19-5.59,8.58-3.9,13.43c1.69,4.85,6.26,8.1,11.4,8.1
			c3.9,0,7.68-1.79,10.21-4.74c-2.02-0.74-4.05-1.47-6.07-2.21c-1.26,1.02-2.51,1.46-4.14,1.46c-2.39,0-4.2-1.77-4.99-3.84
			c5.58,0,11.16,0,16.74,0C1048.38,126.89,1046.26,121.7,1041.92,118.95z M1030.48,126.4c1.96-5.12,8.02-5.12,9.97,0
			C1037.13,126.4,1033.8,126.4,1030.48,126.4z"/>
		<path d="M990.48,117.07v-6.58h-6.58v24.14l6.58,6.58h5.49c6.67,0,12.07-5.4,12.07-12.07c0-6.67-5.4-12.07-12.07-12.07H990.48z
			 M995.96,123.66c3.03,0,5.49,2.46,5.49,5.49c0,3.03-2.46,5.49-5.49,5.49h-5.49v-10.97H995.96z"/>
		<rect x="1012.42" y="110.49" width="6.58" height="30.72"/>
		<g>
			<polygon points="969.63,110.49 963.04,117.07 963.04,141.21 969.63,141.21 969.63,117.07 980.6,117.07 980.6,110.49 			"/>
			<polygon points="952.07,110.49 952.07,117.07 959.94,117.07 966.52,110.49 			"/>
		</g>
	</g>
	<g>
		<path d="M927.59,135.56c-7.22,0-13.08-5.86-13.08-13.08c0-5.84,3.83-10.79,9.11-12.47c-4.32-1.35-9.33-0.54-13.11,3.24
			c-8.24,8.24-2.4,22.32,9.24,22.32c0,3.03-0.8,5.42-2.61,7.84c4.31-1.39,8.19-4.23,11.01-7.87
			C927.96,135.55,927.78,135.56,927.59,135.56z"/>
		<path d="M920.98,113.25c-8.24,8.24-2.4,22.32,9.24,22.32c0,3.03-0.8,5.42-2.61,7.84c8.74-2.82,15.69-11.55,15.69-20.92
			C943.29,110.85,929.21,105.01,920.98,113.25z"/>
	</g>
</g>
<g>
	<g>
		<path class="st0" d="M1041.92,203.14c-4.34-2.75-9.94-2.45-13.96,0.74c-4.02,3.19-5.59,8.58-3.9,13.43
			c1.69,4.85,6.26,8.1,11.4,8.1c3.9,0,7.68-1.79,10.21-4.74c-2.02-0.74-4.05-1.47-6.07-2.21c-1.26,1.02-2.51,1.46-4.14,1.46
			c-2.39,0-4.2-1.77-4.99-3.84c5.58,0,11.16,0,16.74,0C1048.38,211.08,1046.26,205.88,1041.92,203.14z M1030.48,210.59
			c1.96-5.12,8.02-5.12,9.97,0C1037.13,210.59,1033.8,210.59,1030.48,210.59z"/>
		<path class="st0" d="M990.48,201.26v-6.58h-6.58v24.14l6.58,6.58h5.49c6.67,0,12.07-5.4,12.07-12.07c0-6.67-5.4-12.07-12.07-12.07
			H990.48z M995.96,207.85c3.03,0,5.49,2.46,5.49,5.49c0,3.03-2.46,5.49-5.49,5.49h-5.49v-10.97H995.96z"/>
		<rect x="1012.42" y="194.68" class="st0" width="6.58" height="30.72"/>
		<g>
			<polygon class="st0" points="969.63,194.68 963.04,201.26 963.04,225.4 969.63,225.4 969.63,201.26 980.6,201.26 980.6,194.68 
							"/>
			<polygon class="st0" points="952.07,194.68 952.07,201.26 959.94,201.26 966.52,194.68 			"/>
		</g>
	</g>
	<g>
		<path class="st0" d="M927.59,219.74c-7.22,0-13.08-5.86-13.08-13.08c0-5.84,3.83-10.79,9.11-12.47
			c-4.32-1.35-9.33-0.54-13.11,3.24c-8.24,8.24-2.4,22.32,9.24,22.32c0,3.03-0.8,5.42-2.61,7.84c4.31-1.39,8.19-4.23,11.01-7.87
			C927.96,219.74,927.78,219.74,927.59,219.74z"/>
		<path class="st0" d="M920.98,197.44c-8.24,8.24-2.4,22.32,9.24,22.32c0,3.03-0.8,5.42-2.61,7.84
			c8.74-2.82,15.69-11.55,15.69-20.92C943.29,195.03,929.21,189.2,920.98,197.44z"/>
	</g>
</g>
<g>
	<g>
		<path class="st0" d="M1041.92,287.33c-4.34-2.75-9.94-2.45-13.96,0.74c-4.02,3.19-5.59,8.58-3.9,13.43
			c1.69,4.85,6.26,8.1,11.4,8.1c3.9,0,7.68-1.79,10.21-4.74c-2.02-0.74-4.05-1.47-6.07-2.21c-1.26,1.02-2.51,1.46-4.14,1.46
			c-2.39,0-4.2-1.77-4.99-3.84c5.58,0,11.16,0,16.74,0C1048.38,295.26,1046.26,290.07,1041.92,287.33z M1030.48,294.78
			c1.96-5.12,8.02-5.12,9.97,0C1037.13,294.78,1033.8,294.78,1030.48,294.78z"/>
		<path class="st0" d="M990.48,285.45v-6.58h-6.58v24.14l6.58,6.58h5.49c6.67,0,12.07-5.4,12.07-12.07s-5.4-12.07-12.07-12.07
			H990.48z M995.96,292.04c3.03,0,5.49,2.46,5.49,5.49c0,3.03-2.46,5.49-5.49,5.49h-5.49v-10.97H995.96z"/>
		<rect x="1012.42" y="278.87" class="st0" width="6.58" height="30.72"/>
		<g>
			<polygon class="st0" points="969.63,278.87 963.04,285.45 963.04,309.59 969.63,309.59 969.63,285.45 980.6,285.45 980.6,278.87 
							"/>
			<polygon class="st0" points="952.07,278.87 952.07,285.45 959.94,285.45 966.52,278.87 			"/>
		</g>
	</g>
	<g>
		<path class="st0" d="M927.59,303.93c-7.22,0-13.08-5.86-13.08-13.08c0-5.84,3.83-10.79,9.11-12.47
			c-4.32-1.35-9.33-0.54-13.11,3.24c-8.24,8.24-2.4,22.32,9.24,22.32c0,3.03-0.8,5.42-2.61,7.84c4.31-1.39,8.19-4.23,11.01-7.87
			C927.96,303.93,927.78,303.93,927.59,303.93z"/>
		<path class="st0" d="M920.98,281.63c-8.24,8.24-2.4,22.32,9.24,22.32c0,3.03-0.8,5.42-2.61,7.84
			c8.74-2.82,15.69-11.55,15.69-20.92C943.29,279.22,929.21,273.39,920.98,281.63z"/>
	</g>
</g>
<g>
	<g>
		<path class="st0" d="M1041.92,371.51c-4.34-2.75-9.94-2.45-13.96,0.74c-4.02,3.19-5.59,8.58-3.9,13.43
			c1.69,4.85,6.26,8.1,11.4,8.1c3.9,0,7.68-1.79,10.21-4.74c-2.02-0.74-4.05-1.47-6.07-2.21c-1.26,1.02-2.51,1.46-4.14,1.46
			c-2.39,0-4.2-1.77-4.99-3.84c5.58,0,11.16,0,16.74,0C1048.38,379.45,1046.26,374.26,1041.92,371.51z M1030.48,378.97
			c1.96-5.12,8.02-5.12,9.97,0C1037.13,378.97,1033.8,378.97,1030.48,378.97z"/>
		<path class="st0" d="M990.48,369.64v-6.58h-6.58v24.14l6.58,6.58h5.49c6.67,0,12.07-5.4,12.07-12.07s-5.4-12.07-12.07-12.07
			H990.48z M995.96,376.22c3.03,0,5.49,2.46,5.49,5.49s-2.46,5.49-5.49,5.49h-5.49v-10.97H995.96z"/>
		<rect x="1012.42" y="363.06" class="st0" width="6.58" height="30.72"/>
		<g>
			<polygon class="st0" points="969.63,363.06 963.04,369.64 963.04,393.78 969.63,393.78 969.63,369.64 980.6,369.64 980.6,363.06 
							"/>
			<polygon class="st0" points="952.07,363.06 952.07,369.64 959.94,369.64 966.52,363.06 			"/>
		</g>
	</g>
	<g>
		<path class="st0" d="M927.59,388.12c-7.22,0-13.08-5.86-13.08-13.08c0-5.84,3.83-10.79,9.11-12.47
			c-4.32-1.35-9.33-0.54-13.11,3.24c-8.24,8.24-2.4,22.32,9.24,22.32c0,3.03-0.8,5.42-2.61,7.84c4.31-1.39,8.19-4.23,11.01-7.87
			C927.96,388.12,927.78,388.12,927.59,388.12z"/>
		<path class="st0" d="M920.98,365.81c-8.24,8.24-2.4,22.32,9.24,22.32c0,3.03-0.8,5.42-2.61,7.84
			c8.74-2.82,15.69-11.55,15.69-20.92C943.29,363.41,929.21,357.58,920.98,365.81z"/>
	</g>
</g>
<g>
	<g>
		<path class="st0" d="M1041.92,455.7c-4.34-2.75-9.94-2.45-13.96,0.74c-4.02,3.19-5.59,8.58-3.9,13.43c1.69,4.85,6.26,8.1,11.4,8.1
			c3.9,0,7.68-1.79,10.21-4.74c-2.02-0.74-4.05-1.47-6.07-2.21c-1.26,1.02-2.51,1.46-4.14,1.46c-2.39,0-4.2-1.77-4.99-3.84
			c5.58,0,11.16,0,16.74,0C1048.38,463.64,1046.26,458.45,1041.92,455.7z M1030.48,463.16c1.96-5.12,8.02-5.12,9.97,0
			C1037.13,463.16,1033.8,463.16,1030.48,463.16z"/>
		<path class="st0" d="M990.48,453.83v-6.58h-6.58v24.14l6.58,6.58h5.49c6.67,0,12.07-5.4,12.07-12.07c0-6.67-5.4-12.07-12.07-12.07
			H990.48z M995.96,460.41c3.03,0,5.49,2.46,5.49,5.49c0,3.03-2.46,5.49-5.49,5.49h-5.49v-10.97H995.96z"/>
		<rect x="1012.42" y="447.25" class="st0" width="6.58" height="30.72"/>
		<g>
			<polygon class="st0" points="969.63,447.25 963.04,453.83 963.04,477.97 969.63,477.97 969.63,453.83 980.6,453.83 980.6,447.25 
							"/>
			<polygon class="st0" points="952.07,447.25 952.07,453.83 959.94,453.83 966.52,447.25 			"/>
		</g>
	</g>
	<g>
		<path class="st0" d="M927.59,472.31c-7.22,0-13.08-5.86-13.08-13.08c0-5.84,3.83-10.79,9.11-12.47
			c-4.32-1.35-9.33-0.54-13.11,3.24c-8.24,8.24-2.4,22.32,9.24,22.32c0,3.03-0.8,5.42-2.61,7.84c4.31-1.39,8.19-4.23,11.01-7.87
			C927.96,472.31,927.78,472.31,927.59,472.31z"/>
		<path class="st0" d="M920.98,450c-8.24,8.24-2.4,22.32,9.24,22.32c0,3.03-0.8,5.42-2.61,7.84c8.74-2.82,15.69-11.55,15.69-20.92
			C943.29,447.6,929.21,441.77,920.98,450z"/>
	</g>
</g>
<g>
	<g>
		<path class="st0" d="M1041.92,539.89c-4.34-2.75-9.94-2.45-13.96,0.74c-4.02,3.19-5.59,8.58-3.9,13.43
			c1.69,4.85,6.26,8.1,11.4,8.1c3.9,0,7.68-1.79,10.21-4.74c-2.02-0.74-4.05-1.47-6.07-2.21c-1.26,1.02-2.51,1.46-4.14,1.46
			c-2.39,0-4.2-1.77-4.99-3.84c5.58,0,11.16,0,16.74,0C1048.38,547.83,1046.26,542.64,1041.92,539.89z M1030.48,547.35
			c1.96-5.12,8.02-5.12,9.97,0C1037.13,547.35,1033.8,547.35,1030.48,547.35z"/>
		<path class="st0" d="M990.48,538.02v-6.58h-6.58v24.14l6.58,6.58h5.49c6.67,0,12.07-5.4,12.07-12.07s-5.4-12.07-12.07-12.07
			H990.48z M995.96,544.6c3.03,0,5.49,2.46,5.49,5.49c0,3.03-2.46,5.49-5.49,5.49h-5.49V544.6H995.96z"/>
		<rect x="1012.42" y="531.43" class="st0" width="6.58" height="30.72"/>
		<g>
			<polygon class="st0" points="969.63,531.44 963.04,538.02 963.04,562.16 969.63,562.16 969.63,538.02 980.6,538.02 980.6,531.43 
							"/>
			<polygon class="st0" points="952.07,531.44 952.07,538.02 959.94,538.02 966.52,531.44 			"/>
		</g>
	</g>
	<g>
		<path class="st0" d="M927.59,556.5c-7.22,0-13.08-5.86-13.08-13.08c0-5.84,3.83-10.79,9.11-12.47c-4.32-1.35-9.33-0.54-13.11,3.24
			c-8.24,8.24-2.4,22.32,9.24,22.32c0,3.03-0.8,5.42-2.61,7.84c4.31-1.39,8.19-4.23,11.01-7.87
			C927.96,556.49,927.78,556.5,927.59,556.5z"/>
		<path class="st0" d="M920.98,534.19c-8.24,8.24-2.4,22.32,9.24,22.32c0,3.03-0.8,5.42-2.61,7.84
			c8.74-2.82,15.69-11.55,15.69-20.92C943.29,531.79,929.21,525.96,920.98,534.19z"/>
	</g>
</g>
<g>
	<g>
		<path class="st0" d="M1041.92,624.08c-4.34-2.75-9.94-2.45-13.96,0.74c-4.02,3.19-5.59,8.58-3.9,13.43
			c1.69,4.85,6.26,8.1,11.4,8.1c3.9,0,7.68-1.79,10.21-4.74c-2.02-0.74-4.05-1.47-6.07-2.21c-1.26,1.02-2.51,1.46-4.14,1.46
			c-2.39,0-4.2-1.77-4.99-3.84c5.58,0,11.16,0,16.74,0C1048.38,632.02,1046.26,626.83,1041.92,624.08z M1030.48,631.53
			c1.96-5.12,8.02-5.12,9.97,0C1037.13,631.53,1033.8,631.53,1030.48,631.53z"/>
		<path class="st0" d="M990.48,622.21v-6.58h-6.58v24.14l6.58,6.58h5.49c6.67,0,12.07-5.4,12.07-12.07c0-6.67-5.4-12.07-12.07-12.07
			H990.48z M995.96,628.79c3.03,0,5.49,2.46,5.49,5.49c0,3.03-2.46,5.49-5.49,5.49h-5.49v-10.97H995.96z"/>
		<rect x="1012.42" y="615.62" class="st0" width="6.58" height="30.72"/>
		<g>
			<polygon class="st0" points="969.63,615.62 963.04,622.21 963.04,646.35 969.63,646.35 969.63,622.21 980.6,622.21 980.6,615.62 
							"/>
			<polygon class="st0" points="952.07,615.62 952.07,622.21 959.94,622.21 966.52,615.62 			"/>
		</g>
	</g>
	<g>
		<path class="st0" d="M927.59,640.69c-7.22,0-13.08-5.86-13.08-13.08c0-5.84,3.83-10.79,9.11-12.47
			c-4.32-1.35-9.33-0.54-13.11,3.24c-8.24,8.24-2.4,22.32,9.24,22.32c0,3.03-0.8,5.42-2.61,7.84c4.31-1.39,8.19-4.23,11.01-7.87
			C927.96,640.68,927.78,640.69,927.59,640.69z"/>
		<path class="st0" d="M920.98,618.38c-8.24,8.24-2.4,22.32,9.24,22.32c0,3.03-0.8,5.42-2.61,7.84
			c8.74-2.82,15.69-11.55,15.69-20.92C943.29,615.98,929.21,610.15,920.98,618.38z"/>
	</g>
</g>
<g>
	<g>
		<path class="st2" d="M403.07,184.65c-30.08,0-74.73,9.26-94.48,32.82c-13.36,15.94-8.9,33.08,12.56,44.18
			c16.4,8.48,37.12,10.87,53.6,10.87c30.08,0,74.73-9.26,94.48-32.82c13.36-15.94,8.9-33.08-12.56-44.18
			C440.27,187.04,419.55,184.65,403.07,184.65z"/>
	</g>
	<g>
		<path class="st1" d="M445.53,219.67c-5.6-3.55-12.84-3.16-18.03,0.96c-5.2,4.12-7.21,11.08-5.03,17.34s8.09,10.46,14.72,10.46
			c5.04,0,9.92-2.32,13.18-6.12c-2.61-0.95-5.23-1.9-7.84-2.85c-1.63,1.32-3.24,1.89-5.34,1.89c-3.08,0-5.42-2.29-6.44-4.96
			c7.21,0,14.42,0,21.62,0C453.88,229.93,451.14,223.22,445.53,219.67z M430.75,229.3c2.53-6.61,10.36-6.61,12.88,0
			C439.34,229.3,435.04,229.3,430.75,229.3z"/>
		<path class="st1" d="M379.08,217.25v-8.5h-8.5v31.18l8.5,8.5h7.09c8.61,0,15.59-6.98,15.59-15.59c0-8.61-6.98-15.59-15.59-15.59
			H379.08z M386.17,225.76c3.91,0,7.09,3.17,7.09,7.09c0,3.91-3.17,7.09-7.09,7.09h-7.09v-14.17H386.17z"/>
		<rect x="407.43" y="208.75" class="st1" width="8.5" height="39.69"/>
		<g>
			<polygon class="st1" points="352.15,208.75 343.65,217.25 343.65,248.43 352.15,248.43 352.15,217.25 366.33,217.25 
				366.33,208.75 			"/>
			<polygon class="st1" points="329.48,208.75 329.48,217.25 339.64,217.25 348.14,208.75 			"/>
		</g>
	</g>
</g>
<g>
	<path class="st1" d="M672.37,177.57c-20.47,0-39.65,2.64-59.02,10.01c-11.49,4.37-21.62,9.53-30.37,18.88
		c-5.58,5.97-9.82,13.39-9.82,22.13c0,8.75,4.24,16.18,9.83,22.14c8.76,9.35,18.9,14.51,30.4,18.88c19.36,7.36,38.53,10,58.98,10
		c20.47,0,39.65-2.64,59.02-10.01c11.49-4.37,21.62-9.53,30.37-18.88c5.59-5.97,9.82-13.39,9.82-22.13c0-8.75-4.24-16.18-9.83-22.14
		c-8.76-9.35-18.9-14.51-30.4-18.88C711.99,180.2,692.82,177.57,672.37,177.57z"/>
	<g>
		<path class="st2" d="M686.53,184.65c-30.08,0-74.73,9.26-94.48,32.82c-13.36,15.94-8.9,33.08,12.56,44.18
			c16.4,8.48,37.12,10.87,53.6,10.87c30.08,0,74.73-9.26,94.48-32.82c13.36-15.94,8.9-33.08-12.56-44.18
			C723.73,187.04,703.01,184.65,686.53,184.65z"/>
	</g>
	<g>
		<path class="st1" d="M729,219.67c-5.6-3.55-12.84-3.16-18.03,0.96c-5.2,4.12-7.21,11.08-5.03,17.34
			c2.18,6.26,8.09,10.46,14.72,10.46c5.04,0,9.92-2.32,13.18-6.12c-2.61-0.95-5.23-1.9-7.84-2.85c-1.63,1.32-3.24,1.89-5.34,1.89
			c-3.08,0-5.42-2.29-6.44-4.96c7.21,0,14.42,0,21.62,0C737.35,229.93,734.6,223.22,729,219.67z M714.21,229.3
			c2.53-6.61,10.36-6.61,12.88,0C722.8,229.3,718.51,229.3,714.21,229.3z"/>
		<path class="st1" d="M662.55,217.25v-8.5h-8.5v31.18l8.5,8.5h7.09c8.61,0,15.59-6.98,15.59-15.59c0-8.61-6.98-15.59-15.59-15.59
			H662.55z M669.63,225.76c3.91,0,7.09,3.17,7.09,7.09c0,3.91-3.17,7.09-7.09,7.09h-7.09v-14.17H669.63z"/>
		<rect x="690.89" y="208.75" class="st1" width="8.5" height="39.69"/>
		<g>
			<polygon class="st1" points="635.62,208.75 627.11,217.25 627.11,248.43 635.62,248.43 635.62,217.25 649.79,217.25 
				649.79,208.75 			"/>
			<polygon class="st1" points="612.94,208.75 612.94,217.25 623.1,217.25 631.61,208.75 			"/>
		</g>
	</g>
</g>
<g>
	<g>
		<path class="st1" d="M403.07,312.21c-30.08,0-74.73,9.26-94.48,32.82c-13.36,15.94-8.9,33.08,12.56,44.18
			c16.4,8.48,37.12,10.87,53.6,10.87c30.08,0,74.73-9.26,94.48-32.82c13.36-15.94,8.9-33.08-12.56-44.18
			C440.27,314.6,419.55,312.21,403.07,312.21z"/>
	</g>
	<g>
		<path class="st2" d="M445.53,347.23c-5.6-3.55-12.84-3.16-18.03,0.96c-5.2,4.12-7.21,11.08-5.03,17.34
			c2.18,6.26,8.09,10.46,14.72,10.46c5.04,0,9.92-2.32,13.18-6.12c-2.61-0.95-5.23-1.9-7.84-2.85c-1.63,1.32-3.24,1.89-5.34,1.89
			c-3.08,0-5.42-2.29-6.44-4.96c7.21,0,14.42,0,21.62,0C453.88,357.49,451.14,350.78,445.53,347.23z M430.75,356.86
			c2.53-6.61,10.36-6.61,12.88,0C439.34,356.86,435.04,356.86,430.75,356.86z"/>
		<path class="st2" d="M379.08,344.81v-8.5h-8.5v31.18l8.5,8.5h7.09c8.61,0,15.59-6.98,15.59-15.59c0-8.61-6.98-15.59-15.59-15.59
			H379.08z M386.17,353.31c3.91,0,7.09,3.17,7.09,7.09c0,3.91-3.17,7.09-7.09,7.09h-7.09v-14.17H386.17z"/>
		<rect x="407.43" y="336.31" class="st2" width="8.5" height="39.69"/>
		<g>
			<polygon class="st2" points="352.15,336.31 343.65,344.81 343.65,375.99 352.15,375.99 352.15,344.81 366.33,344.81 
				366.33,336.31 			"/>
			<polygon class="st2" points="329.48,336.31 329.48,344.81 339.64,344.81 348.14,336.31 			"/>
		</g>
	</g>
</g>
<circle class="st2" cx="326.54" cy="497.88" r="42.52"/>
<circle class="st11" cx="734.73" cy="497.88" r="42.52"/>
<circle class="st12" cx="598.67" cy="497.88" r="42.52"/>
<text transform="matrix(1 0 0 1 305.7264 573.7299)"><tspan x="0" y="0" style="font-family:'MyriadPro-Bold'; font-size:18px;">Main</tspan><tspan x="-26.04" y="24" style="font-family:'MyriadPro-Regular'; font-size:14px;">C0 M30 Y100 K0</tspan><tspan x="-19.37" y="48" style="font-family:'MyriadPro-Regular'; font-size:14px;">R251 G186 B0</tspan><tspan x="-5.12" y="72" style="font-family:'MyriadPro-Regular'; font-size:14px;">#FBBA00</tspan></text>
<circle class="st1" cx="462.61" cy="497.88" r="42.52"/>
<text transform="matrix(1 0 0 1 442.8513 573.7299)"><tspan x="0" y="0" style="font-family:'MyriadPro-Bold'; font-size:18px;">Sub1</tspan><tspan x="-19.92" y="24" style="font-family:'MyriadPro-Regular'; font-size:14px;">C0 M0 Y0 K90</tspan><tspan x="-16.84" y="48" style="font-family:'MyriadPro-Regular'; font-size:14px;">R60 G60 B60</tspan><tspan x="-6.68" y="72" style="font-family:'MyriadPro-Regular'; font-size:14px;">#3C3C3C</tspan></text>
<text transform="matrix(1 0 0 1 714.9773 573.7299)"><tspan x="0" y="0" style="font-family:'MyriadPro-Bold'; font-size:18px;">Sub3</tspan><tspan x="-27.1" y="24" style="font-family:'MyriadPro-Regular'; font-size:14px;">C0 M50 Y100 K0</tspan><tspan x="-20.43" y="48" style="font-family:'MyriadPro-Regular'; font-size:14px;">R243 G146 B0</tspan><tspan x="-5.09" y="72" style="font-family:'MyriadPro-Regular'; font-size:14px;">#F39200</tspan></text>
<text transform="matrix(1 0 0 1 578.9144 573.7299)"><tspan x="0" y="0" style="font-family:'MyriadPro-Bold'; font-size:18px;">Sub2</tspan><tspan x="-27.1" y="24" style="font-family:'MyriadPro-Regular'; font-size:14px;">C0 M10 Y100 K0</tspan><tspan x="-20.43" y="48" style="font-family:'MyriadPro-Regular'; font-size:14px;">R255 G221 B0</tspan><tspan x="-7.05" y="72" style="font-family:'MyriadPro-Regular'; font-size:14px;">#FFDD00</tspan></text>
<g>
	<g>
		
			<ellipse transform="matrix(0.8417 -0.54 0.54 0.8417 -85.8603 419.4732)" class="st1" cx="672.37" cy="356.15" rx="36.85" ry="36.85"/>
		
			<ellipse transform="matrix(0.7485 -0.6632 0.6632 0.7485 -67.0679 535.4661)" class="st2" cx="672.37" cy="356.15" rx="34.39" ry="27"/>
	</g>
	<g>
		<polygon class="st1" points="653.95,349.06 653.95,340.56 690.8,340.56 690.8,349.06 676.62,349.06 676.62,380.24 668.12,380.24 
			668.12,349.06 		"/>
	</g>
</g>
<text transform="matrix(1 0 0 1 842.993 192.618)" class="st0" style="font-family:'MyriadPro-Bold'; font-size:14px;">50%</text>
<text transform="matrix(1 0 0 1 842.993 108.4291)" style="font-family:'MyriadPro-Bold'; font-size:14px;">40%</text>
<text transform="matrix(1 0 0 1 842.993 24.2401)" style="font-family:'MyriadPro-Bold'; font-size:14px;">30%</text>
<text transform="matrix(1 0 0 1 842.993 -59.9489)" style="font-family:'MyriadPro-Bold'; font-size:14px;">20%</text>
<text transform="matrix(1 0 0 1 842.993 -144.1378)" style="font-family:'MyriadPro-Bold'; font-size:14px;">10%</text>
<text transform="matrix(1 0 0 1 842.993 276.807)" class="st0" style="font-family:'MyriadPro-Bold'; font-size:14px;">60%</text>
<text transform="matrix(1 0 0 1 842.993 360.996)" class="st0" style="font-family:'MyriadPro-Bold'; font-size:14px;">70%</text>
<text transform="matrix(1 0 0 1 842.993 445.185)" class="st0" style="font-family:'MyriadPro-Bold'; font-size:14px;">80%</text>
<text transform="matrix(1 0 0 1 842.993 529.374)" class="st0" style="font-family:'MyriadPro-Bold'; font-size:14px;">90%</text>
<text transform="matrix(1 0 0 1 842.993 613.5629)" class="st0" style="font-family:'MyriadPro-Bold'; font-size:14px;">100%</text>
<g>
	<g>
		<path class="st2" d="M394.57,41.24c-15.66,0-28.35-12.69-28.35-28.35c0-12.66,8.3-23.37,19.75-27.01
			c-9.35-2.92-20.21-1.17-28.4,7.02c-17.85,17.85-5.21,48.36,20.03,48.36c0,6.57-1.72,11.74-5.67,17
			c9.35-3.02,17.75-9.16,23.86-17.05C395.38,41.23,394.98,41.24,394.57,41.24z"/>
		<path class="st2" d="M380.24-7.09c-17.85,17.85-5.21,48.36,20.03,48.36c0,6.57-1.72,11.74-5.67,17
			c18.93-6.11,33.99-25.03,33.99-45.32C428.6-12.3,398.09-24.94,380.24-7.09z"/>
	</g>
	<g>
		<path class="st1" d="M443.31,83.36c-5.6-3.55-12.84-3.17-18.03,0.96c-5.2,4.12-7.21,11.08-5.03,17.34
			c2.18,6.26,8.09,10.46,14.72,10.46c5.04,0,9.92-2.32,13.18-6.12c-2.61-0.95-5.23-1.9-7.84-2.85c-1.63,1.32-3.24,1.89-5.34,1.89
			c-3.08,0-5.42-2.29-6.44-4.96c7.21,0,14.42,0,21.62,0C451.66,93.61,448.91,86.91,443.31,83.36z M428.53,92.98
			c2.53-6.61,10.36-6.61,12.88,0C437.11,92.98,432.82,92.98,428.53,92.98z"/>
		<path class="st1" d="M376.86,80.94v-8.5h-8.5v31.18l8.5,8.5h7.09c8.61,0,15.59-6.98,15.59-15.59c0-8.61-6.98-15.59-15.59-15.59
			H376.86z M383.94,89.44c3.91,0,7.09,3.17,7.09,7.09c0,3.91-3.17,7.09-7.09,7.09h-7.09V89.44H383.94z"/>
		<rect x="405.2" y="72.43" class="st1" width="8.5" height="39.69"/>
		<g>
			<polygon class="st1" points="349.93,72.43 341.43,80.94 341.43,112.12 349.93,112.12 349.93,80.94 364.1,80.94 364.1,72.43 			
				"/>
			<polygon class="st1" points="327.25,72.43 327.25,80.94 337.42,80.94 345.92,72.43 			"/>
		</g>
	</g>
</g>
<g>
	<g>
		<path class="st2" d="M692.2,41.24c-15.66,0-28.35-12.69-28.35-28.35c0-12.66,8.3-23.37,19.75-27.01
			c-9.35-2.92-20.21-1.17-28.4,7.02c-17.85,17.85-5.21,48.36,20.03,48.36c0,6.57-1.72,11.74-5.67,17
			c9.35-3.02,17.75-9.16,23.86-17.05C693.02,41.23,692.61,41.24,692.2,41.24z"/>
		<path class="st2" d="M677.88-7.09c-17.85,17.85-5.21,48.36,20.03,48.36c0,6.57-1.72,11.74-5.67,17
			c18.93-6.11,33.99-25.03,33.99-45.32C726.24-12.3,695.72-24.94,677.88-7.09z"/>
	</g>
	<g>
		<path class="st0" d="M740.95,83.36c-5.6-3.55-12.84-3.17-18.03,0.96c-5.2,4.12-7.21,11.08-5.03,17.34
			c2.18,6.26,8.09,10.46,14.72,10.46c5.04,0,9.92-2.32,13.18-6.12c-2.61-0.95-5.23-1.9-7.84-2.85c-1.63,1.32-3.24,1.89-5.34,1.89
			c-3.08,0-5.42-2.29-6.44-4.96c7.21,0,14.42,0,21.62,0C749.3,93.61,746.55,86.91,740.95,83.36z M726.16,92.98
			c2.53-6.61,10.36-6.61,12.88,0C734.75,92.98,730.46,92.98,726.16,92.98z"/>
		<path class="st0" d="M674.5,80.94v-8.5h-8.5v31.18l8.5,8.5h7.09c8.61,0,15.59-6.98,15.59-15.59c0-8.61-6.98-15.59-15.59-15.59
			H674.5z M681.58,89.44c3.91,0,7.09,3.17,7.09,7.09c0,3.91-3.17,7.09-7.09,7.09h-7.09V89.44H681.58z"/>
		<rect x="702.84" y="72.43" class="st0" width="8.5" height="39.69"/>
		<g>
			<polygon class="st0" points="647.57,72.43 639.06,80.94 639.06,112.12 647.57,112.12 647.57,80.94 661.74,80.94 661.74,72.43 			
				"/>
			<polygon class="st0" points="624.89,72.43 624.89,80.94 635.06,80.94 643.56,72.43 			"/>
		</g>
	</g>
</g>
</svg>
